<svg width="28" height="39" viewBox="0 0 28 39" fill="none" xmlns="http://www.w3.org/2000/svg">
<path d="M0.0648875 14.2787C-0.582499 8.00791 3.77387 3.6264 6.03298 2.2195C12.426 -1.80023 18.4749 0.544613 20.7002 2.2195C25.7984 5.1941 27.1404 10.2255 27.1741 12.3693C27.7406 16.8714 24.8476 22.4856 23.3302 24.73C20.7407 30.1968 15.6425 36.5212 13.4171 39C8.07621 32.8096 4.44815 26.2374 3.30173 23.725C0.550341 19.0622 -0.00257713 15.4846 0.0648875 14.2787Z" fill="#AE51FF"/>
<circle cx="13.623" cy="14.1571" r="10.9521" fill="white"/>
<g clipPath="url(#clip0_520_881)">
<path d="M16.8648 5.8721C16.8951 5.87172 16.9254 5.87135 16.9567 5.87096C16.9895 5.87075 17.0222 5.87053 17.056 5.87031C17.1066 5.86996 17.1066 5.86996 17.1583 5.86959C17.2298 5.86919 17.3013 5.86888 17.3729 5.86865C17.482 5.86814 17.5911 5.86686 17.7003 5.86557C17.7698 5.86528 17.8393 5.86503 17.9088 5.86483C17.9413 5.86432 17.9738 5.86381 18.0074 5.86328C18.1977 5.86381 18.3144 5.88027 18.4689 5.99414C18.5936 6.12555 18.6496 6.25346 18.6569 6.43391C18.6581 6.46263 18.6593 6.49136 18.6606 6.52096C18.6644 6.65409 18.6675 6.78721 18.6695 6.92039C18.6709 6.98972 18.673 7.05905 18.6761 7.12833C18.6804 7.22984 18.6821 7.33112 18.6833 7.43271C18.6851 7.46251 18.6869 7.4923 18.6887 7.523C18.6874 7.78353 18.5862 7.94226 18.4546 8.1611C18.227 8.54989 18.2121 8.88466 18.2209 9.32666C18.221 9.39967 18.2208 9.47269 18.2206 9.54571C18.2203 9.73537 18.2223 9.92493 18.2248 10.1146C18.2269 10.3091 18.2269 10.5036 18.227 10.6981C18.2276 11.0779 18.2305 11.4577 18.2352 11.8375C18.2629 11.8418 18.2906 11.8462 18.3192 11.8508C18.3958 11.8641 18.4498 11.8787 18.5185 11.9124C18.5374 11.9217 18.5563 11.9309 18.5758 11.9405C18.6051 11.9555 18.6051 11.9555 18.6351 11.9708C18.6556 11.9812 18.6761 11.9915 18.6972 12.0023C18.878 12.0962 19.0405 12.2064 19.1993 12.3341C19.2195 12.3496 19.2398 12.365 19.2606 12.3809C19.7667 12.7894 20.0471 13.4441 20.1251 14.0755C20.1499 14.3453 20.1271 14.596 20.0892 14.8638C20.0516 15.1446 20.09 15.3343 20.2566 15.5644C20.6668 16.1316 20.8537 16.7886 20.8482 17.4854C20.8481 17.5149 20.8481 17.5149 20.848 17.545C20.8458 17.866 20.8185 18.1639 20.7186 18.4696C20.7092 18.4994 20.7092 18.4994 20.6996 18.5298C20.4163 19.4098 19.7847 20.1052 18.9674 20.5257C18.1813 20.9132 17.2154 20.9599 16.3902 20.6811C16.0048 20.5443 15.6737 20.3537 15.358 20.0938C15.291 20.0419 15.291 20.0419 15.2291 20.0492C15.1985 20.0627 15.1985 20.0627 15.1674 20.0765C15.1348 20.0895 15.1022 20.1025 15.0686 20.1159C14.8681 20.1944 14.8681 20.1944 14.7279 20.3425C14.7253 20.3626 14.7227 20.3827 14.72 20.4034C14.7 20.5148 14.7 20.5148 14.6556 20.5514C13.7786 20.9663 12.6254 20.8826 11.7337 20.571C11.1777 20.3636 10.7165 20.0383 10.259 19.6675C10.2511 19.6885 10.2432 19.7094 10.235 19.7311C10.1752 19.8747 10.0947 20.0072 10.018 20.1423C10.0016 20.1715 9.98523 20.2007 9.96835 20.2307C9.69333 20.7166 9.69333 20.7166 9.55784 20.807C9.47384 20.8197 9.47384 20.8197 9.38254 20.807C9.29854 20.7449 9.29854 20.7449 9.23646 20.6609C9.22026 20.5185 9.252 20.4374 9.32411 20.3156C9.34271 20.2838 9.36132 20.252 9.38048 20.2193C9.40064 20.1857 9.42081 20.1521 9.44097 20.1185C9.46117 20.0842 9.48133 20.0499 9.50146 20.0155C9.58451 19.8743 9.6688 19.7339 9.75688 19.5957C9.76799 19.5783 9.7791 19.5608 9.79054 19.5428C9.81843 19.4995 9.84697 19.4567 9.87557 19.4139C9.91513 19.3323 9.90813 19.3128 9.87922 19.2293C9.84818 19.1753 9.84818 19.1753 9.80892 19.1223C9.79454 19.1018 9.78015 19.0814 9.76534 19.0603C9.74989 19.0383 9.73444 19.0163 9.71853 18.9937C9.4169 18.551 9.21777 18.0837 9.09037 17.5639C9.08517 17.5427 9.07998 17.5216 9.07462 17.4998C8.83511 16.4695 9.05569 15.3353 9.59812 14.4368C9.71736 14.2477 9.85203 14.0717 9.99609 13.9009C10.0092 13.8853 10.0224 13.8696 10.0359 13.8535C10.1011 13.7788 10.1635 13.7132 10.2433 13.6535C10.4017 13.5317 10.4017 13.5317 10.4904 13.3577C10.5 13.2577 10.501 13.1612 10.4985 13.0608C10.4987 13.0248 10.4989 12.9889 10.4992 12.9519C10.4996 12.8378 10.4981 12.7239 10.4964 12.6099C10.4962 12.5322 10.4964 12.4546 10.4966 12.377C10.4969 12.1874 10.4955 11.9978 10.4928 11.8082C10.4748 11.8088 10.4568 11.8094 10.4383 11.81C10.4029 11.8106 10.4029 11.8106 10.3668 11.8113C10.3434 11.8119 10.32 11.8125 10.2959 11.8131C10.1947 11.8057 10.1489 11.7667 10.0837 11.6914C10.041 11.5899 10.0512 11.5535 10.0929 11.4503C10.1422 11.37 10.1422 11.37 10.2006 11.3408C10.2758 11.3377 10.3502 11.3365 10.4254 11.3365C10.4488 11.3364 10.4723 11.3363 10.4965 11.3362C10.5756 11.3358 10.6546 11.3357 10.7337 11.3356C10.7903 11.3354 10.8468 11.3352 10.9033 11.335C11.0572 11.3345 11.211 11.3342 11.3649 11.334C11.461 11.3338 11.557 11.3336 11.6531 11.3335C11.9534 11.3329 12.2537 11.3325 12.554 11.3322C12.901 11.332 13.2481 11.3312 13.5952 11.33C13.8632 11.3291 14.1312 11.3287 14.3992 11.3286C14.5594 11.3285 14.7196 11.3283 14.8798 11.3275C15.0304 11.3268 15.1811 11.3267 15.3317 11.327C15.3871 11.327 15.4424 11.3269 15.4978 11.3265C15.5732 11.3259 15.6487 11.3261 15.7241 11.3265C15.7461 11.3262 15.7681 11.3259 15.7908 11.3256C15.8927 11.3268 15.9465 11.3332 16.0282 11.3964C16.0902 11.4809 16.0921 11.5338 16.0858 11.6357C16.0731 11.6914 16.0731 11.6914 16.0184 11.7644C15.9271 11.8082 15.9271 11.8082 15.6349 11.8082C15.6445 12.0107 15.6542 12.2132 15.6641 12.4218C15.7177 12.3784 15.7714 12.335 15.8266 12.2903C15.9678 12.1799 16.1127 12.0834 16.2704 11.9982C16.2875 11.9886 16.3047 11.9791 16.3225 11.9693C16.4201 11.9184 16.5124 11.8865 16.6204 11.8638C16.6438 11.8588 16.6673 11.8538 16.6914 11.8486C16.7091 11.8449 16.7269 11.8412 16.7451 11.8375C16.7502 11.4186 16.753 10.9998 16.7534 10.5809C16.7536 10.3863 16.7545 10.1918 16.757 9.99722C16.7595 9.8089 16.76 9.62065 16.7593 9.43231C16.7594 9.36102 16.7601 9.28973 16.7615 9.21845C16.7698 8.77155 16.7129 8.47298 16.4727 8.09225C16.3331 7.87075 16.2815 7.71872 16.2959 7.45303C16.2962 7.41873 16.2966 7.38443 16.2969 7.34909C16.2984 7.24243 16.3026 7.13608 16.3069 7.0295C16.308 6.95663 16.309 6.88376 16.3098 6.81089C16.3214 6.19276 16.3214 6.19276 16.474 6.02735C16.4911 6.01338 16.5083 5.9994 16.526 5.98501C16.5432 5.97066 16.5603 5.95631 16.578 5.94152C16.6713 5.87649 16.7548 5.87328 16.8648 5.8721Z" fill="#020101"/>
<path d="M16.7451 12.3047C16.7505 12.6783 16.7546 13.0519 16.7572 13.4255C16.7584 13.599 16.7601 13.7724 16.7627 13.9459C16.7653 14.1134 16.7666 14.2808 16.7673 14.4483C16.7677 14.5122 16.7685 14.576 16.7698 14.6398C16.7715 14.7294 16.7717 14.8188 16.7716 14.9084C16.7729 14.9479 16.7729 14.9479 16.7742 14.9881C16.7727 15.1009 16.7686 15.1697 16.6936 15.2572C16.6306 15.3118 16.6306 15.3118 16.5679 15.3582C16.4882 15.4194 16.4462 15.4915 16.3981 15.5788C16.3819 15.6074 16.3657 15.6361 16.3491 15.6656C16.2051 15.961 16.1893 16.3487 16.2959 16.6616C16.4226 16.9473 16.6229 17.2335 16.9204 17.3592C17.0017 17.3691 17.0474 17.3697 17.1194 17.3299C17.1641 17.2547 17.1768 17.1866 17.174 17.0994C17.1394 16.9921 17.0509 16.9475 16.9611 16.8855C16.815 16.7764 16.7133 16.6265 16.6574 16.4534C16.6264 16.1577 16.6595 15.8972 16.84 15.6555C17.023 15.4767 17.2146 15.384 17.4718 15.3633C17.7051 15.3701 17.9181 15.4661 18.0837 15.6292C18.2863 15.8483 18.3437 16.0195 18.3367 16.3177C18.308 16.5372 18.2105 16.7305 18.0434 16.8771C17.9828 16.9234 17.9203 16.9656 17.8571 17.0086C17.7885 17.0635 17.7885 17.0635 17.7823 17.1546C17.7984 17.2517 17.8101 17.2947 17.8845 17.3592C18.0612 17.3773 18.1434 17.3172 18.2801 17.2143C18.519 17.016 18.6759 16.7633 18.7318 16.4534C18.7561 16.0737 18.7328 15.7586 18.4839 15.4519C18.3974 15.3538 18.3148 15.2698 18.2059 15.1971C18.1951 15.1448 18.1951 15.1448 18.1954 15.0803C18.1952 15.0559 18.1951 15.0315 18.195 15.0063C18.1953 14.9795 18.1956 14.9526 18.196 14.925C18.1959 14.8827 18.1959 14.8827 18.1959 14.8395C18.196 14.7459 18.1967 14.6523 18.1973 14.5587C18.1975 14.4939 18.1976 14.4292 18.1977 14.3644C18.1981 14.1937 18.1989 14.023 18.1999 13.8523C18.2008 13.6782 18.2012 13.5041 18.2016 13.33C18.2026 12.9882 18.2041 12.6465 18.2059 12.3047C18.2481 12.3184 18.2903 12.3322 18.3324 12.3461C18.3559 12.3538 18.3794 12.3615 18.4036 12.3694C18.9323 12.5553 19.2766 13.0241 19.5207 13.5026C19.5591 13.5892 19.5869 13.6732 19.6083 13.7655C19.6142 13.7908 19.6201 13.816 19.6262 13.842C19.6807 14.1153 19.6987 14.4223 19.6524 14.6984C19.5873 15.092 19.6157 15.444 19.8493 15.7723C19.8669 15.7964 19.8844 15.8204 19.9024 15.8451C20.0926 16.1225 20.2305 16.4184 20.3095 16.7456C20.3182 16.7806 20.3269 16.8156 20.3359 16.8516C20.4356 17.3072 20.4441 17.7867 20.3095 18.2357C20.3037 18.2551 20.2979 18.2745 20.2919 18.2945C20.1554 18.7399 19.9514 19.1143 19.6375 19.4628C19.6171 19.4855 19.5968 19.5083 19.5758 19.5318C19.0951 20.0406 18.3661 20.3795 17.6661 20.4031C16.8538 20.4195 16.1236 20.191 15.518 19.6381C15.4935 19.6162 15.4689 19.5944 15.4437 19.572C15.105 19.2543 14.8961 18.8682 14.7291 18.4402C14.7193 18.4152 14.7094 18.3903 14.6992 18.3646C14.4873 17.7833 14.5236 17.0873 14.7291 16.5119C14.7415 16.4764 14.7538 16.4409 14.7666 16.4044C14.8456 16.2017 14.9491 16.0279 15.0688 15.8472C15.3104 15.4812 15.4056 15.1769 15.3282 14.7345C15.2288 14.1107 15.3618 13.5526 15.7243 13.037C15.956 12.7387 16.2328 12.5297 16.5698 12.3631C16.5909 12.3519 16.612 12.3407 16.6338 12.3292C16.6866 12.3047 16.6866 12.3047 16.7451 12.3047Z" fill="#FCA512"/>
<path d="M15.022 13.3857C15.0088 13.5226 14.9858 13.6476 14.9482 13.78C14.8998 13.9704 14.894 14.1488 14.8978 14.3444C14.8981 14.3917 14.8981 14.3917 14.8983 14.4399C14.8998 14.5978 14.9089 14.7489 14.9344 14.9049C14.9611 15.1804 14.9277 15.3546 14.7591 15.5769C14.6611 15.5443 14.6417 15.5198 14.5783 15.4418C14.268 15.0807 13.8351 14.8339 13.3554 14.7816C12.8268 14.7428 12.3345 14.9129 11.9301 15.2561C11.5797 15.5756 11.359 16.0237 11.3308 16.498C11.3133 17.0176 11.4642 17.5113 11.8173 17.9015C12.1554 18.2566 12.6255 18.4658 13.1143 18.4798C13.3437 18.4817 13.5491 18.463 13.7657 18.3817C13.7925 18.3719 13.8193 18.3621 13.847 18.3519C13.955 18.3105 14.0489 18.2709 14.1455 18.2064C14.1744 18.2064 14.2034 18.2064 14.2332 18.2064C14.2392 18.2305 14.2453 18.2546 14.2515 18.2795C14.4215 18.9168 14.7245 19.4397 15.1991 19.901C15.2557 19.9594 15.2557 19.9594 15.2557 20.0179C15.0918 20.1046 14.9279 20.1914 14.7591 20.2808C14.7109 20.2422 14.6626 20.2037 14.613 20.1639C14.4304 20.1379 14.286 20.188 14.1142 20.2495C13.7989 20.3456 13.4642 20.3492 13.1375 20.3484C13.0996 20.3488 13.0617 20.3493 13.0226 20.3498C12.7629 20.3499 12.527 20.3153 12.2756 20.2516C12.2416 20.2434 12.2076 20.2352 12.1725 20.2268C11.5612 20.0763 11.0452 19.7301 10.5811 19.3167C10.5616 19.2993 10.5421 19.2819 10.522 19.264C9.92406 18.6984 9.48993 17.7884 9.46162 16.9687C9.45883 16.8511 9.45803 16.7336 9.45807 16.6159C9.45805 16.5912 9.45803 16.5665 9.45801 16.5411C9.45887 16.1642 9.47973 15.8152 9.61694 15.4601C9.62491 15.4391 9.63289 15.4182 9.6411 15.3966C9.69503 15.2585 9.7559 15.1255 9.82145 14.9926C9.83592 14.9632 9.85038 14.9338 9.86528 14.9036C10.03 14.5867 10.2489 14.3161 10.4934 14.0577C10.5267 14.0216 10.5267 14.0216 10.5607 13.9847C11.7061 12.7831 13.5937 12.5889 15.022 13.3857Z" fill="#E9F5FE"/>
<path d="M6.92147 8.04286C6.94656 8.0497 6.97164 8.05655 6.99749 8.0636C7.0818 8.08668 7.16597 8.11019 7.25016 8.13371C7.31049 8.15034 7.37082 8.16694 7.43116 8.18352C7.56642 8.22077 7.70161 8.25823 7.83677 8.29582C8.02496 8.34816 8.21323 8.40021 8.40153 8.45215C8.63713 8.51714 8.8727 8.58228 9.10824 8.64748C9.17796 8.66677 9.24768 8.68605 9.3174 8.70533C9.42902 8.73621 9.5406 8.76717 9.65217 8.79819C9.69328 8.80961 9.7344 8.82101 9.77552 8.83237C9.99319 8.89256 10.2102 8.95472 10.4263 9.02042C10.4556 9.02909 10.4556 9.02909 10.4854 9.03794C10.6891 9.10087 10.8077 9.19215 10.9132 9.37541C10.992 9.55443 11.0131 9.73752 10.9607 9.92688C10.8849 10.1198 10.7573 10.2678 10.5717 10.3615C10.2969 10.4615 10.0404 10.3883 9.76895 10.3094C9.73434 10.2997 9.69974 10.29 9.66408 10.28C9.55445 10.249 9.44497 10.2176 9.33549 10.1862C9.26084 10.165 9.18615 10.1439 9.11146 10.1228C8.92916 10.0713 8.74699 10.0193 8.5649 9.96705C8.56567 10.0008 8.56643 10.0346 8.56722 10.0693C8.56987 10.1948 8.57155 10.3203 8.57293 10.4458C8.57366 10.5001 8.57466 10.5544 8.57592 10.6087C8.5777 10.6868 8.57853 10.7648 8.57917 10.843C8.57992 10.8671 8.58068 10.8913 8.58145 10.9162C8.58152 11.0427 8.57651 11.0915 8.49645 11.1949C8.41882 11.2526 8.41882 11.2526 8.33117 11.2708C8.20934 11.2455 8.17256 11.2057 8.09744 11.1065C8.07747 11.0078 8.08041 10.9114 8.08317 10.811C8.08338 10.7827 8.08359 10.7544 8.0838 10.7252C8.08461 10.635 8.08645 10.5448 8.08831 10.4546C8.08904 10.3933 8.08971 10.3321 8.09031 10.2708C8.09191 10.1208 8.09443 9.97091 8.09744 9.82097C8.06906 9.81456 8.04069 9.80816 8.01145 9.80156C7.68501 9.72688 7.36195 9.64176 7.03937 9.55191C6.95542 9.52859 6.87137 9.50564 6.78731 9.48269C6.73308 9.46765 6.67885 9.45259 6.62462 9.4375C6.59991 9.4308 6.57519 9.4241 6.54973 9.4172C6.3557 9.36251 6.14234 9.29919 6.0121 9.1362C5.99862 9.11997 5.98514 9.10374 5.97125 9.08701C5.84763 8.89765 5.85739 8.6959 5.87698 8.477C5.92499 8.29445 6.04266 8.16976 6.19836 8.06797C6.43958 7.93987 6.66819 7.97115 6.92147 8.04286Z" fill="#010100"/>
<path d="M14.0572 15.4894C14.2138 15.6208 14.3964 15.7883 14.4663 15.9861C14.4549 16.1009 14.4118 16.1997 14.3677 16.3056C14.2649 16.5723 14.207 16.8249 14.1923 17.1097C14.1894 17.1603 14.1894 17.1603 14.1866 17.2121C14.1832 17.28 14.1807 17.3479 14.1792 17.4159C14.168 17.6484 14.168 17.6484 14.1026 17.7395C13.7914 18.0163 13.3772 18.0888 12.9751 18.066C12.6006 18.0296 12.2775 17.8028 12.0396 17.5236C11.9542 17.4081 11.8921 17.2869 11.8368 17.1547C11.8265 17.132 11.8162 17.1093 11.8056 17.0859C11.6894 16.7567 11.7179 16.3737 11.8465 16.0549C12.0451 15.6553 12.3409 15.4159 12.7505 15.253C13.1994 15.1032 13.6751 15.2275 14.0572 15.4894Z" fill="#C996E5"/>
<path d="M8.33126 11.79C8.45501 11.8158 8.48982 11.8521 8.56499 11.9544C8.587 12.0695 8.58456 12.1835 8.58335 12.3004C8.58366 12.3536 8.58366 12.3536 8.58397 12.4078C8.5844 12.5062 8.58417 12.6045 8.58366 12.7028C8.58327 12.8089 8.58372 12.9149 8.58406 13.021C8.5846 13.2288 8.58435 13.4365 8.58383 13.6443C8.58342 13.8131 8.5833 13.982 8.5834 14.1508C8.58342 14.1748 8.58343 14.1989 8.58345 14.2236C8.58348 14.2724 8.58351 14.3212 8.58354 14.37C8.58379 14.8016 8.5833 15.2332 8.58243 15.6647C8.58159 16.0836 8.58138 16.5025 8.58183 16.9214C8.58232 17.3774 8.58244 17.8334 8.58193 18.2894C8.58188 18.338 8.58182 18.3867 8.58177 18.4353C8.58174 18.4592 8.58172 18.4831 8.58169 18.5078C8.58152 18.6764 8.58162 18.8451 8.58181 19.0137C8.58204 19.2192 8.58184 19.4247 8.58111 19.6302C8.58074 19.7351 8.58056 19.84 8.58089 19.9449C8.58124 20.0585 8.58068 20.1721 8.58003 20.2857C8.58039 20.3356 8.58039 20.3356 8.58076 20.3864C8.57839 20.6092 8.57839 20.6092 8.50927 20.7252C8.4436 20.7817 8.41684 20.7977 8.33126 20.7961C8.31198 20.7964 8.29269 20.7968 8.27283 20.7972C8.17555 20.7649 8.15017 20.72 8.09753 20.6317C8.07974 20.5165 8.08165 20.4021 8.08249 20.2857C8.08229 20.2503 8.08208 20.2148 8.08187 20.1783C8.08143 20.0799 8.08151 19.9816 8.08182 19.8833C8.08202 19.7772 8.08156 19.6711 8.08118 19.5651C8.08055 19.3573 8.08055 19.1496 8.08079 18.9418C8.08097 18.773 8.08094 18.6041 8.08075 18.4353C8.08072 18.4113 8.0807 18.3872 8.08067 18.3625C8.08062 18.3137 8.08056 18.2649 8.08051 18.2161C8.08002 17.7584 8.08028 17.3008 8.08077 16.8431C8.0812 16.4242 8.08077 16.0054 8.07993 15.5866C8.07907 15.1566 8.07875 14.7266 8.07903 14.2967C8.07906 14.2481 8.07909 14.1994 8.07912 14.1508C8.07913 14.1269 8.07914 14.103 8.07916 14.0783C8.07922 13.9097 8.07893 13.741 8.07851 13.5724C8.078 13.3669 8.078 13.1614 8.07867 12.9559C8.07899 12.851 8.07908 12.7461 8.07854 12.6412C8.07796 12.5276 8.07851 12.414 8.07917 12.3004C8.07883 12.2672 8.07848 12.2339 8.07812 12.1997C8.08078 11.9772 8.08078 11.9772 8.16624 11.8609C8.24361 11.8083 8.24361 11.8083 8.33126 11.79Z" fill="black"/>
<path d="M18.2061 12.3047C18.8338 12.5139 19.2255 12.9235 19.5208 13.5026C19.5593 13.5892 19.5871 13.6732 19.6085 13.7655C19.6144 13.7908 19.6203 13.816 19.6264 13.842C19.6808 14.1153 19.6989 14.4223 19.6525 14.6984C19.5874 15.092 19.6158 15.444 19.8495 15.7723C19.867 15.7964 19.8845 15.8204 19.9026 15.8451C20.0927 16.1225 20.2306 16.4184 20.3097 16.7456C20.3227 16.7981 20.3227 16.7981 20.336 16.8516C20.4358 17.3072 20.4442 17.7867 20.3097 18.2357C20.3038 18.2551 20.298 18.2745 20.2921 18.2945C20.1556 18.7399 19.9516 19.1143 19.6377 19.4628C19.6071 19.4969 19.6071 19.4969 19.5759 19.5318C19.3023 19.8215 18.8724 20.1435 18.469 20.2224C18.469 20.2031 18.469 20.1838 18.469 20.164C18.5141 20.1335 18.5607 20.1053 18.6078 20.0781C19.3132 19.6414 19.7375 18.9178 19.9314 18.1279C20.1237 17.2823 19.9135 16.4454 19.4624 15.723C19.4167 15.6529 19.3706 15.5835 19.3219 15.5154C19.2275 15.3653 19.2203 15.2382 19.2232 15.0657C19.2232 15.0439 19.2232 15.022 19.2232 14.9996C19.2239 14.9129 19.2256 14.832 19.2431 14.7469C19.3599 14.1468 19.1853 13.5433 18.8763 13.0316C18.7079 12.7818 18.4884 12.5938 18.2645 12.3923C18.2548 13.3179 18.2452 14.2435 18.2353 15.1971C18.2256 15.1971 18.216 15.1971 18.2061 15.1971C18.2061 14.2426 18.2061 13.2881 18.2061 12.3047Z" fill="#F79501"/>
<path d="M16.9595 6.3072C16.9857 6.30701 17.0118 6.30683 17.0387 6.30664C17.0811 6.30682 17.0811 6.30682 17.1244 6.307C17.1534 6.30694 17.1823 6.30689 17.2122 6.30683C17.2735 6.30679 17.3348 6.3069 17.3961 6.30714C17.4901 6.30745 17.5842 6.30714 17.6783 6.30677C17.7377 6.30681 17.7972 6.30688 17.8566 6.307C17.8849 6.30688 17.9132 6.30676 17.9423 6.30664C17.9684 6.30682 17.9946 6.30701 18.0215 6.3072C18.0445 6.30725 18.0676 6.30729 18.0913 6.30734C18.1479 6.31476 18.1479 6.31476 18.2063 6.37319C18.2153 6.4279 18.2153 6.4279 18.2176 6.49532C18.219 6.53327 18.219 6.53327 18.2204 6.57198C18.2231 6.68949 18.2254 6.80699 18.2268 6.92452C18.2277 6.98593 18.2293 7.04732 18.2316 7.10869C18.2481 7.56133 18.1835 7.84746 17.9142 8.21384C17.9045 8.23312 17.8949 8.25241 17.8849 8.27227C17.7603 8.28858 17.636 8.29829 17.5106 8.30697C17.4757 8.31162 17.4407 8.31627 17.4048 8.32106C17.2829 8.32737 17.2087 8.3206 17.0961 8.27227C16.8673 8.06298 16.7626 7.76152 16.7433 7.45914C16.7399 7.31045 16.7449 7.16268 16.751 7.01413C16.7521 6.95241 16.7531 6.89069 16.7539 6.82896C16.7561 6.7174 16.7584 6.60588 16.763 6.49439C16.7638 6.47232 16.7647 6.45025 16.7655 6.42751C16.7855 6.30954 16.8568 6.30741 16.9595 6.3072Z" fill="#FCA412"/>
<path d="M17.9469 15.5089C18.1467 15.6695 18.3025 15.8464 18.3343 16.1061C18.3474 16.3665 18.2971 16.5596 18.1478 16.7743C18.0615 16.8682 17.9646 16.9353 17.8593 17.0062C17.7748 17.0883 17.7746 17.1562 17.768 17.271C17.6741 17.2987 17.5882 17.305 17.4904 17.3057C17.463 17.3061 17.4356 17.3065 17.4074 17.307C17.3264 17.2999 17.2793 17.2882 17.2129 17.2418C17.2063 17.2111 17.1996 17.1803 17.1928 17.1487C17.1616 17.0128 17.068 16.9639 16.9594 16.8861C16.816 16.7735 16.7137 16.6263 16.6578 16.4529C16.6267 16.1572 16.6598 15.8967 16.8404 15.655C17.1653 15.3375 17.5534 15.2964 17.9469 15.5089Z" fill="#FDE3C0"/>
<path d="M6.69467 8.44829C6.80429 8.47292 6.91074 8.50593 7.01788 8.5396C7.08058 8.55862 7.14332 8.57757 7.20607 8.59643C7.25359 8.61074 7.25359 8.61074 7.30207 8.62533C7.44449 8.66705 7.58804 8.70391 7.73186 8.74046C7.99034 8.80663 8.24653 8.87892 8.50243 8.95439C8.71384 9.01669 8.92565 9.07735 9.13791 9.13671C9.16808 9.14516 9.19824 9.1536 9.22932 9.1623C9.37838 9.20388 9.52757 9.24484 9.67705 9.28485C10.4361 9.48806 10.4361 9.48806 10.522 9.61696C10.5361 9.72469 10.5287 9.77942 10.4782 9.87626C10.3935 9.94826 10.3488 9.9483 10.2404 9.94523C10.1092 9.93212 9.98417 9.89665 9.85737 9.86165C9.82779 9.85372 9.79822 9.84579 9.76775 9.83762C9.55864 9.78095 9.35127 9.71923 9.14421 9.65558C8.93844 9.59303 8.73088 9.53875 8.52253 9.48548C8.21264 9.40622 7.90482 9.32186 7.5977 9.23252C7.39201 9.17298 7.18595 9.11471 6.97999 9.05609C6.91504 9.03755 6.85012 9.01888 6.78524 9.00006C6.72654 8.98329 6.66764 8.96719 6.60855 8.95187C6.58254 8.94489 6.55654 8.9379 6.52976 8.93071C6.50717 8.92494 6.48457 8.91916 6.4613 8.91321C6.38591 8.87902 6.35723 8.84 6.31485 8.76968C6.29483 8.65202 6.30464 8.60906 6.37329 8.51038C6.48372 8.43215 6.5649 8.43361 6.69467 8.44829Z" fill="#F9CA82"/>
<path d="M10.9316 11.7783C11.2787 11.7783 11.6258 11.7783 11.9834 11.7783C11.9834 12.0676 11.9834 12.3568 11.9834 12.6548C11.8822 12.691 11.8822 12.691 11.7789 12.7279C11.5253 12.8209 11.2877 12.9392 11.0485 13.0639C11.0099 13.0831 10.9714 13.1024 10.9316 13.1223C10.9316 12.6788 10.9316 12.2353 10.9316 11.7783Z" fill="#86C4F7"/>
<path d="M14.1162 11.7783C14.4729 11.7783 14.8297 11.7783 15.1972 11.7783C15.1972 12.1736 15.1972 12.5689 15.1972 12.9762C15.0919 12.9411 14.9958 12.9085 14.8957 12.864C14.8728 12.8541 14.8499 12.8441 14.8263 12.8338C14.7796 12.8134 14.733 12.7927 14.6864 12.772C14.4946 12.689 14.3259 12.6488 14.1162 12.5964C14.1162 12.3264 14.1162 12.0565 14.1162 11.7783Z" fill="#88C7FB"/>
<path d="M16.6555 18.4831C16.6752 18.4829 16.6949 18.4826 16.7153 18.4824C16.7802 18.4817 16.8451 18.4819 16.91 18.4822C16.9553 18.482 17.0006 18.4819 17.0459 18.4816C17.1407 18.4813 17.2355 18.4815 17.3303 18.4819C17.4516 18.4824 17.5729 18.4817 17.6942 18.4807C17.7877 18.48 17.8812 18.4801 17.9747 18.4803C18.0194 18.4803 18.0642 18.4801 18.1089 18.4797C18.1715 18.4792 18.234 18.4796 18.2966 18.4803C18.3322 18.4803 18.3678 18.4804 18.4044 18.4804C18.5254 18.504 18.5691 18.5494 18.6447 18.6448C18.6611 18.7343 18.6611 18.7343 18.6447 18.8201C18.5788 18.9093 18.5442 18.9345 18.4334 18.9516C18.396 18.9516 18.3587 18.9516 18.3202 18.9516C18.2892 18.9519 18.2892 18.9519 18.2575 18.9521C18.1893 18.9525 18.1212 18.952 18.053 18.9515C18.0055 18.9515 17.9581 18.9515 17.9106 18.9516C17.8113 18.9516 17.712 18.9513 17.6126 18.9506C17.4852 18.9498 17.3578 18.9499 17.2304 18.9502C17.1325 18.9504 17.0346 18.9502 16.9367 18.9499C16.8897 18.9497 16.8427 18.9497 16.7957 18.9498C16.7301 18.9499 16.6645 18.9494 16.5989 18.9488C16.5429 18.9486 16.5429 18.9486 16.4858 18.9483C16.395 18.937 16.395 18.937 16.3394 18.8996C16.2942 18.8286 16.2939 18.7576 16.29 18.6751C16.3401 18.5034 16.4999 18.4839 16.6555 18.4831Z" fill="#080500"/>
<path d="M12.4219 11.7783C12.8365 11.7783 13.251 11.7783 13.6782 11.7783C13.6782 12.0194 13.6782 12.2604 13.6782 12.5087C13.5862 12.5082 13.5862 12.5082 13.4924 12.5077C13.4318 12.5075 13.3711 12.5073 13.3105 12.5071C13.269 12.507 13.2274 12.5068 13.1859 12.5065C13.1255 12.5062 13.0652 12.506 13.0048 12.5059C12.9687 12.5057 12.9326 12.5056 12.8954 12.5054C12.7373 12.5097 12.5795 12.5248 12.4219 12.538C12.4219 12.2873 12.4219 12.0366 12.4219 11.7783Z" fill="#87C5FA"/>
<path d="M14.7294 13.2686C14.8313 13.301 14.9273 13.3347 15.0216 13.3854C15.0084 13.5224 14.9854 13.6473 14.9477 13.7797C14.8994 13.9701 14.8936 14.1485 14.8974 14.3441C14.8976 14.3756 14.8977 14.4072 14.8979 14.4397C14.8994 14.5975 14.9084 14.7486 14.9339 14.9047C14.9607 15.1801 14.9272 15.3544 14.7586 15.5767C14.6567 15.5427 14.6388 15.5142 14.5778 15.4288C14.5546 15.3966 14.5546 15.3966 14.5309 15.3638C14.5193 15.3473 14.5077 15.3308 14.4957 15.3137C14.5101 15.2993 14.5101 15.2993 14.5249 15.2845C14.5278 15.2136 14.5289 15.1436 14.5285 15.0727C14.5287 15.0531 14.5288 15.0336 14.5289 15.0134C14.5287 14.9325 14.5268 14.8557 14.5105 14.7762C14.415 14.2855 14.4761 13.7027 14.7294 13.2686Z" fill="#C5EBFA"/>
<path d="M16.833 6.31562C17.0192 6.31414 17.2053 6.31312 17.3915 6.31241C17.4549 6.31212 17.5183 6.31172 17.5816 6.31121C17.6726 6.31051 17.7635 6.31017 17.8544 6.30991C17.8829 6.30961 17.9114 6.30931 17.9407 6.309C17.9802 6.30899 17.9802 6.30899 18.0204 6.30899C18.0437 6.30886 18.0669 6.30873 18.0908 6.30859C18.1478 6.31562 18.1478 6.31562 18.2062 6.37405C18.2152 6.42876 18.2152 6.42876 18.2175 6.49618C18.2189 6.53413 18.2189 6.53413 18.2203 6.57284C18.2229 6.69035 18.2253 6.80785 18.2266 6.92538C18.2276 6.98679 18.2292 7.04818 18.2314 7.10955C18.248 7.56219 18.1834 7.84832 17.914 8.2147C17.9044 8.23398 17.8947 8.25327 17.8848 8.27313C17.6245 8.27313 17.3642 8.27313 17.096 8.27313C17.096 8.26349 17.096 8.25385 17.096 8.24392C17.1388 8.24889 17.1388 8.24889 17.1826 8.25396C17.3059 8.25881 17.4181 8.25811 17.5342 8.2147C17.6 8.14812 17.6358 8.10342 17.6794 8.02388C17.6906 8.00352 17.7018 7.98315 17.7134 7.96217C17.8576 7.66532 17.825 7.33814 17.8136 7.01682C17.8123 6.95139 17.8111 6.88596 17.81 6.82052C17.8074 6.66184 17.8022 6.50353 17.7972 6.34484C17.479 6.34484 17.1608 6.34484 16.833 6.34484C16.833 6.3352 16.833 6.32555 16.833 6.31562Z" fill="#F49301"/>
<path d="M14.2623 15.7227C14.3486 15.8029 14.417 15.8781 14.4668 15.9856C14.4529 16.1004 14.4125 16.1989 14.3682 16.3052C14.2654 16.5718 14.2075 16.8244 14.1928 17.1092C14.191 17.143 14.1891 17.1768 14.1871 17.2116C14.1838 17.2795 14.1813 17.3474 14.1797 17.4154C14.1685 17.6492 14.1685 17.6492 14.1006 17.7405C14.0083 17.8215 13.9132 17.878 13.7949 17.9139C13.608 17.3534 13.8278 16.6202 14.0578 16.1025C14.1016 16.0196 14.1471 15.9412 14.1991 15.8633C14.2381 15.8073 14.2381 15.8073 14.2623 15.7227Z" fill="#BB7EDE"/>
<path d="M17.3591 15.3722C17.6144 15.3582 17.8289 15.414 18.0311 15.5767C18.2289 15.7715 18.3256 15.9316 18.3397 16.2103C18.3341 16.4508 18.2601 16.6526 18.0959 16.8312C18.0211 16.8968 17.942 16.9509 17.8595 17.0065C17.7749 17.0885 17.7748 17.1564 17.7682 17.2712C17.6729 17.2997 17.5862 17.3044 17.487 17.3041C17.4448 17.3042 17.4448 17.3042 17.4018 17.3043C17.3299 17.3005 17.3299 17.3005 17.2715 17.2712C17.2715 17.252 17.2715 17.2327 17.2715 17.2128C17.3202 17.1799 17.3704 17.1493 17.4212 17.1197C17.6614 16.9705 17.8131 16.7882 17.9023 16.5178C17.954 16.2387 17.941 15.9292 17.7848 15.6873C17.7423 15.6287 17.6988 15.5729 17.6513 15.5183C17.6373 15.502 17.6232 15.4858 17.6087 15.4691C17.5355 15.4066 17.4522 15.4102 17.3591 15.4014C17.3591 15.3917 17.3591 15.3821 17.3591 15.3722Z" fill="#F9CEA0"/>
<path d="M14.2333 18.2061C14.2394 18.2302 14.2455 18.2543 14.2517 18.2791C14.4217 18.9164 14.7247 19.4393 15.1993 19.9006C15.2559 19.9591 15.2559 19.9591 15.2559 20.0175C15.178 20.0392 15.178 20.0392 15.0806 20.0467C15.0024 20.0013 15.0024 20.0013 14.9254 19.9335C14.8975 19.909 14.8697 19.8845 14.8409 19.8592C14.814 19.8343 14.787 19.8094 14.7592 19.7838C14.7365 19.7634 14.7137 19.743 14.6903 19.722C14.3423 19.3943 14.0667 18.9509 13.9119 18.4982C13.9119 18.4597 13.9119 18.4211 13.9119 18.3814C13.8927 18.3717 13.8734 18.3621 13.8535 18.3521C13.9003 18.3276 13.9472 18.3033 13.9941 18.2791C14.0333 18.2588 14.0333 18.2588 14.0732 18.238C14.1457 18.2061 14.1457 18.2061 14.2333 18.2061Z" fill="#C4EAF9"/>
<path d="M17.1836 8.71094C17.3764 8.71094 17.5693 8.71094 17.7679 8.71094C17.7679 8.9809 17.7679 9.25086 17.7679 9.529C17.5751 9.529 17.3823 9.529 17.1836 9.529C17.1836 9.25904 17.1836 8.98908 17.1836 8.71094Z" fill="#667580"/>
<path d="M14.1162 11.7783C14.4729 11.7783 14.8297 11.7783 15.1972 11.7783C15.1972 12.1736 15.1972 12.5689 15.1972 12.9762C15.0859 12.9391 14.9851 12.9037 14.8795 12.8557C14.8567 12.8454 14.8338 12.835 14.8103 12.8244C14.7934 12.8167 14.7764 12.8089 14.759 12.8009C14.7879 12.7864 14.7879 12.7864 14.8174 12.7717C14.8174 12.4535 14.8174 12.1353 14.8174 11.8075C14.586 11.8075 14.3546 11.8075 14.1162 11.8075C14.1162 11.7979 14.1162 11.7883 14.1162 11.7783Z" fill="#5EB1F6"/>
<path d="M17.1836 13.2979C17.3861 13.2979 17.5885 13.2979 17.7971 13.2979C17.7971 13.5292 17.7971 13.7606 17.7971 13.9991C17.5947 13.9991 17.3922 13.9991 17.1836 13.9991C17.1836 13.7677 17.1836 13.5363 17.1836 13.2979Z" fill="#5D6B75"/>
<path d="M17.1836 12.1875C17.3764 12.1875 17.5693 12.1875 17.7679 12.1875C17.7679 12.4093 17.7679 12.631 17.7679 12.8595C17.5751 12.8595 17.3823 12.8595 17.1836 12.8595C17.1836 12.6377 17.1836 12.416 17.1836 12.1875Z" fill="#63727C"/>
<path d="M17.1836 11.0771C17.3764 11.0771 17.5693 11.0771 17.7679 11.0771C17.7679 11.2989 17.7679 11.5207 17.7679 11.7491C17.5751 11.7491 17.3823 11.7491 17.1836 11.7491C17.1836 11.5274 17.1836 11.3056 17.1836 11.0771Z" fill="#64737E"/>
<path d="M17.1836 9.9668C17.3764 9.9668 17.5693 9.9668 17.7679 9.9668C17.7679 10.1886 17.7679 10.4103 17.7679 10.6388C17.5751 10.6388 17.3823 10.6388 17.1836 10.6388C17.1836 10.417 17.1836 10.1953 17.1836 9.9668Z" fill="#667580"/>
<path d="M17.1836 14.4375C17.3764 14.4375 17.5693 14.4375 17.7679 14.4375C17.7679 14.611 17.7679 14.7846 17.7679 14.9634C17.5751 14.9634 17.3823 14.9634 17.1836 14.9634C17.1836 14.7899 17.1836 14.6163 17.1836 14.4375Z" fill="#64737E"/>
<path d="M10.084 9.41211C10.1352 9.42377 10.1863 9.43607 10.2374 9.44863C10.2658 9.45541 10.2943 9.46219 10.3237 9.46917C10.416 9.50375 10.4607 9.54023 10.5222 9.61663C10.5408 9.72589 10.5297 9.7776 10.4784 9.87592C10.3996 9.94287 10.383 9.94754 10.2848 9.94896C10.1716 9.93801 10.1716 9.93801 10.1132 9.90879C10.1137 9.88071 10.1137 9.88071 10.1142 9.85207C10.1158 9.70175 10.1097 9.56023 10.084 9.41211Z" fill="#FABE63"/>
<path d="M17.1836 8.71094C17.2511 8.71094 17.3186 8.71094 17.3881 8.71094C17.3881 8.9809 17.3881 9.25086 17.3881 9.529C17.3206 9.529 17.2531 9.529 17.1836 9.529C17.1836 9.25904 17.1836 8.98908 17.1836 8.71094Z" fill="#758691"/>
<path d="M17.1836 9.9668C17.2511 9.9668 17.3186 9.9668 17.3881 9.9668C17.3881 10.1886 17.3881 10.4103 17.3881 10.6388C17.3206 10.6388 17.2531 10.6388 17.1836 10.6388C17.1836 10.417 17.1836 10.1953 17.1836 9.9668Z" fill="#748591"/>
<path d="M17.2129 13.3271C17.2707 13.3271 17.3286 13.3271 17.3882 13.3271C17.3882 13.5393 17.3882 13.7514 17.3882 13.9699C17.3303 13.9699 17.2725 13.9699 17.2129 13.9699C17.2129 13.7578 17.2129 13.5457 17.2129 13.3271Z" fill="#7A8C98"/>
<path d="M17.2129 12.2168C17.2707 12.2168 17.3286 12.2168 17.3882 12.2168C17.3882 12.4289 17.3882 12.641 17.3882 12.8596C17.3303 12.8596 17.2725 12.8596 17.2129 12.8596C17.2129 12.6474 17.2129 12.4353 17.2129 12.2168Z" fill="#7A8C98"/>
<path d="M17.2129 11.1064C17.2707 11.1064 17.3286 11.1064 17.3882 11.1064C17.3882 11.3186 17.3882 11.5307 17.3882 11.7492C17.3303 11.7492 17.2725 11.7492 17.2129 11.7492C17.2129 11.5371 17.2129 11.325 17.2129 11.1064Z" fill="#7A8C98"/>
<path d="M17.1836 14.4375C17.2511 14.4375 17.3186 14.4375 17.3881 14.4375C17.3889 14.5197 17.3895 14.6018 17.3899 14.684C17.3902 14.7075 17.3904 14.7309 17.3907 14.7551C17.3909 14.8148 17.3896 14.8745 17.3881 14.9342C17.3785 14.9438 17.3688 14.9535 17.3589 14.9634C17.301 14.9634 17.2432 14.9634 17.1836 14.9634C17.1836 14.7899 17.1836 14.6163 17.1836 14.4375Z" fill="#748591"/>
</g>
<defs>
<clipPath id="clip0_520_881">
<rect width="14.9589" height="14.9589" fill="white" transform="translate(5.87695 5.87695)"/>
</clipPath>
</defs>
</svg>
