<svg width="27" height="38" viewBox="0 0 27 38" fill="none" xmlns="http://www.w3.org/2000/svg">
<path d="M0.0643003 13.9126C-0.577227 7.80258 3.73972 3.53342 5.97838 2.16259C12.3135 -1.75407 18.3077 0.530648 20.5129 2.16259C25.5649 5.06091 26.8948 9.96326 26.9282 12.0521C27.4895 16.4388 24.6227 21.9091 23.1191 24.0959C20.553 29.4225 15.501 35.5847 13.2957 38C8.00312 31.9683 4.40789 25.5646 3.27185 23.1167C0.545361 18.5734 -0.0025538 15.0876 0.0643003 13.9126Z" fill="#78BEFF"/>
<g clipPath="url(#clip0_520_883)">
<path d="M16.7796 3.44951C16.8166 3.46054 16.8535 3.47157 16.8916 3.48294C18.3858 3.93853 19.7718 4.76799 20.9124 5.83037C20.974 5.88394 21.0357 5.93729 21.0977 5.9904C21.4063 6.2607 21.6764 6.55054 21.933 6.87077C21.9993 6.95337 22.0667 7.03521 22.1351 7.11608C22.616 7.68592 22.9932 8.31576 23.3382 8.9749C23.3642 9.02418 23.3642 9.02418 23.3906 9.07446C23.8718 10 24.1775 11.007 24.3714 12.0296C24.3787 12.0648 24.386 12.1 24.3935 12.1362C24.6404 13.3542 24.6224 14.8123 24.3714 16.0276C24.3625 16.0718 24.3535 16.116 24.3443 16.1615C23.9571 18.0233 23.14 19.8173 21.8461 21.2268C21.583 21.515 21.4309 21.744 21.3177 22.1216C21.1216 22.7623 20.6905 23.2749 20.2386 23.7542C20.2093 23.7869 20.1801 23.8195 20.15 23.8532C18.7887 25.3115 16.4249 25.9215 14.4973 26.0058C14.1715 26.0151 13.8458 26.0154 13.5199 26.0143C13.4454 26.0142 13.4454 26.0142 13.3694 26.0141C12.6557 26.0121 11.9575 25.9976 11.2542 25.8655C11.2129 25.8583 11.1716 25.8511 11.129 25.8436C9.3003 25.5175 7.33831 24.7259 6.22295 23.159C6.17726 23.0883 6.1323 23.0172 6.08818 22.9456C6.06542 22.9114 6.04267 22.8772 6.01922 22.8419C5.79218 22.4883 5.64481 22.0976 5.50718 21.702C5.4507 21.5793 5.38197 21.504 5.28801 21.407C4.23647 20.2677 3.47847 18.8848 2.98857 17.4202C2.97678 17.385 2.96499 17.3499 2.95284 17.3136C2.83345 16.9501 2.74297 16.582 2.6657 16.2073C2.65524 16.1571 2.65524 16.1571 2.64458 16.1058C2.51075 15.4182 2.47609 14.7359 2.47758 14.037C2.47761 13.9938 2.47763 13.9506 2.47766 13.9061C2.48049 12.8113 2.62541 11.7765 2.94365 10.7269C2.95468 10.6899 2.96571 10.6529 2.97708 10.6148C3.43267 9.12061 4.26213 7.73466 5.32451 6.59404C5.37807 6.53247 5.43143 6.47071 5.48454 6.40874C5.75484 6.1001 6.04468 5.83 6.36491 5.57347C6.44751 5.50712 6.52935 5.43978 6.61022 5.37133C7.18005 4.8904 7.8099 4.51325 8.46904 4.16826C8.5019 4.15095 8.53475 4.13363 8.5686 4.11579C9.49418 3.63463 10.5012 3.32893 11.5237 3.13506C11.5589 3.12777 11.5941 3.12048 11.6304 3.11297C13.3009 2.77425 15.1628 2.95931 16.7796 3.44951Z" fill="#D7EBFD"/>
<path d="M10.3558 6.8629C10.4435 6.92063 10.4435 6.92063 10.4905 6.99767C10.4954 7.09295 10.4954 7.09295 10.4793 7.19701C10.4744 7.23123 10.4696 7.26545 10.4646 7.30071C10.4456 7.40196 10.4456 7.40196 10.4225 7.48746C10.2999 8.01631 10.368 8.80024 10.6365 9.26903C10.8444 9.5553 11.1243 9.78531 11.4817 9.8426C11.5772 9.85076 11.6722 9.85556 11.768 9.85863C11.8009 9.86016 11.8337 9.8617 11.8676 9.86328C11.9476 9.86694 12.0277 9.86988 12.1077 9.87267C12.1077 10.095 12.1077 10.3174 12.1077 10.5465C12.0206 10.5521 11.9335 10.5576 11.8438 10.5633C11.6377 10.5674 11.6377 10.5674 11.4788 10.6813C11.4624 10.9181 11.4978 11.1355 11.5434 11.3663C11.6437 11.8778 11.6669 12.3837 11.6668 12.9039C11.6669 13.0022 11.6677 13.1006 11.6686 13.1989C11.6703 13.6394 11.6349 14.0639 11.5686 14.4996C11.5629 14.5495 11.5571 14.5994 11.5511 14.6508C11.5421 14.6899 11.533 14.7289 11.5237 14.7692C11.4343 14.8149 11.3444 14.8597 11.2542 14.9039C11.1287 15.0492 11.0791 15.1865 11.052 15.3756C11.0787 15.5624 11.1272 15.7075 11.2542 15.8473C11.3368 15.893 11.3368 15.893 11.4283 15.9287C11.6391 16.0201 11.7062 16.1569 11.8129 16.3539C11.9716 16.6303 12.1918 16.8676 12.3997 17.1079C12.512 17.2399 12.512 17.2399 12.512 17.2848C12.4821 17.2852 12.4522 17.2856 12.4214 17.286C12.285 17.2885 12.1486 17.2922 12.0123 17.296C11.9417 17.297 11.9417 17.297 11.8698 17.2979C11.5933 17.3067 11.4184 17.3219 11.2093 17.5094C11.0782 17.706 11.0457 17.8591 11.0745 18.0934C11.1715 18.3592 11.2549 18.4082 11.5237 18.5426C11.8647 18.5574 12.2056 18.5722 12.5569 18.5875C12.5718 19.388 12.5866 20.1885 12.6019 21.0133C12.676 21.0281 12.7501 21.0429 12.8265 21.0582C12.9019 20.9828 12.8789 20.8891 12.8806 20.7855C12.8815 20.737 12.8824 20.6884 12.8833 20.6384C12.8844 20.5591 12.8844 20.5591 12.8856 20.4783C12.8865 20.4245 12.8875 20.3707 12.8884 20.3153C12.8914 20.1427 12.894 19.9702 12.8967 19.7976C12.8986 19.6809 12.9006 19.5643 12.9025 19.4476C12.9074 19.1609 12.9119 18.8742 12.9163 18.5875C13.0497 18.5875 13.1831 18.5875 13.3206 18.5875C13.3354 19.388 13.3503 20.1885 13.3655 21.0133C13.4396 21.0281 13.5138 21.0429 13.5901 21.0582C13.6671 20.9812 13.6454 20.8783 13.6493 20.7731C13.6512 20.7246 13.653 20.6761 13.655 20.6261C13.6567 20.5751 13.6585 20.524 13.6603 20.4714C13.6623 20.4202 13.6642 20.369 13.6662 20.3162C13.671 20.1892 13.6756 20.0622 13.68 19.9352C13.8134 19.9352 13.9468 19.9352 14.0843 19.9352C14.0991 20.2909 14.1139 20.6467 14.1292 21.0133C14.2033 21.0281 14.2774 21.0429 14.3538 21.0582C14.4308 20.9812 14.4091 20.8783 14.4129 20.7731C14.4148 20.7246 14.4167 20.6761 14.4186 20.6261C14.4204 20.5751 14.4222 20.524 14.424 20.4714C14.4259 20.4202 14.4279 20.369 14.4299 20.3162C14.4347 20.1892 14.4392 20.0622 14.4436 19.9352C14.6411 19.9312 14.8386 19.9289 15.0361 19.9267C15.12 19.9251 15.12 19.9251 15.2057 19.9233C15.2597 19.9229 15.3137 19.9225 15.3693 19.922C15.4189 19.9213 15.4686 19.9206 15.5197 19.9199C15.6763 19.9374 15.7573 19.9735 15.8811 20.0699C15.9594 20.1981 15.9824 20.2946 15.9833 20.4438C15.9838 20.4817 15.9842 20.5196 15.9846 20.5587C15.9846 20.6197 15.9846 20.6197 15.9845 20.6818C15.9847 20.7239 15.9849 20.766 15.9851 20.8094C15.9853 20.8983 15.9854 20.9872 15.9852 21.0761C15.985 21.212 15.9861 21.3478 15.9872 21.4837C15.9873 21.5701 15.9874 21.6566 15.9873 21.7431C15.9877 21.7836 15.9881 21.8242 15.9886 21.8659C15.987 22.0807 15.9823 22.2355 15.8362 22.4059C15.6861 22.5024 15.5673 22.5053 15.391 22.5015C15.3375 22.5006 15.2839 22.4998 15.2288 22.4989C15.171 22.4977 15.1133 22.4966 15.0538 22.4954C14.9313 22.4943 14.8089 22.4938 14.6864 22.4933C14.4935 22.4922 14.3006 22.4904 14.1077 22.4857C13.9513 22.482 13.7951 22.481 13.6387 22.4817C13.5509 22.4813 13.4631 22.4782 13.3753 22.475C13.1298 22.4776 12.9778 22.482 12.7952 22.6559C12.6879 22.7956 12.6879 22.7956 12.6004 22.9397C12.3381 23.355 11.9333 23.6513 11.5375 23.9306C11.4931 23.9624 11.4931 23.9624 11.4477 23.9948C11.4212 24.0133 11.3948 24.0318 11.3675 24.0509C11.2571 24.151 11.2144 24.2526 11.1958 24.3989C11.1947 24.6342 11.1962 24.8173 11.344 25.0113C11.5778 25.1657 11.8095 25.2254 12.0853 25.2472C12.124 25.2505 12.1627 25.2539 12.2025 25.2573C14.6279 25.4336 17.4434 25.2074 19.3684 23.5628C19.4807 23.4635 19.5905 23.3622 19.6995 23.2594C19.7282 23.2331 19.7568 23.2068 19.7864 23.1797C20.4904 22.5118 20.8951 21.5076 20.9215 20.5458C20.9406 19.0702 20.4626 17.9395 19.5289 16.8196C18.8165 15.9552 18.4686 14.9465 18.4698 13.8258C18.4697 13.768 18.4697 13.7103 18.4696 13.6507C18.4731 13.3317 18.4952 13.0391 18.5765 12.7308C18.675 12.3528 18.6854 11.9795 18.686 11.5909C18.6864 11.5335 18.6868 11.476 18.6873 11.4168C18.6837 11.0061 18.6246 10.6306 18.5315 10.232C18.4229 10.2243 18.4229 10.2243 18.3069 10.232C18.2133 10.3249 18.2133 10.3249 18.1357 10.451C18.1046 10.4963 18.0736 10.5415 18.0416 10.5881C18.0106 10.6337 17.9795 10.6792 17.9476 10.7262C17.5036 11.333 16.9883 11.8066 16.2405 11.984C16.1167 11.9978 15.9945 12.0011 15.8699 12.0008C15.8367 12.0008 15.8034 12.0008 15.7692 12.0008C15.4563 11.9944 15.1223 11.9439 14.8929 11.7145C14.8827 11.63 14.8827 11.63 14.8841 11.5288C14.8845 11.4745 14.8845 11.4745 14.885 11.4191C14.8861 11.3624 14.8861 11.3624 14.8873 11.3046C14.8877 11.2664 14.8881 11.2282 14.8885 11.1889C14.8895 11.0946 14.8912 11.0002 14.8929 10.9059C14.9489 10.9391 14.9489 10.9391 15.006 10.9731C15.0549 11.0019 15.1037 11.0306 15.154 11.0603C15.2024 11.089 15.2509 11.1176 15.3008 11.1471C15.6145 11.3222 16.0146 11.3159 16.3584 11.2231C16.9602 10.9862 17.4459 10.3482 17.7229 9.78282C17.8222 9.53508 17.9071 9.28332 17.9867 9.02863C18.0035 8.97529 18.0035 8.97529 18.0206 8.92088C18.0295 8.8906 18.0384 8.86031 18.0476 8.82911C18.0895 8.73323 18.1361 8.68075 18.2171 8.61485C18.3462 8.58958 18.3462 8.58958 18.4866 8.61485C18.6682 8.80366 18.7824 9.00128 18.8909 9.23814C18.9063 9.2713 18.9216 9.30446 18.9374 9.33863C19.2575 10.0484 19.4027 10.7477 19.4019 11.5264C19.402 11.5722 19.402 11.5722 19.4021 11.6189C19.402 12.0081 19.3776 12.3801 19.2952 12.7617C19.085 13.7393 19.1303 14.7756 19.6097 15.6676C19.6328 15.7118 19.6559 15.7561 19.6797 15.8017C19.8053 16.0303 19.9363 16.2295 20.115 16.42C20.7789 17.1279 21.24 18.016 21.4964 18.9469C21.5117 19.0018 21.527 19.0568 21.5427 19.1134C21.8257 20.3438 21.6537 21.7111 21.0107 22.7989C19.9373 24.4597 18.1848 25.3421 16.2957 25.7575C15.3697 25.9482 14.464 26.0169 13.5199 26.0137C13.4454 26.0135 13.4454 26.0135 13.3694 26.0134C12.6557 26.0114 11.9575 25.9969 11.2542 25.8649C11.2129 25.8576 11.1716 25.8504 11.129 25.8429C9.3003 25.5168 7.33831 24.7253 6.22295 23.1583C6.17726 23.0877 6.1323 23.0166 6.08818 22.9449C6.06542 22.9107 6.04266 22.8765 6.01922 22.8412C5.34957 21.7982 5.1922 20.405 5.44524 19.2052C5.68427 18.1866 6.16309 17.2546 6.85747 16.4734C7.61173 15.623 7.93088 14.5476 7.88505 13.4215C7.84935 13.0908 7.77182 12.769 7.69115 12.4467C7.52963 11.6668 7.56747 10.824 7.75029 10.0524C7.76228 9.99914 7.77426 9.94592 7.78661 9.89109C8.07912 8.73536 8.8639 7.71755 9.78581 6.98363C9.84809 6.93386 9.84809 6.93386 9.91163 6.88308C10.0815 6.79777 10.1746 6.81299 10.3558 6.8629Z" fill="#6354B1"/>
<path d="M14.8929 3.08984C14.9854 3.09638 15.078 3.10308 15.1705 3.10985C15.2478 3.11542 15.2478 3.11542 15.3266 3.1211C15.5327 3.13984 15.7305 3.17746 15.9317 3.22461C15.9732 3.23434 16.0148 3.24407 16.0576 3.25409C17.8737 3.69745 19.5426 4.5542 20.9124 5.83008C20.974 5.88364 21.0358 5.937 21.0977 5.99011C21.4064 6.26041 21.6765 6.55025 21.933 6.87048C21.9994 6.95308 22.0667 7.03492 22.1351 7.11579C22.6161 7.68562 22.9932 8.31547 23.3382 8.97461C23.3642 9.02389 23.3642 9.02389 23.3907 9.07417C23.8718 9.99975 24.1775 11.0067 24.3714 12.0293C24.3823 12.0821 24.3823 12.0821 24.3935 12.1359C24.6405 13.3539 24.6224 14.812 24.3714 16.0273C24.3625 16.0715 24.3536 16.1157 24.3444 16.1612C23.9181 18.2106 22.9579 20.0584 21.5413 21.5977C21.5265 21.5977 21.5117 21.5977 21.4964 21.5977C21.5028 21.5275 21.5094 21.4573 21.5161 21.3871C21.5215 21.3285 21.5215 21.3285 21.5271 21.2686C21.5413 21.1484 21.5413 21.1484 21.564 21.0452C21.8046 19.732 21.405 18.2837 20.6684 17.1896C20.4511 16.8827 20.2154 16.5911 19.9747 16.3025C19.2419 15.4137 19.078 14.363 19.1605 13.2422C19.1837 13.0805 19.2158 12.9217 19.2503 12.7621C19.4355 11.8933 19.439 10.901 19.1605 10.0527C19.1506 10.0219 19.1407 9.99115 19.1306 9.95942C18.9005 9.25711 18.9005 9.25711 18.4866 8.66016C18.3064 8.63874 18.3064 8.63874 18.146 8.70929C18.0549 8.8318 18.0367 8.95233 18.0037 9.10095C17.8745 9.63082 17.6316 10.0891 17.2738 10.502C17.2461 10.5361 17.2184 10.5702 17.1899 10.6053C16.8732 10.9836 16.5209 11.2755 16.0173 11.3232C15.6028 11.3426 15.3198 11.2532 15.0007 10.9893C14.8648 10.8279 14.8651 10.7482 14.8659 10.5393C14.8657 10.5074 14.8655 10.4754 14.8653 10.4425C14.8649 10.3358 14.8662 10.2292 14.8674 10.1224C14.8675 10.0458 14.8674 9.96923 14.8673 9.89264C14.8672 9.68483 14.8686 9.47706 14.8701 9.26927C14.8715 9.05205 14.8717 8.83484 14.8719 8.61763C14.8726 8.20637 14.8745 7.79512 14.8767 7.38387C14.8792 6.91564 14.8805 6.44742 14.8816 5.97919C14.8839 5.01607 14.8879 4.05296 14.8929 3.08984Z" fill="#D7EBFD"/>
<path d="M18.3071 10.1875C18.3812 10.2023 18.4553 10.2171 18.5317 10.2324C18.5535 10.2941 18.5749 10.3559 18.5963 10.4177C18.6082 10.4521 18.6202 10.4865 18.6326 10.522C18.7334 10.8636 18.7239 11.213 18.7254 11.566C18.7256 11.5974 18.7258 11.6288 18.7259 11.6611C18.7269 12.027 18.7157 12.3753 18.6215 12.7312C18.3164 13.9045 18.55 15.1634 19.1241 16.2126C19.2604 16.4373 19.4225 16.6328 19.5947 16.8301C20.4254 17.7902 20.9787 18.953 20.9715 20.2388C20.9712 20.3095 20.9712 20.3095 20.9708 20.3816C20.9528 21.5859 20.4477 22.5799 19.6019 23.4186C17.8331 25.1149 15.1797 25.3717 12.8519 25.3311C12.5958 25.3256 12.3406 25.3145 12.0854 25.2925C12.0504 25.2897 12.0153 25.287 11.9792 25.2841C11.7247 25.2565 11.4567 25.1818 11.2803 24.9856C11.1544 24.8054 11.1434 24.6213 11.1406 24.4065C11.1976 24.1357 11.3791 23.9823 11.5969 23.8297C12.2519 23.3647 12.2519 23.3647 12.7276 22.7328C12.7805 22.6307 12.8266 22.5689 12.9164 22.4961C13.1208 22.4489 13.3226 22.4554 13.5315 22.4587C13.5922 22.4585 13.6529 22.4582 13.7135 22.4577C13.8729 22.4568 14.0323 22.4576 14.1917 22.4589C14.4469 22.4607 14.7021 22.4597 14.9573 22.4588C15.0463 22.4587 15.1353 22.4594 15.2243 22.4601C15.2784 22.4603 15.3325 22.4604 15.3883 22.4605C15.4359 22.4609 15.4835 22.4612 15.5326 22.4616C15.6609 22.4508 15.7315 22.4354 15.8364 22.3613C15.9199 22.2359 15.9375 22.1358 15.9378 21.9868C15.9383 21.9297 15.9383 21.9297 15.9387 21.8714C15.9385 21.8306 15.9383 21.7899 15.9381 21.7479C15.9382 21.7057 15.9383 21.6635 15.9384 21.62C15.9385 21.5309 15.9383 21.4418 15.9379 21.3527C15.9374 21.2163 15.9379 21.08 15.9385 20.9437C15.9384 20.857 15.9383 20.7704 15.9381 20.6838C15.9383 20.643 15.9385 20.6023 15.9387 20.5603C15.9384 20.5222 15.9381 20.4841 15.9378 20.4449C15.9378 20.4115 15.9377 20.3781 15.9376 20.3437C15.9241 20.2323 15.8986 20.1639 15.8364 20.0703C15.4192 19.8618 14.9098 19.9528 14.4438 19.9355C14.4438 17.8305 14.4438 15.7255 14.4438 13.5566C14.5994 13.5344 14.5994 13.5344 14.7582 13.5117C14.8707 13.343 14.8638 13.2058 14.8667 13.01C14.8676 12.9743 14.8684 12.9386 14.8693 12.9018C14.872 12.7879 14.8741 12.6739 14.8762 12.5599C14.8779 12.4826 14.8796 12.4053 14.8814 12.328C14.8857 12.1386 14.8895 11.9492 14.893 11.7598C14.9735 11.7812 15.054 11.8027 15.1345 11.8243C15.1793 11.8363 15.2241 11.8483 15.2703 11.8607C15.3871 11.8945 15.3871 11.8945 15.477 11.9395C16.2734 11.9938 16.8196 11.8081 17.4283 11.2881C17.6661 11.068 17.848 10.8235 18.0289 10.5558C18.1166 10.4279 18.2085 10.3072 18.3071 10.1875Z" fill="#FAF9FA"/>
<path d="M12.7326 2.99457C12.7709 2.99443 12.8091 2.99429 12.8485 2.99414C12.8884 2.99423 12.9283 2.99432 12.9694 2.99442C13.0117 2.99437 13.054 2.99433 13.0977 2.99429C13.1866 2.99426 13.2755 2.99434 13.3645 2.99453C13.4996 2.99477 13.6347 2.99453 13.7699 2.99424C13.8568 2.99427 13.9437 2.99433 14.0306 2.99442C14.0705 2.99433 14.1104 2.99423 14.1515 2.99414C14.2088 2.99435 14.2088 2.99435 14.2674 2.99457C14.3169 2.99462 14.3169 2.99462 14.3673 2.99468C14.5434 3.00298 14.7177 3.02444 14.8926 3.0453C14.8995 4.15365 14.9062 5.26199 14.9125 6.37034C14.9154 6.88515 14.9184 7.39996 14.9217 7.91476C14.9246 8.36431 14.9272 8.81386 14.9296 9.26341C14.9309 9.50068 14.9323 9.73794 14.9339 9.97521C14.9398 10.8433 14.9446 11.7115 14.926 12.5795C14.9246 12.65 14.9233 12.7205 14.9223 12.791C14.9208 12.8869 14.9184 12.9827 14.9158 13.0786C14.9139 13.1591 14.9139 13.1591 14.9121 13.2412C14.8904 13.3927 14.8759 13.4588 14.7578 13.557C14.5922 13.5683 14.5922 13.5683 14.4434 13.557C14.4434 13.5954 14.4435 13.6337 14.4436 13.6732C14.4456 14.6052 14.4471 15.5372 14.448 16.4692C14.4485 16.9199 14.4491 17.3706 14.4501 17.8213C14.451 18.214 14.4516 18.6067 14.4518 18.9994C14.4519 19.2075 14.4522 19.4155 14.4529 19.6235C14.4535 19.8192 14.4537 20.0148 14.4535 20.2105C14.4535 20.2824 14.4537 20.3544 14.4541 20.4264C14.4545 20.5243 14.4544 20.6222 14.4542 20.7202C14.4542 20.7751 14.4543 20.83 14.4544 20.8865C14.4434 21.0141 14.4434 21.0141 14.3535 21.1039C14.1489 21.0789 14.1489 21.0789 14.084 21.0141C14.0801 20.9341 14.0792 20.8539 14.0796 20.7738C14.0798 20.7011 14.0798 20.7011 14.08 20.6269C14.0806 20.5503 14.0806 20.5503 14.0812 20.4722C14.0814 20.421 14.0816 20.3697 14.0818 20.317C14.0823 20.19 14.0831 20.0629 14.084 19.9359C13.9506 19.9359 13.8171 19.9359 13.6797 19.9359C13.6804 19.9842 13.6804 19.9842 13.6811 20.0335C13.683 20.1788 13.6841 20.3241 13.6853 20.4694C13.6861 20.52 13.6868 20.5707 13.6876 20.6229C13.688 20.6954 13.688 20.6954 13.6885 20.7694C13.6892 20.8365 13.6892 20.8365 13.6899 20.9049C13.6797 21.0141 13.6797 21.0141 13.5898 21.1039C13.3852 21.0789 13.3852 21.0789 13.3203 21.0141C13.3161 20.9382 13.315 20.8622 13.3152 20.7863C13.3152 20.7377 13.3152 20.6891 13.3152 20.6391C13.3155 20.5863 13.3157 20.5335 13.3159 20.479C13.316 20.4252 13.3161 20.3715 13.3161 20.3161C13.3164 20.1435 13.3169 19.9709 13.3175 19.7984C13.3177 19.6817 13.3179 19.565 13.3181 19.4484C13.3186 19.1617 13.3194 18.875 13.3203 18.5883C13.1869 18.5883 13.0535 18.5883 12.916 18.5883C12.9163 18.6336 12.9163 18.6336 12.9166 18.6798C12.9186 18.9931 12.92 19.3064 12.921 19.6197C12.9214 19.7368 12.922 19.8538 12.9228 19.9709C12.9239 20.1388 12.9244 20.3067 12.9248 20.4746C12.9253 20.5272 12.9257 20.5798 12.9262 20.634C12.9262 20.7069 12.9262 20.7069 12.9262 20.7812C12.9264 20.8241 12.9266 20.867 12.9268 20.9112C12.916 21.0141 12.916 21.0141 12.8262 21.1039C12.6215 21.0789 12.6215 21.0789 12.5566 21.0141C12.5524 20.9382 12.5514 20.8622 12.5515 20.7863C12.5515 20.7377 12.5515 20.6891 12.5516 20.6391C12.5518 20.5863 12.552 20.5335 12.5523 20.479C12.5523 20.4252 12.5524 20.3715 12.5524 20.3161C12.5527 20.1435 12.5533 19.9709 12.5538 19.7984C12.5541 19.6817 12.5543 19.565 12.5544 19.4484C12.5549 19.1617 12.5557 18.875 12.5566 18.5883C12.527 18.5892 12.4973 18.5902 12.4668 18.5911C12.3311 18.5949 12.1954 18.5972 12.0597 18.5995C12.013 18.601 11.9664 18.6025 11.9183 18.6041C11.6246 18.6078 11.4478 18.5836 11.209 18.4086C11.0789 18.2687 11.0336 18.1242 11.0068 17.9369C11.0428 17.6855 11.1291 17.536 11.3185 17.3682C11.5222 17.2384 11.7554 17.2552 11.9895 17.2518C12.0584 17.2498 12.0584 17.2498 12.1287 17.2478C12.2414 17.2446 12.354 17.2423 12.4668 17.2406C12.4469 17.2181 12.4269 17.1956 12.4064 17.1725C12.2368 16.9801 12.0712 16.786 11.9137 16.5836C11.8944 16.5597 11.8752 16.5357 11.8554 16.511C11.7341 16.3551 11.6747 16.2134 11.6133 16.0277C11.4853 15.9776 11.4853 15.9776 11.3438 15.9379C11.1458 15.7669 11.0419 15.6447 11.0125 15.3848C11.0369 15.1443 11.1224 14.986 11.3016 14.8176C11.3887 14.7699 11.3887 14.7699 11.5234 14.7699C11.5262 14.74 11.5289 14.71 11.5317 14.6792C11.5684 14.2758 11.5684 14.2758 11.5796 14.1736C11.6181 13.8018 11.624 13.4307 11.6245 13.0573C11.6246 13.0241 11.6247 12.9909 11.6248 12.9568C11.6314 11.9625 11.6314 11.9625 11.4336 10.9965C11.4133 10.7127 11.4133 10.7127 11.4843 10.6053C11.6585 10.485 11.906 10.5408 12.1074 10.5473C12.1074 10.3249 12.1074 10.1025 12.1074 9.87343C12.0778 9.8586 12.0481 9.84378 12.0176 9.82851C12.0472 9.82851 12.0769 9.82851 12.1074 9.82851C12.1074 7.59005 12.1074 5.35159 12.1074 3.0453C12.5624 2.99475 12.5624 2.99475 12.7326 2.99457Z" fill="#A79AA6"/>
<path d="M18.3459 8.58984C18.5369 8.62421 18.6053 8.73264 18.7109 8.88464C18.7781 8.99948 18.8352 9.1175 18.8906 9.2384C18.9137 9.28814 18.9137 9.28814 18.9371 9.33889C19.2572 10.0487 19.4024 10.7479 19.4016 11.5266C19.4017 11.5571 19.4017 11.5877 19.4018 11.6191C19.4017 12.0083 19.3773 12.3803 19.2949 12.762C19.0847 13.7396 19.13 14.7758 19.6094 15.6678C19.6325 15.7121 19.6556 15.7563 19.6794 15.8019C19.8051 16.0306 19.936 16.2298 20.1147 16.4203C20.7786 17.1282 21.2397 18.0162 21.4961 18.9471C21.5114 19.0021 21.5267 19.0571 21.5424 19.1137C21.8255 20.3441 21.6534 21.7113 21.0104 22.7992C19.937 24.4599 18.1846 25.3424 16.2954 25.7577C16.0088 25.8168 15.7214 25.8687 15.4316 25.91C15.3758 25.9182 15.3201 25.9263 15.2626 25.9347C14.6589 26.0156 14.0575 26.0101 13.4495 26.0055C13.3449 26.005 13.2404 26.0046 13.1359 26.0043C12.8829 26.0033 12.6299 26.0018 12.377 25.9999C12.5337 25.8954 12.6585 25.8872 12.8402 25.8707C13.756 25.774 14.6245 25.5756 15.4825 25.2434C15.7302 25.1488 15.9811 25.0797 16.2381 25.0141C17.5436 24.6789 18.7079 24.1948 19.6992 23.2596C19.7279 23.2334 19.7565 23.2071 19.7861 23.18C20.4901 22.512 20.8948 21.5079 20.9212 20.5461C20.9403 19.0705 20.4623 17.9398 19.5287 16.8198C18.8162 15.9555 18.4683 14.9468 18.4695 13.826C18.4694 13.7683 18.4694 13.7105 18.4693 13.651C18.4728 13.332 18.495 13.0393 18.5762 12.7311C18.6747 12.3531 18.6851 11.9798 18.6857 11.5912C18.6861 11.5337 18.6865 11.4763 18.687 11.417C18.6834 11.0063 18.6243 10.6308 18.5313 10.2323C18.4226 10.2246 18.4226 10.2246 18.3066 10.2323C18.213 10.3252 18.213 10.3252 18.1354 10.4513C18.1043 10.4965 18.0733 10.5417 18.0413 10.5883C18.0103 10.6339 17.9792 10.6795 17.9473 10.7264C17.5033 11.3333 16.988 11.8069 16.2402 11.9843C16.1164 11.9981 15.9942 12.0014 15.8696 12.0011C15.8364 12.0011 15.8031 12.0011 15.7689 12.0011C15.456 11.9946 15.122 11.9441 14.8926 11.7147C14.8824 11.6303 14.8824 11.6303 14.8838 11.5291C14.8841 11.4929 14.8844 11.4567 14.8847 11.4194C14.8854 11.3816 14.8862 11.3438 14.887 11.3048C14.8874 11.2666 14.8878 11.2285 14.8882 11.1892C14.8893 11.0948 14.8909 11.0005 14.8926 10.9061C14.9299 10.9283 14.9673 10.9505 15.0058 10.9733C15.0546 11.0021 15.1034 11.0309 15.1537 11.0605C15.2022 11.0892 15.2506 11.1179 15.3006 11.1474C15.6142 11.3225 16.0144 11.3162 16.3582 11.2234C16.9599 10.9864 17.4456 10.3485 17.7227 9.78308C17.8219 9.53534 17.9069 9.28358 17.9864 9.02888C17.9976 8.99333 18.0087 8.95777 18.0203 8.92114C18.0292 8.89086 18.0381 8.86057 18.0473 8.82937C18.1138 8.67715 18.1838 8.62157 18.3459 8.58984Z" fill="#55479D"/>
<path d="M18.666 8.83984C19.2443 8.90854 19.7109 9.07963 20.1484 9.46875C20.1788 9.49342 20.2092 9.51809 20.2406 9.5435C20.6472 9.90198 20.9293 10.5071 20.9667 11.0456C20.9724 11.2118 20.974 11.3774 20.9739 11.5436C20.9739 11.5735 20.974 11.6034 20.9741 11.6342C20.974 12.0089 20.9514 12.3654 20.8672 12.7312C20.6201 13.8217 20.7252 14.9764 21.3164 15.9375C21.4765 16.1658 21.6502 16.3815 21.8275 16.5965C22.3015 17.173 22.6799 17.7921 22.9336 18.498C22.9459 18.5319 22.9583 18.5657 22.971 18.6005C23.1868 19.2136 23.1868 19.2136 23.1294 19.4905C23.0607 19.6217 22.9804 19.7294 22.8887 19.8457C22.8495 19.9033 22.8108 19.9612 22.7725 20.0194C22.5441 20.365 22.3015 20.6963 22.0352 21.0137C21.9917 21.066 21.9482 21.1184 21.9048 21.1707C21.8594 21.2251 21.8139 21.2794 21.7684 21.3337C21.7466 21.3599 21.7248 21.386 21.7024 21.4129C21.6496 21.4754 21.5954 21.5366 21.541 21.5977C21.5262 21.5977 21.5114 21.5977 21.4961 21.5977C21.5025 21.5275 21.5091 21.4573 21.5157 21.3871C21.5194 21.348 21.523 21.3089 21.5268 21.2686C21.541 21.1484 21.541 21.1484 21.5637 21.0452C21.8043 19.732 21.4047 18.2837 20.6681 17.1896C20.4508 16.8827 20.2151 16.5911 19.9744 16.3025C19.2416 15.4137 19.0777 14.363 19.1602 13.2422C19.1833 13.0805 19.2155 12.9217 19.25 12.7621C19.4348 11.8949 19.4406 10.8992 19.1602 10.0527C19.1498 10.0215 19.1395 9.99019 19.1288 9.95798C18.9986 9.57524 18.8406 9.20442 18.666 8.83984Z" fill="#C3E1FE"/>
<path d="M12.9158 18.5879C13.0493 18.5879 13.1827 18.5879 13.3201 18.5879C13.335 19.3884 13.3498 20.1889 13.3651 21.0137C13.4392 21.0285 13.5133 21.0433 13.5897 21.0586C13.6667 20.9816 13.6449 20.8787 13.6488 20.7734C13.6516 20.7007 13.6516 20.7007 13.6545 20.6265C13.6563 20.5754 13.658 20.5244 13.6599 20.4718C13.6618 20.4206 13.6637 20.3694 13.6657 20.3166C13.6705 20.1896 13.6751 20.0626 13.6795 19.9355C13.8129 19.9355 13.9463 19.9355 14.0838 19.9355C14.106 20.4692 14.106 20.4692 14.1287 21.0137C14.2028 21.0285 14.277 21.0433 14.3533 21.0586C14.4304 20.9816 14.4086 20.8787 14.4125 20.7734C14.4144 20.7249 14.4162 20.6765 14.4182 20.6265C14.4199 20.5754 14.4217 20.5244 14.4235 20.4718C14.4255 20.4206 14.4274 20.3694 14.4294 20.3166C14.4342 20.1896 14.4388 20.0626 14.4432 19.9355C14.6406 19.9316 14.8381 19.9292 15.0356 19.9271C15.0916 19.926 15.1475 19.9249 15.2052 19.9237C15.2592 19.9233 15.3132 19.9228 15.3688 19.9224C15.4185 19.9217 15.4681 19.921 15.5192 19.9202C15.6758 19.9378 15.7568 19.9739 15.8807 20.0703C15.9589 20.1984 15.9819 20.295 15.9829 20.4442C15.9833 20.4821 15.9837 20.52 15.9842 20.5591C15.9841 20.5997 15.9841 20.6403 15.984 20.6822C15.9842 20.7243 15.9844 20.7664 15.9846 20.8097C15.9849 20.8987 15.9849 20.9876 15.9847 21.0765C15.9846 21.2124 15.9856 21.3482 15.9868 21.484C15.9869 21.5705 15.9869 21.657 15.9868 21.7435C15.9873 21.784 15.9877 21.8245 15.9881 21.8663C15.9865 22.0811 15.9818 22.2359 15.8358 22.4062C15.7107 22.4811 15.6176 22.5074 15.4726 22.5084C15.4364 22.5089 15.4003 22.5093 15.363 22.5098C15.3238 22.5098 15.2845 22.5098 15.2441 22.5099C15.2024 22.5102 15.1608 22.5106 15.1178 22.511C14.9801 22.5121 14.8424 22.5125 14.7046 22.5128C14.6089 22.5132 14.5131 22.5136 14.4173 22.514C14.2165 22.5147 14.0156 22.5151 13.8148 22.5152C13.5576 22.5155 13.3004 22.5171 13.0432 22.5192C12.8454 22.5205 12.6475 22.5209 12.4497 22.5209C12.3549 22.5211 12.26 22.5217 12.1652 22.5226C12.0325 22.5238 11.8999 22.5236 11.7672 22.523C11.7281 22.5237 11.689 22.5244 11.6488 22.525C11.4601 22.5228 11.3359 22.5097 11.1851 22.3905C11.0496 22.2453 11.0237 22.1474 11.0219 21.9559C11.0214 21.9198 11.021 21.8836 11.0206 21.8464C11.0204 21.8075 11.0202 21.7686 11.02 21.7286C11.0197 21.6884 11.0195 21.6482 11.0192 21.6069C11.0188 21.5219 11.0185 21.437 11.0183 21.352C11.0179 21.2222 11.0165 21.0925 11.0151 20.9628C11.0148 20.8802 11.0145 20.7976 11.0144 20.715C11.0138 20.6763 11.0133 20.6376 11.0127 20.5977C11.0137 20.3337 11.0524 20.1818 11.2445 19.9897C11.3774 19.917 11.4754 19.9202 11.6264 19.9224C11.6806 19.9228 11.7347 19.9233 11.7905 19.9237C11.8469 19.9248 11.9032 19.926 11.9612 19.9271C12.0183 19.9277 12.0753 19.9283 12.1341 19.929C12.2749 19.9306 12.4157 19.933 12.5565 19.9355C12.5787 20.4692 12.5787 20.4692 12.6014 21.0137C12.6755 21.0285 12.7496 21.0433 12.826 21.0586C12.9014 20.9832 12.8785 20.8895 12.8801 20.7859C12.881 20.7373 12.8819 20.6888 12.8829 20.6387C12.8836 20.5859 12.8844 20.5331 12.8851 20.4786C12.8861 20.4249 12.887 20.3711 12.888 20.3157C12.8909 20.1431 12.8935 19.9705 12.8962 19.798C12.8981 19.6813 12.9001 19.5646 12.9021 19.448C12.9069 19.1613 12.9115 18.8746 12.9158 18.5879Z" fill="#54469C"/>
<path d="M14.0838 3.00034C14.358 2.99765 14.6203 3.01071 14.8924 3.04526C14.8994 4.15361 14.9061 5.26195 14.9123 6.3703C14.9153 6.88511 14.9183 7.39992 14.9216 7.91472C14.9244 8.36427 14.9271 8.81382 14.9295 9.26337C14.9308 9.50064 14.9322 9.7379 14.9338 9.97517C14.9396 10.8433 14.9444 11.7115 14.9259 12.5795C14.9244 12.65 14.9232 12.7205 14.9221 12.7909C14.9206 12.8868 14.9183 12.9827 14.9156 13.0786C14.9144 13.1322 14.9132 13.1859 14.9119 13.2412C14.8902 13.3927 14.8758 13.4588 14.7577 13.557C14.592 13.5682 14.592 13.5682 14.4432 13.557C14.4433 13.5953 14.4434 13.6337 14.4435 13.6732C14.4455 14.6052 14.4469 15.5372 14.4479 16.4692C14.4483 16.9199 14.449 17.3706 14.45 17.8212C14.4509 18.214 14.4515 18.6067 14.4517 18.9994C14.4518 19.2074 14.4521 19.4155 14.4527 19.6235C14.4533 19.8191 14.4535 20.0148 14.4534 20.2104C14.4534 20.2824 14.4536 20.3543 14.4539 20.4263C14.4544 20.5243 14.4543 20.6222 14.454 20.7201C14.4541 20.775 14.4542 20.8299 14.4543 20.8865C14.4432 21.014 14.4432 21.014 14.3534 21.1039C14.1487 21.0789 14.1487 21.0789 14.0838 21.014C14.0794 20.9185 14.0783 20.8228 14.0783 20.7272C14.0783 20.6967 14.0782 20.6662 14.0782 20.6348C14.078 20.5315 14.0782 20.4281 14.0784 20.3247C14.0784 20.2504 14.0784 20.1761 14.0783 20.1017C14.0782 19.8964 14.0784 19.6912 14.0786 19.4859C14.0788 19.2649 14.0788 19.0439 14.0787 18.8229C14.0787 18.4397 14.0788 18.0564 14.0791 17.6732C14.0795 17.1191 14.0796 16.565 14.0796 16.011C14.0797 15.1121 14.08 14.2132 14.0805 13.3144C14.0809 12.441 14.0812 11.5675 14.0814 10.6941C14.0814 10.6403 14.0814 10.5866 14.0814 10.5311C14.0815 10.2613 14.0815 9.99141 14.0816 9.72155C14.0821 7.48114 14.0828 5.24074 14.0838 3.00034Z" fill="#A79AA6"/>
<path d="M11.8463 10.5388C11.8951 10.54 11.9439 10.5412 11.9942 10.5424C12.0503 10.5448 12.0503 10.5448 12.1074 10.5472C12.108 10.6009 12.108 10.6009 12.1085 10.6557C12.112 10.9928 12.1159 11.33 12.1203 11.6671C12.1226 11.8404 12.1247 12.0137 12.1264 12.1871C12.128 12.3543 12.1301 12.5214 12.1325 12.6886C12.1333 12.7525 12.134 12.8164 12.1345 12.8802C12.1353 12.9695 12.1366 13.0588 12.138 13.1481C12.1386 13.1989 12.1392 13.2498 12.1398 13.3022C12.1403 13.429 12.1403 13.429 12.2422 13.512C12.3978 13.5343 12.3978 13.5343 12.5566 13.5569C12.5566 15.2173 12.5566 16.8776 12.5566 18.5882C11.5234 18.5882 11.5234 18.5882 11.209 18.4085C11.0789 18.2686 11.0336 18.1241 11.0068 17.9368C11.0428 17.6854 11.1291 17.536 11.3185 17.3681C11.5222 17.2384 11.7554 17.2551 11.9895 17.2518C12.0354 17.2504 12.0813 17.2491 12.1287 17.2477C12.2414 17.2446 12.354 17.2422 12.4668 17.2405C12.4469 17.218 12.4269 17.1956 12.4064 17.1724C12.2368 16.98 12.0712 16.7859 11.9137 16.5836C11.8944 16.5596 11.8752 16.5356 11.8554 16.5109C11.7341 16.3551 11.6747 16.2133 11.6133 16.0276C11.4853 15.9775 11.4853 15.9775 11.3438 15.9378C11.1458 15.7668 11.0419 15.6447 11.0125 15.3847C11.0369 15.1442 11.1224 14.9859 11.3016 14.8176C11.3887 14.7698 11.3887 14.7698 11.5234 14.7698C11.5262 14.7399 11.5289 14.71 11.5317 14.6791C11.5684 14.2757 11.5684 14.2757 11.5796 14.1735C11.6181 13.8017 11.624 13.4306 11.6245 13.0572C11.6246 13.024 11.6247 12.9909 11.6248 12.9567C11.6314 11.9625 11.6314 11.9625 11.4336 10.9964C11.4133 10.7126 11.4133 10.7126 11.4843 10.6053C11.6059 10.5212 11.7003 10.534 11.8463 10.5388Z" fill="#F1EEF2"/>
<path d="M13.6797 3C13.8131 3 13.9465 3 14.084 3C14.084 8.58873 14.084 14.1775 14.084 19.9355C13.9506 19.9355 13.8171 19.9355 13.6797 19.9355C13.6797 14.3468 13.6797 8.75809 13.6797 3Z" fill="#F6A96B"/>
<path d="M13.3202 3C13.4388 3 13.5574 3 13.6795 3C13.6816 5.29331 13.6832 7.58661 13.6841 9.87992C13.6842 10.1504 13.6844 10.4209 13.6845 10.6913C13.6845 10.7452 13.6845 10.799 13.6846 10.8545C13.6849 11.7275 13.6857 12.6005 13.6865 13.4735C13.6873 14.3687 13.6878 15.2638 13.688 16.1589C13.6881 16.7117 13.6885 17.2645 13.6892 17.8173C13.6897 18.1958 13.6899 18.5744 13.6897 18.953C13.6897 19.1717 13.6898 19.3904 13.6903 19.6091C13.6907 19.8091 13.6907 20.009 13.6904 20.209C13.6904 20.2816 13.6905 20.3542 13.6908 20.4268C13.6911 20.525 13.6909 20.6231 13.6906 20.7213C13.6906 20.776 13.6907 20.8307 13.6907 20.887C13.6795 21.0137 13.6795 21.0137 13.5897 21.1035C13.3851 21.0786 13.3851 21.0786 13.3202 21.0137C13.3158 20.9181 13.3146 20.8225 13.3146 20.7268C13.3146 20.6964 13.3145 20.6659 13.3145 20.6345C13.3144 20.5311 13.3146 20.4278 13.3148 20.3244C13.3148 20.2501 13.3147 20.1757 13.3147 20.1014C13.3146 19.8961 13.3147 19.6908 13.315 19.4855C13.3152 19.2645 13.3151 19.0435 13.3151 18.8225C13.315 18.4393 13.3152 18.0561 13.3154 17.6729C13.3158 17.1188 13.3159 16.5647 13.316 16.0106C13.3161 15.1117 13.3164 14.2129 13.3168 13.314C13.3172 12.4406 13.3175 11.5672 13.3177 10.6938C13.3177 10.64 13.3177 10.5862 13.3177 10.5308C13.3178 10.2609 13.3179 9.99107 13.3179 9.72121C13.3184 7.4808 13.3192 5.2404 13.3202 3Z" fill="#A69AA6"/>
<path d="M12.916 3C13.0494 3 13.1829 3 13.3203 3C13.3203 8.144 13.3203 13.288 13.3203 18.5879C13.1869 18.5879 13.0535 18.5879 12.916 18.5879C12.916 13.4439 12.916 8.29988 12.916 3Z" fill="#F6A96B"/>
<path d="M12.5566 3C12.5566 6.48369 12.5566 9.96738 12.5566 13.5566C12.2422 13.5566 12.2422 13.5566 12.1561 13.5106C12.0803 13.3725 12.0899 13.2342 12.0921 13.0808C12.0921 13.0462 12.0921 13.0115 12.0921 12.9759C12.0922 12.8614 12.0932 12.7469 12.0943 12.6324C12.0945 12.553 12.0947 12.4737 12.0948 12.3943C12.0954 12.1854 12.0967 11.9764 12.0982 11.7675C12.0995 11.5543 12.1002 11.3412 12.1008 11.128C12.1023 10.7097 12.1046 10.2914 12.1074 9.87305C12.0778 9.85822 12.0481 9.8434 12.0176 9.82812C12.0472 9.82812 12.0769 9.82812 12.1074 9.82812C12.1074 7.58967 12.1074 5.35121 12.1074 3.04492C12.5117 3 12.5117 3 12.5566 3Z" fill="#F5AA6F"/>
<path d="M14.4434 3C14.5916 3.01482 14.7398 3.02965 14.8926 3.04492C14.8995 4.15326 14.9062 5.26161 14.9125 6.36996C14.9154 6.88477 14.9184 7.39957 14.9217 7.91438C14.9246 8.36393 14.9272 8.81348 14.9296 9.26303C14.9309 9.50029 14.9323 9.73756 14.9339 9.97483C14.9398 10.8429 14.9446 11.7111 14.926 12.5791C14.9246 12.6496 14.9233 12.7201 14.9223 12.7906C14.9208 12.8865 14.9184 12.9823 14.9158 13.0782C14.9145 13.1319 14.9133 13.1856 14.9121 13.2409C14.8904 13.3923 14.8759 13.4584 14.7578 13.5566C14.654 13.5566 14.5503 13.5566 14.4434 13.5566C14.4434 10.0729 14.4434 6.58926 14.4434 3Z" fill="#F5AA6F"/>
<path d="M14.4434 19.9352C14.6408 19.9313 14.8383 19.9289 15.0358 19.9268C15.0917 19.9257 15.1477 19.9245 15.2054 19.9234C15.2594 19.9229 15.3134 19.9225 15.369 19.9221C15.4186 19.9214 15.4683 19.9206 15.5194 19.9199C15.676 19.9374 15.757 19.9736 15.8809 20.07C15.9591 20.1981 15.9821 20.2947 15.983 20.4438C15.9837 20.5007 15.9837 20.5007 15.9843 20.5588C15.9843 20.5994 15.9843 20.64 15.9842 20.6819C15.9844 20.724 15.9846 20.766 15.9848 20.8094C15.9851 20.8983 15.9851 20.9873 15.9849 21.0762C15.9847 21.212 15.9858 21.3479 15.9869 21.4837C15.987 21.5702 15.9871 21.6567 15.987 21.7432C15.9874 21.7837 15.9878 21.8242 15.9883 21.866C15.9867 22.0807 15.982 22.2355 15.8359 22.4059C15.6906 22.5105 15.5587 22.5063 15.3832 22.5045C15.305 22.5041 15.305 22.5041 15.2253 22.5037C15.1711 22.5029 15.1169 22.5022 15.061 22.5014C14.9787 22.5008 14.9787 22.5008 14.8947 22.5002C14.7592 22.4991 14.6237 22.4976 14.4883 22.4958C14.5244 22.4615 14.5605 22.4272 14.5978 22.3919C14.7382 22.2446 14.7631 22.1472 14.7658 21.9515C14.7663 21.9144 14.7669 21.8774 14.7675 21.8392C14.7678 21.7994 14.7682 21.7595 14.7685 21.7184C14.7689 21.6773 14.7692 21.6361 14.7696 21.5937C14.7702 21.5066 14.7707 21.4195 14.7711 21.3325C14.7718 21.1995 14.7738 21.0665 14.7758 20.9335C14.7763 20.8489 14.7766 20.7642 14.7769 20.6796C14.7777 20.6399 14.7785 20.6002 14.7793 20.5593C14.7787 20.3751 14.774 20.2759 14.6752 20.1161C14.5769 20.0189 14.5769 20.0189 14.4434 19.9352Z" fill="#463B84"/>
<path d="M11.8463 10.5388C11.8951 10.54 11.9439 10.5412 11.9942 10.5424C12.0502 10.5448 12.0502 10.5448 12.1074 10.5472C12.1079 10.6009 12.1079 10.6009 12.1085 10.6557C12.112 10.9928 12.1159 11.33 12.1203 11.6671C12.1225 11.8404 12.1246 12.0137 12.1263 12.1871C12.128 12.3543 12.1301 12.5214 12.1324 12.6886C12.1333 12.7525 12.1339 12.8164 12.1345 12.8802C12.1352 12.9695 12.1366 13.0588 12.138 13.1481C12.1386 13.1989 12.1392 13.2498 12.1398 13.3022C12.1403 13.429 12.1403 13.429 12.2421 13.512C12.3978 13.5343 12.3978 13.5343 12.5566 13.5569C12.5566 13.9424 12.5566 14.3278 12.5566 14.7249C12.2305 14.7249 11.9043 14.7249 11.5683 14.7249C11.5683 14.2283 11.5683 14.2283 11.5901 14.0458C11.6226 13.7168 11.624 13.3875 11.6245 13.0572C11.6245 13.024 11.6246 12.9909 11.6247 12.9567C11.6313 11.9625 11.6313 11.9625 11.4335 10.9964C11.4133 10.7126 11.4133 10.7126 11.4842 10.6053C11.6059 10.5212 11.7003 10.534 11.8463 10.5388Z" fill="#FDFDFE"/>
<path d="M13.6797 13.5566C13.8131 13.5566 13.9465 13.5566 14.084 13.5566C14.084 15.6617 14.084 17.7667 14.084 19.9355C13.9506 19.9355 13.8171 19.9355 13.6797 19.9355C13.6797 17.8305 13.6797 15.7255 13.6797 13.5566Z" fill="#F3F0F3"/>
<path d="M12.916 13.5566C13.0494 13.5566 13.1829 13.5566 13.3203 13.5566C13.3203 15.217 13.3203 16.8773 13.3203 18.5879C13.1869 18.5879 13.0535 18.5879 12.916 18.5879C12.916 16.9276 12.916 15.2673 12.916 13.5566Z" fill="#F3F0F3"/>
<path d="M17.0934 10.7266C17.1231 10.9934 17.1527 11.2602 17.1833 11.5352C16.6553 11.9224 16.1251 12.0644 15.4762 11.9844C15.2573 11.9315 15.0539 11.8765 14.8923 11.7148C14.8821 11.6304 14.8821 11.6304 14.8835 11.5292C14.8838 11.493 14.8841 11.4568 14.8844 11.4195C14.8855 11.3628 14.8855 11.3628 14.8866 11.3049C14.887 11.2668 14.8875 11.2286 14.8879 11.1893C14.8889 11.0949 14.8905 11.0006 14.8923 10.9062C14.9483 10.9395 14.9483 10.9395 15.0054 10.9735C15.0543 11.0022 15.1031 11.031 15.1534 11.0607C15.2018 11.0893 15.2503 11.118 15.3002 11.1475C15.6139 11.3226 16.014 11.3163 16.3578 11.2235C16.5888 11.1359 16.7661 10.9707 16.9502 10.8103C17.0485 10.7266 17.0485 10.7266 17.0934 10.7266Z" fill="#6456B2"/>
<path d="M19.0247 21.7185C19.2216 21.819 19.3374 21.9378 19.4294 22.1365C19.4654 22.3647 19.4562 22.5329 19.3508 22.7401C19.2006 22.9111 19.0758 23.0186 18.8431 23.0456C18.5961 23.0537 18.45 23.0306 18.2614 22.8552C18.1122 22.6409 18.0434 22.4448 18.0817 22.1814C18.2376 21.7663 18.5976 21.5694 19.0247 21.7185Z" fill="#E1DDE1"/>
<path d="M19.2943 19.2029C19.4911 19.3034 19.6069 19.4222 19.6989 19.6209C19.7342 19.8442 19.7241 20.0157 19.6287 20.2217C19.4408 20.4241 19.2744 20.5279 18.9998 20.5418C18.7985 20.5308 18.6812 20.4794 18.5309 20.3396C18.3817 20.1253 18.3129 19.9292 18.3513 19.6658C18.5072 19.2506 18.8671 19.0538 19.2943 19.2029Z" fill="#E1DDE1"/>
<path d="M17.5426 20.2351C17.7497 20.3378 17.8722 20.4812 17.9473 20.6996C17.9906 20.9264 17.9532 21.1111 17.8269 21.3041C17.6953 21.4578 17.5516 21.5365 17.3524 21.5701C17.1752 21.5794 17.0632 21.5596 16.9 21.4857C16.7032 21.3027 16.6144 21.1195 16.5771 20.854C16.6142 20.599 16.7102 20.4478 16.9 20.2756C17.1184 20.1727 17.3118 20.1586 17.5426 20.2351Z" fill="#E1DDE1"/>
<path d="M17.8121 17.7195C18.0192 17.8221 18.1418 17.9656 18.2168 18.184C18.2601 18.4108 18.2228 18.5954 18.0964 18.7885C17.9649 18.9422 17.8211 19.0208 17.6219 19.0545C17.4447 19.0638 17.3328 19.044 17.1696 18.9701C16.9728 18.787 16.8839 18.6039 16.8467 18.3384C16.8838 18.0834 16.9797 17.9322 17.1696 17.76C17.3879 17.657 17.5813 17.643 17.8121 17.7195Z" fill="#E1DDE1"/>
<path d="M14.5332 17.2856C14.6848 17.2817 14.8364 17.2793 14.988 17.2772C15.0521 17.2755 15.0521 17.2755 15.1175 17.2738C15.3617 17.2712 15.5362 17.2803 15.7461 17.4204C15.8978 17.5844 15.9632 17.7015 15.9847 17.9257C15.9684 18.1222 15.9264 18.2631 15.791 18.4087C15.5244 18.6055 15.31 18.6111 14.9852 18.5996C14.9417 18.5988 14.8981 18.598 14.8532 18.5971C14.7465 18.595 14.6399 18.5921 14.5332 18.5883C14.5777 18.5587 14.6221 18.529 14.668 18.4985C14.871 18.3533 14.871 18.3533 14.9824 18.1391C15.0028 17.8863 14.9899 17.7286 14.8477 17.5102C14.7614 17.4305 14.7614 17.4305 14.668 17.3755C14.6235 17.3458 14.579 17.3162 14.5332 17.2856Z" fill="#E2DEE2"/>
<path d="M14.5332 14.7251C14.6848 14.7211 14.8364 14.7187 14.988 14.7166C15.0521 14.7149 15.0521 14.7149 15.1175 14.7132C15.3617 14.7107 15.5362 14.7198 15.7461 14.8598C15.8978 15.0239 15.9632 15.141 15.9847 15.3652C15.9684 15.5617 15.9264 15.7026 15.791 15.8481C15.5244 16.0449 15.31 16.0506 14.9852 16.039C14.9417 16.0382 14.8981 16.0374 14.8532 16.0366C14.7465 16.0345 14.6399 16.0315 14.5332 16.0278C14.5777 15.9981 14.6221 15.9685 14.668 15.938C14.871 15.7928 14.871 15.7928 14.9824 15.5786C15.0028 15.3258 14.9899 15.1681 14.8477 14.9497C14.7614 14.87 14.7614 14.87 14.668 14.8149C14.6235 14.7853 14.579 14.7556 14.5332 14.7251Z" fill="#E2DEE2"/>
<path d="M11.6133 16.0273C11.9246 16.0273 12.2359 16.0273 12.5566 16.0273C12.5566 16.4276 12.5566 16.8279 12.5566 17.2402C12.4668 17.2402 12.4668 17.2402 12.405 17.1822C12.2368 16.9861 12.0737 16.7861 11.9137 16.5833C11.8943 16.5591 11.8748 16.5349 11.8548 16.51C11.7265 16.3449 11.6827 16.2355 11.6133 16.0273Z" fill="#FDFCFE"/>
<path d="M18.7615 21.6738C19.0297 21.6955 19.1782 21.7902 19.3595 21.9855C19.4546 22.1909 19.4659 22.3635 19.4297 22.5863C19.3123 22.8169 19.1808 22.9538 18.9355 23.0355C18.8307 23.0373 18.7259 23.0375 18.6211 23.0355C18.666 22.9008 18.666 22.9008 18.7531 22.8165C18.8851 22.6805 18.933 22.5815 18.9387 22.3901C18.9283 22.1833 18.9145 22.0766 18.7811 21.9125C18.7431 21.8828 18.7052 21.8532 18.666 21.8226C18.6364 21.793 18.6067 21.7633 18.5762 21.7328C18.6211 21.6879 18.6211 21.6879 18.7615 21.6738Z" fill="#CCC5CD"/>
<path d="M19.031 19.1582C19.2992 19.1798 19.4477 19.2746 19.629 19.4698C19.7244 19.6758 19.7345 19.8474 19.6992 20.0707C19.6048 20.2746 19.485 20.3871 19.2897 20.4894C19.1557 20.5377 19.0308 20.5313 18.8906 20.5199C18.9355 20.3851 18.9355 20.3851 19.0226 20.3009C19.1546 20.1649 19.2026 20.0658 19.2082 19.8745C19.1978 19.6677 19.184 19.561 19.0507 19.3969C19.0127 19.3672 18.9747 19.3376 18.9355 19.307C18.9059 19.2774 18.8762 19.2477 18.8457 19.2172C18.8906 19.1722 18.8906 19.1722 19.031 19.1582Z" fill="#CCC5CD"/>
<path d="M17.2791 20.1914C17.5125 20.2102 17.6726 20.2748 17.8272 20.4544C17.9529 20.6479 17.9906 20.832 17.9473 21.059C17.8707 21.2818 17.7468 21.4178 17.5377 21.5241C17.4035 21.5701 17.2784 21.5645 17.1387 21.5531C17.1836 21.4183 17.1836 21.4183 17.2706 21.3341C17.4027 21.1981 17.4506 21.099 17.4563 20.9077C17.4459 20.7009 17.4321 20.5942 17.2987 20.4301C17.2607 20.4004 17.2227 20.3708 17.1836 20.3402C17.1539 20.3106 17.1243 20.2809 17.0938 20.2504C17.1387 20.2054 17.1387 20.2054 17.2791 20.1914Z" fill="#CCC5CD"/>
<path d="M17.5486 17.6758C17.782 17.6946 17.9421 17.7591 18.0968 17.9388C18.2225 18.1322 18.2601 18.3164 18.2168 18.5433C18.1403 18.7661 18.0164 18.9021 17.8072 19.0085C17.6731 19.0545 17.5479 19.0489 17.4082 19.0375C17.4531 18.9027 17.4531 18.9027 17.5402 18.8185C17.6722 18.6825 17.7201 18.5834 17.7258 18.3921C17.7154 18.1853 17.7016 18.0786 17.5682 17.9144C17.5303 17.8848 17.4923 17.8551 17.4531 17.8246C17.4235 17.7949 17.3938 17.7653 17.3633 17.7347C17.4082 17.6898 17.4082 17.6898 17.5486 17.6758Z" fill="#CCC5CD"/>
<path d="M14.4434 17.2852C14.8047 17.3884 14.8047 17.3884 14.9824 17.6445C15.0382 17.8119 15.0514 17.9648 15.0273 18.1387C14.9353 18.3129 14.8399 18.444 14.668 18.543C14.5938 18.5578 14.5197 18.5726 14.4434 18.5879C14.4434 18.158 14.4434 17.7281 14.4434 17.2852Z" fill="#F2EFF2"/>
<path d="M14.4434 14.7246C14.8047 14.8278 14.8047 14.8278 14.9824 15.084C15.0382 15.2514 15.0514 15.4043 15.0273 15.5781C14.9353 15.7524 14.8399 15.8834 14.668 15.9824C14.5938 15.9972 14.5197 16.0121 14.4434 16.0273C14.4434 15.5974 14.4434 15.1675 14.4434 14.7246Z" fill="#F2EFF2"/>
<path d="M13.6797 18.5879C13.8131 18.5879 13.9465 18.5879 14.084 18.5879C14.084 19.0326 14.084 19.4773 14.084 19.9355C13.9506 19.9355 13.8171 19.9355 13.6797 19.9355C13.6797 19.4908 13.6797 19.0461 13.6797 18.5879Z" fill="white"/>
<path d="M12.916 18.5879C13.0494 18.5879 13.1829 18.5879 13.3203 18.5879C13.3203 19.0326 13.3203 19.4773 13.3203 19.9355C13.1869 19.9355 13.0535 19.9355 12.916 19.9355C12.916 19.4908 12.916 19.0461 12.916 18.5879Z" fill="#6354B1"/>
<path d="M13.6797 17.2852C13.8131 17.2852 13.9465 17.2852 14.084 17.2852C14.084 17.7151 14.084 18.145 14.084 18.5879C13.9506 18.5879 13.8171 18.5879 13.6797 18.5879C13.6797 18.158 13.6797 17.7281 13.6797 17.2852Z" fill="#F3F0F3"/>
<path d="M12.916 17.2852C13.0494 17.2852 13.1829 17.2852 13.3203 17.2852C13.3203 17.7151 13.3203 18.145 13.3203 18.5879C13.1869 18.5879 13.0535 18.5879 12.916 18.5879C12.916 18.158 12.916 17.7281 12.916 17.2852Z" fill="#F2EFF2"/>
<path d="M13.6797 16.0273C13.8131 16.0273 13.9465 16.0273 14.084 16.0273C14.084 16.4424 14.084 16.8575 14.084 17.2852C13.9506 17.2852 13.8171 17.2852 13.6797 17.2852C13.6797 16.8701 13.6797 16.455 13.6797 16.0273Z" fill="white"/>
<path d="M12.916 16.0273C13.0494 16.0273 13.1829 16.0273 13.3203 16.0273C13.3203 16.4424 13.3203 16.8575 13.3203 17.2852C13.1869 17.2852 13.0535 17.2852 12.916 17.2852C12.916 16.8701 12.916 16.455 12.916 16.0273Z" fill="white"/>
<path d="M13.6797 13.5566C13.8131 13.5566 13.9465 13.5566 14.084 13.5566C14.084 13.9421 14.084 14.3275 14.084 14.7246C13.9506 14.7246 13.8171 14.7246 13.6797 14.7246C13.6797 14.3392 13.6797 13.9538 13.6797 13.5566Z" fill="white"/>
<path d="M12.916 13.5566C13.0494 13.5566 13.1829 13.5566 13.3203 13.5566C13.3203 13.9421 13.3203 14.3275 13.3203 14.7246C13.1869 14.7246 13.0535 14.7246 12.916 14.7246C12.916 14.3392 12.916 13.9538 12.916 13.5566Z" fill="white"/>
</g>
<defs>
<clipPath id="clip0_520_883">
<rect width="23" height="23" fill="white" transform="translate(2 3)"/>
</clipPath>
</defs>
</svg>
