<svg width="27" height="38" viewBox="0 0 27 38" fill="none" xmlns="http://www.w3.org/2000/svg">
<path d="M0.0643003 13.9126C-0.577227 7.80258 3.73972 3.53342 5.97838 2.16259C12.3135 -1.75407 18.3077 0.530648 20.5129 2.16259C25.5649 5.06091 26.8948 9.96326 26.9282 12.0521C27.4895 16.4388 24.6227 21.9091 23.1191 24.0959C20.553 29.4225 15.501 35.5847 13.2957 38C8.00312 31.9683 4.40789 25.5646 3.27185 23.1167C0.545361 18.5734 -0.0025538 15.0876 0.0643003 13.9126Z" fill="#E11D5A"/>
<g clipPath="url(#clip0_520_890)">
<path d="M13.4875 2.98747C13.547 2.98758 13.547 2.98758 13.6077 2.9877C14.1947 2.98956 14.769 3.00651 15.346 3.12334C15.3837 3.13081 15.4213 3.13829 15.4601 3.14599C15.7247 3.19978 15.9869 3.2612 16.2484 3.32841C16.2948 3.3403 16.2948 3.3403 16.3422 3.35243C17.2091 3.57932 18.5519 3.99126 19.2015 4.64091C19.2705 4.65047 19.3398 4.65784 19.4092 4.66399C19.4469 4.66742 19.4845 4.67086 19.5234 4.6744C19.5671 4.67813 19.5671 4.67813 19.6117 4.68193C19.6088 4.63397 19.606 4.58602 19.603 4.53661C19.6007 4.47312 19.5985 4.40962 19.5963 4.34611C19.5942 4.31458 19.5922 4.28304 19.59 4.25054C19.5841 4.02097 19.5841 4.02097 19.663 3.91694C19.7692 3.82451 19.8461 3.78122 19.9859 3.76164C20.1005 3.77908 20.1725 3.79685 20.2679 3.86162C20.3512 3.98658 20.3601 4.00932 20.358 4.14921C20.3577 4.18027 20.3574 4.21133 20.3572 4.24333C20.3565 4.27556 20.3558 4.30779 20.3551 4.34099C20.3547 4.37369 20.3543 4.40639 20.354 4.44008C20.353 4.5207 20.3515 4.60132 20.35 4.68193C20.3826 4.68136 20.4152 4.6808 20.4487 4.68022C20.7663 4.67711 21.0754 4.69309 21.3907 4.73064C21.4364 4.73606 21.4821 4.74149 21.5292 4.74709C23.4151 4.98491 23.4151 4.98491 23.9471 5.58043C24.0382 5.7275 24.0301 5.8685 24.0003 6.03545C23.7329 6.49011 23.1267 6.64558 22.6468 6.77373C22.3751 6.83749 22.1012 6.88904 21.8265 6.93779C21.8265 7.04307 21.8592 7.07439 21.9212 7.15873C21.9415 7.18675 21.9618 7.21477 21.9828 7.24364C22.0048 7.27383 22.0268 7.30402 22.0495 7.33513C22.281 7.65806 22.4921 7.9867 22.6878 8.33232C22.7101 8.37092 22.7101 8.37092 22.7328 8.41031C23.515 9.77682 24.0004 11.4209 24.0087 12.9996C24.009 13.0365 24.0092 13.0735 24.0095 13.1115C24.0103 13.23 24.0105 13.3485 24.0106 13.467C24.0106 13.5277 24.0106 13.5277 24.0107 13.5897C24.01 14.1841 23.9915 14.7611 23.8773 15.346C23.8707 15.3828 23.8641 15.4196 23.8573 15.4575C23.3999 17.9853 21.9367 20.3847 19.8578 21.9085C19.8227 21.9346 19.8227 21.9346 19.787 21.9613C19.4284 22.2286 19.057 22.4667 18.6683 22.6878C18.6424 22.7027 18.6165 22.7177 18.5898 22.7331C17.5199 23.3455 16.3166 23.7342 15.1 23.9183C15.0539 23.9255 15.0079 23.9327 14.9605 23.9402C14.4833 24.0083 14.01 24.0166 13.5285 24.0157C13.487 24.0157 13.4455 24.0157 13.4027 24.0156C12.7379 24.0143 12.1016 23.9751 11.4496 23.8362C11.4117 23.8285 11.3738 23.8209 11.3347 23.813C10.5512 23.6519 9.7931 23.3999 9.07065 23.0569C9.03082 23.0382 9.03082 23.0382 8.99018 23.019C7.54256 22.3312 6.17804 21.3157 5.21518 20.0218C5.1799 19.9758 5.14459 19.9299 5.10928 19.884C4.81471 19.4962 4.55661 19.0895 4.31284 18.6683C4.29667 18.6405 4.2805 18.6127 4.26383 18.5841C3.65237 17.521 3.26032 16.3114 3.08237 15.0999C3.0751 15.0505 3.06783 15.0011 3.06033 14.9502C2.99475 14.472 2.98564 13.9977 2.98752 13.5157C2.9876 13.4759 2.98767 13.4361 2.98775 13.3951C2.98961 12.8065 3.01034 12.2337 3.12339 11.6546C3.13329 11.5994 3.13329 11.5994 3.1434 11.5431C3.35127 10.3943 3.73988 9.19086 4.39696 8.21632C4.44766 8.12815 4.44766 8.12815 4.404 8.03896C4.38746 8.01395 4.37091 7.98895 4.35386 7.96318C4.31797 7.86833 4.31797 7.86833 4.31284 7.7581C4.35973 7.65639 4.41748 7.56642 4.4769 7.47099C4.4769 7.44392 4.4769 7.41685 4.4769 7.38896C4.4566 7.37373 4.4363 7.35851 4.41538 7.34282C4.33445 7.24165 4.32351 7.1526 4.3303 7.02463C4.38125 6.8368 4.52084 6.74655 4.68198 6.65068C4.97122 6.51282 5.26418 6.41287 5.58176 6.37126C5.91869 6.29644 6.1333 6.00048 6.3601 5.75891C6.52623 5.58211 6.70146 5.43564 6.89667 5.2914C6.99147 5.20343 7.01675 5.13005 7.06089 5.01005C7.15446 4.89046 7.17784 4.88792 7.33774 4.86394C7.53119 4.82612 7.67125 4.73457 7.82993 4.62297C8.90616 3.8741 10.1872 3.41519 11.4649 3.15153C11.4941 3.14549 11.5232 3.13944 11.5533 3.13321C12.1949 3.01076 12.8362 2.98492 13.4875 2.98747Z" fill="#E1DDDE"/>
<path d="M13.4872 2.98747C13.5467 2.98758 13.5467 2.98758 13.6074 2.9877C14.1943 2.98956 14.7686 3.00651 15.3457 3.12334C15.3833 3.13081 15.421 3.13829 15.4598 3.14599C15.7244 3.19978 15.9865 3.2612 16.248 3.32841C16.2945 3.3403 16.2945 3.3403 16.3419 3.35243C17.2088 3.57932 18.5515 3.99126 19.2012 4.64091C19.2702 4.65047 19.3394 4.65784 19.4088 4.66399C19.4465 4.66742 19.4842 4.67086 19.523 4.6744C19.5667 4.67813 19.5667 4.67813 19.6113 4.68193C19.6085 4.63397 19.6056 4.58602 19.6027 4.53661C19.6004 4.47312 19.5981 4.40962 19.5959 4.34611C19.5939 4.31458 19.5918 4.28304 19.5897 4.25054C19.5838 4.02097 19.5838 4.02097 19.6627 3.91694C19.7688 3.82451 19.8458 3.78122 19.9856 3.76164C20.1002 3.77908 20.1721 3.79685 20.2676 3.86162C20.3509 3.98658 20.3597 4.00932 20.3576 4.14921C20.3574 4.18027 20.3571 4.21133 20.3568 4.24333C20.3561 4.27556 20.3554 4.30779 20.3547 4.34099C20.3544 4.37369 20.354 4.40639 20.3536 4.44008C20.3526 4.5207 20.3512 4.60132 20.3496 4.68193C20.3822 4.68136 20.4148 4.6808 20.4484 4.68022C20.766 4.67711 21.0751 4.69309 21.3904 4.73064C21.4361 4.73606 21.4818 4.74149 21.5289 4.74709C23.4147 4.98491 23.4147 4.98491 23.9468 5.58043C24.0379 5.7275 24.0297 5.8685 24 6.03545C23.7315 6.49181 23.1267 6.64271 22.6465 6.77373C22.2006 6.88623 21.7601 6.95512 21.3007 6.97159C21.163 6.97506 21.163 6.97506 21.0059 7.01982C20.7893 7.01982 20.5727 7.01982 20.3496 7.01982C20.3496 8.23798 20.3496 9.45615 20.3496 10.7112C20.4579 10.7112 20.5662 10.7112 20.6777 10.7112C20.7743 10.7324 20.7743 10.7324 20.8495 10.7625C20.8872 10.7768 20.8872 10.7768 20.9256 10.7913C21.1289 10.9001 21.2339 11.0114 21.3126 11.2277C21.3297 11.2737 21.3468 11.3197 21.3644 11.3671C21.3821 11.4166 21.3997 11.4661 21.4179 11.5171C21.4368 11.5687 21.4557 11.6203 21.4747 11.6719C21.5142 11.7798 21.5534 11.8879 21.5922 11.996C21.6417 12.1343 21.692 12.2722 21.7426 12.41C21.7817 12.5165 21.8204 12.6231 21.8591 12.7297C21.8866 12.8052 21.9141 12.8806 21.9416 12.9561C21.9581 13.0024 21.9747 13.0486 21.9918 13.0963C22.0064 13.1368 22.021 13.1773 22.036 13.219C22.0733 13.3397 22.0954 13.4574 22.1133 13.5823C22.0761 13.5561 22.0388 13.5299 22.0005 13.5029C21.5827 13.2377 20.8214 13.3399 20.3552 13.4288C19.8695 13.5438 19.4288 13.6965 18.9797 13.9162C18.9468 13.932 18.9138 13.9477 18.8799 13.964C18.8363 13.9855 18.8363 13.9855 18.7918 14.0075C18.6919 14.0389 18.6418 14.03 18.5449 13.9925C18.4805 13.9236 18.4805 13.9236 18.4167 13.8335C18.1207 13.4367 17.7907 13.1022 17.3965 12.803C17.3749 12.7864 17.3534 12.7697 17.3311 12.7526C16.3165 11.9733 15.0173 11.5045 13.7368 11.5155C13.6463 11.5162 13.5558 11.5155 13.4653 11.5147C11.8365 11.5124 10.3352 12.2453 9.19336 13.3772C8.98128 13.5977 8.79455 13.8244 8.61914 14.0745C8.59799 14.0648 8.57684 14.0551 8.55504 14.0452C7.7682 13.6884 6.97354 13.3701 6.10181 13.3696C6.05623 13.369 6.01066 13.3685 5.9637 13.368C5.62815 13.3674 5.37725 13.392 5.0918 13.5823C5.18006 13.2747 5.2826 12.9736 5.39156 12.6728C5.4083 12.6265 5.42503 12.5802 5.44227 12.5325C5.47747 12.4354 5.51274 12.3383 5.54807 12.2413C5.60198 12.0928 5.65535 11.9442 5.70871 11.7955C5.7431 11.7008 5.77752 11.6062 5.81197 11.5115C5.82779 11.4672 5.8436 11.4229 5.85989 11.3772C6.03559 10.8989 6.03559 10.8989 6.29919 10.7599C6.48633 10.7112 6.48633 10.7112 7.01953 10.7112C7.01953 10.0345 7.01953 9.35771 7.01953 8.66044C6.89771 8.66044 6.7759 8.66044 6.65039 8.66044C5.91755 8.61617 4.9823 8.52439 4.40222 8.02182C4.3275 7.93186 4.31517 7.8754 4.3125 7.7581C4.35949 7.65643 4.41714 7.56643 4.47656 7.47099C4.47656 7.44392 4.47656 7.41685 4.47656 7.38896C4.44611 7.36612 4.44611 7.36612 4.41504 7.34282C4.33411 7.24165 4.32317 7.1526 4.32996 7.02463C4.38091 6.8368 4.5205 6.74655 4.68164 6.65068C4.97088 6.51282 5.26384 6.41287 5.58142 6.37126C5.91835 6.29644 6.13296 6.00048 6.35976 5.75891C6.52589 5.58211 6.70112 5.43564 6.89632 5.2914C6.99113 5.20343 7.01641 5.13005 7.06055 5.01005C7.15412 4.89046 7.1775 4.88792 7.3374 4.86394C7.53085 4.82612 7.6709 4.73457 7.82959 4.62297C8.90582 3.8741 10.1869 3.41519 11.4646 3.15153C11.4937 3.14549 11.5229 3.13944 11.5529 3.13321C12.1945 3.01076 12.8358 2.98492 13.4872 2.98747Z" fill="#F64C83"/>
<path d="M17.0595 13.8303C18.0077 14.685 18.643 15.9214 18.7165 17.1998C18.7717 18.6045 18.4268 19.9717 17.4615 21.0323C17.3867 21.1075 17.3112 21.1807 17.2324 21.2516C17.1199 21.199 17.0258 21.1413 16.9295 21.0629C16.9045 21.0428 16.8795 21.0227 16.8538 21.002C16.8016 20.9596 16.7495 20.9172 16.6974 20.8748C16.5706 20.7587 16.5706 20.7587 16.412 20.7184C16.3455 20.7992 16.2834 20.8798 16.2223 20.9645C16.2051 20.988 16.1879 21.0115 16.1701 21.0357C16.1275 21.0938 16.0852 21.1522 16.0429 21.2106C16.0756 21.2252 16.0756 21.2252 16.1089 21.2401C16.2356 21.308 16.3486 21.3913 16.4633 21.4772C16.486 21.4938 16.5088 21.5103 16.5322 21.5274C16.5895 21.5701 16.6445 21.6157 16.6992 21.6618C16.6992 21.6889 16.6992 21.7159 16.6992 21.7438C16.6175 21.8056 16.5369 21.861 16.4505 21.9156C16.4246 21.932 16.3987 21.9484 16.3719 21.9653C15.9807 22.2074 15.5699 22.3862 15.1354 22.5359C15.0929 22.5509 15.0929 22.5509 15.0495 22.5661C14.5913 22.7168 14.1251 22.7415 13.6461 22.7384C13.5965 22.7388 13.547 22.7391 13.496 22.7394C12.1078 22.7364 10.8718 22.1521 9.89937 21.1782C9.68109 20.9445 9.48668 20.702 9.31634 20.4313C9.30202 20.4087 9.2877 20.386 9.27294 20.3627C8.54607 19.1956 8.31207 17.8095 8.61109 16.4687C8.69248 16.1326 8.79722 15.8214 8.9472 15.5094C8.95941 15.4839 8.97163 15.4584 8.98421 15.4322C9.56839 14.2305 10.6128 13.2632 11.8738 12.8086C13.6749 12.1932 15.6257 12.5773 17.0595 13.8303Z" fill="#F7F7F7"/>
<path d="M13.4872 2.98747C13.5467 2.98758 13.5467 2.98758 13.6074 2.9877C14.1943 2.98956 14.7686 3.00651 15.3457 3.12334C15.3833 3.13081 15.421 3.13829 15.4598 3.14599C15.7244 3.19978 15.9865 3.2612 16.248 3.32841C16.279 3.33634 16.31 3.34426 16.3419 3.35243C17.0689 3.54271 17.7599 3.83635 18.4219 4.18974C18.4544 4.20702 18.487 4.22431 18.5205 4.24211C18.6229 4.2968 18.725 4.35207 18.8269 4.40764C18.8749 4.43352 18.8749 4.43352 18.9239 4.45993C18.9535 4.47635 18.9832 4.49278 19.0137 4.5097C19.04 4.52415 19.0664 4.5386 19.0935 4.55349C19.1602 4.5999 19.1602 4.5999 19.2422 4.72295C19.2063 4.72571 19.2063 4.72571 19.1698 4.72852C18.6668 4.76821 18.1772 4.821 17.6836 4.92802C17.6262 4.93947 17.5688 4.9509 17.5114 4.96231C17.2038 5.02613 16.9159 5.11035 16.6274 5.23564C16.5871 5.25315 16.5871 5.25315 16.546 5.27101C16.3072 5.38021 16.1125 5.50399 16.002 5.74834C15.9774 5.87384 15.9789 5.95142 16.0399 6.06525C16.4277 6.58452 17.363 6.7623 17.9707 6.85576C18.5164 6.93024 19.0618 6.98057 19.6113 7.01982C19.6113 8.25152 19.6113 9.48322 19.6113 10.7522C19.2865 10.847 18.9616 10.9417 18.627 11.0394C18.056 11.2578 17.5623 11.4956 17.0821 11.8696C16.9863 11.9417 16.9863 11.9417 16.9453 11.9417C16.9451 11.8918 16.945 11.842 16.9448 11.7906C16.9439 11.6052 16.9417 11.4199 16.9391 11.2345C16.9381 11.1543 16.9375 11.0742 16.9373 10.994C16.9369 10.8786 16.9352 10.7633 16.9333 10.6479C16.9335 10.5944 16.9335 10.5944 16.9338 10.5397C16.9294 10.3579 16.9228 10.2832 16.8057 10.1369C15.9645 9.49011 14.61 9.49829 13.6051 9.50639C13.5422 9.50666 13.5422 9.50666 13.478 9.50693C11.8231 9.48691 11.8231 9.48691 10.3788 10.179C10.2711 10.3475 10.2761 10.4838 10.2758 10.68C10.2751 10.7161 10.2744 10.7522 10.2737 10.7895C10.2717 10.9044 10.2709 11.0193 10.27 11.1342C10.2689 11.2123 10.2676 11.2904 10.2663 11.3685C10.2633 11.5596 10.2613 11.7506 10.2598 11.9417C10.2395 11.926 10.2193 11.9103 10.1984 11.8942C9.78826 11.5807 9.34606 11.3454 8.8678 11.1521C8.83709 11.1396 8.80639 11.1271 8.77475 11.1143C8.44053 10.984 8.10537 10.8955 7.75781 10.7933C7.75781 10.0894 7.75781 9.3856 7.75781 8.66045C8.00018 8.63507 8.00018 8.63507 8.24744 8.60918C9.39046 8.50679 9.39046 8.50679 10.3418 7.96318C10.3998 7.82397 10.3998 7.82397 10.3828 7.67607C10.3239 7.57796 10.2597 7.51197 10.1777 7.42998C10.2124 7.39445 10.2471 7.35892 10.2828 7.32231C10.3658 7.2216 10.3822 7.19391 10.3905 7.05827C10.2903 6.81042 10.096 6.72666 9.86243 6.62505C9.46361 6.46066 9.0616 6.38366 8.63452 6.33794C8.59074 6.33297 8.54697 6.328 8.50186 6.32288C8.37693 6.30875 8.25195 6.29509 8.12695 6.28154C8.05485 6.27355 7.98275 6.26554 7.91066 6.25751C7.86022 6.2519 7.80978 6.2463 7.75781 6.24052C7.75721 6.20929 7.75662 6.17806 7.756 6.14589C7.75294 6.00395 7.74898 5.86205 7.745 5.72014C7.74407 5.67099 7.74314 5.62185 7.74219 5.57122C7.74074 5.52376 7.73928 5.47631 7.73779 5.42742C7.73671 5.38382 7.73564 5.34022 7.73453 5.29529C7.70629 5.10232 7.61332 4.97503 7.4707 4.84599C8.70899 4.03667 10.0094 3.45182 11.4646 3.15153C11.4937 3.14549 11.5229 3.13944 11.5529 3.13321C12.1945 3.01076 12.8358 2.98492 13.4872 2.98747Z" fill="#E3E3E3"/>
<path d="M4.4769 8.08594C4.58089 8.12671 4.68354 8.16868 4.78516 8.21507C5.50057 8.53598 6.24686 8.58547 7.01987 8.66016C7.01987 9.33691 7.01987 10.0137 7.01987 10.7109C6.84392 10.7245 6.66796 10.738 6.48667 10.752C6.22066 10.8212 6.13242 10.8884 5.99448 11.1211C5.95787 11.2043 5.92411 11.2888 5.89302 11.3741C5.87497 11.4233 5.85692 11.4724 5.83832 11.5231C5.81922 11.5762 5.80013 11.6292 5.78107 11.6823C5.76109 11.7374 5.7411 11.7925 5.72108 11.8475C5.67936 11.9625 5.63789 12.0777 5.59658 12.1928C5.5438 12.34 5.4903 12.4868 5.43659 12.6336C5.39517 12.7471 5.35418 12.8607 5.3133 12.9744C5.29376 13.0286 5.27407 13.0828 5.25423 13.1369C5.2265 13.2126 5.19942 13.2887 5.17237 13.3647C5.14906 13.4293 5.14906 13.4293 5.12529 13.4952C5.05907 13.7506 5.08305 13.9372 5.20733 14.1628C5.27931 14.274 5.36222 14.3556 5.46128 14.4434C5.48206 14.4642 5.50284 14.4851 5.52424 14.5066C5.6996 14.6751 5.89189 14.7982 6.10215 14.9176C6.12733 14.932 6.15251 14.9464 6.17846 14.9613C6.45208 15.1122 6.72861 15.2209 7.01987 15.3457C7.01987 17.4707 7.01987 19.5957 7.01987 21.7852C6.35176 21.2841 5.71923 20.6901 5.21518 20.0215C5.19821 19.9994 5.18124 19.9774 5.16376 19.9547C4.84847 19.5446 4.57181 19.1155 4.31284 18.668C4.29667 18.6402 4.2805 18.6124 4.26383 18.5838C3.65237 17.5207 3.26032 16.3111 3.08237 15.0996C3.0751 15.0502 3.06783 15.0008 3.06033 14.9499C2.99475 14.4718 2.98564 13.9974 2.98752 13.5154C2.9876 13.4756 2.98767 13.4358 2.98775 13.3948C2.98961 12.8062 3.01034 12.2335 3.12339 11.6543C3.12999 11.6175 3.13659 11.5807 3.1434 11.5428C3.3339 10.49 3.69072 8.87213 4.4769 8.08594Z" fill="white"/>
<path d="M21.7441 6.93714C21.8989 7.0641 21.9988 7.21548 22.1018 7.38452C22.1572 7.47516 22.2155 7.56346 22.2745 7.65186C23.3081 9.22026 23.9984 11.1053 24.0083 12.999C24.0086 13.0359 24.0089 13.0728 24.0092 13.1109C24.0099 13.2294 24.0102 13.3478 24.0103 13.4663C24.0103 13.5068 24.0103 13.5473 24.0103 13.589C24.0097 14.1834 23.9911 14.7605 23.877 15.3453C23.8704 15.3821 23.8637 15.4189 23.8569 15.4568C23.4525 17.6921 22.3152 19.5635 20.7367 21.1593C20.7078 21.1887 20.679 21.2181 20.6493 21.2483C20.6222 21.2754 20.5952 21.3025 20.5673 21.3304C20.5432 21.3548 20.519 21.3791 20.494 21.4042C20.4316 21.4567 20.4316 21.4567 20.3496 21.4567C20.3496 19.4264 20.3496 17.3961 20.3496 15.3043C20.5662 15.196 20.7827 15.0878 21.0059 14.9762C21.676 14.6004 21.676 14.6004 22.1133 13.9918C22.1458 13.7213 22.0866 13.499 21.9906 13.2484C21.964 13.1761 21.9375 13.1037 21.911 13.0313C21.897 12.9939 21.8831 12.9564 21.8687 12.9178C21.8117 12.7631 21.7574 12.6074 21.7032 12.4516C21.648 12.2937 21.5917 12.136 21.5354 11.9785C21.5067 11.8977 21.4782 11.8169 21.45 11.736C21.4084 11.617 21.366 11.4983 21.3234 11.3796C21.3048 11.3256 21.3048 11.3256 21.2858 11.2704C21.2132 11.071 21.1537 10.9476 20.9648 10.8336C20.7556 10.7586 20.5752 10.7388 20.3496 10.7106C20.3496 9.49241 20.3496 8.27424 20.3496 7.01917C20.6745 6.99886 20.6745 6.99886 21.0059 6.97815C21.2598 6.91466 21.4857 6.87786 21.7441 6.93714Z" fill="white"/>
<path d="M7.55273 4.88629C7.66799 4.97974 7.7106 5.03177 7.75781 5.1734C7.76121 5.2551 7.76222 5.33691 7.76182 5.41869C7.76162 5.49026 7.76162 5.49026 7.76142 5.56328C7.7609 5.63803 7.7609 5.63803 7.76038 5.71429C7.76019 5.7646 7.76001 5.8149 7.75982 5.86674C7.75933 5.99109 7.75866 6.11545 7.75781 6.2398C7.83387 6.2383 7.83387 6.2383 7.91146 6.23676C8.66936 6.2375 9.68041 6.3308 10.2905 6.83197C10.3892 6.93493 10.4235 7.0018 10.4264 7.14471C10.3779 7.27891 10.3145 7.36529 10.2188 7.47027C10.2534 7.49819 10.2881 7.5261 10.3239 7.55487C10.4238 7.67535 10.4238 7.67535 10.4341 7.81634C10.3639 8.01646 10.2771 8.10165 10.0957 8.20855C9.36984 8.53581 8.5461 8.65972 7.75781 8.65972C7.75781 9.36355 7.75781 10.0674 7.75781 10.7925C7.89316 10.8196 8.02852 10.8467 8.16797 10.8746C8.88339 11.0779 9.68139 11.3626 10.2188 11.9C10.2189 11.8528 10.2191 11.8056 10.2193 11.757C10.2202 11.5813 10.2224 11.4057 10.225 11.23C10.226 11.1542 10.2265 11.0782 10.2268 11.0023C10.2272 10.893 10.2288 10.7837 10.2308 10.6743C10.2306 10.6406 10.2304 10.6069 10.2303 10.5721C10.2364 10.3299 10.2903 10.2234 10.4648 10.0543C11.0454 9.65843 11.7862 9.53929 12.4746 9.52105C12.4701 9.55069 12.4655 9.58032 12.4609 9.61085C12.3577 10.2907 12.2754 10.9677 12.2285 11.6539C12.177 11.6673 12.177 11.6673 12.1245 11.6811C10.7144 12.0652 9.46546 12.8669 8.61914 14.0738C8.59799 14.0641 8.57684 14.0544 8.55504 14.0445C7.7682 13.6877 6.97354 13.3693 6.10181 13.3688C6.05623 13.3683 6.01066 13.3678 5.9637 13.3673C5.62815 13.3667 5.37725 13.3913 5.0918 13.5816C5.18006 13.2739 5.2826 12.9729 5.39156 12.672C5.4083 12.6258 5.42503 12.5795 5.44227 12.5318C5.47747 12.4347 5.51274 12.3376 5.54807 12.2405C5.60198 12.0921 5.65535 11.9434 5.70871 11.7948C5.7431 11.7001 5.77752 11.6054 5.81197 11.5108C5.82779 11.4665 5.8436 11.4222 5.85989 11.3765C6.03559 10.8982 6.03559 10.8982 6.29919 10.7592C6.48633 10.7105 6.48633 10.7105 7.01953 10.7105C7.01953 10.0337 7.01953 9.35699 7.01953 8.65972C6.89771 8.65972 6.7759 8.65972 6.65039 8.65972C5.91755 8.61545 4.9823 8.52367 4.40222 8.0211C4.3275 7.93114 4.31517 7.87468 4.3125 7.75738C4.35949 7.65571 4.41714 7.56571 4.47656 7.47027C4.47656 7.4432 4.47656 7.41613 4.47656 7.38824C4.45626 7.37301 4.43596 7.35779 4.41504 7.3421C4.33411 7.24093 4.32317 7.15188 4.32996 7.02391C4.38091 6.83608 4.5205 6.74583 4.68164 6.64996C4.97088 6.5121 5.26384 6.41215 5.58142 6.37054C5.91835 6.29572 6.13296 5.99976 6.35976 5.75819C6.52589 5.58139 6.70112 5.43492 6.89632 5.29068C6.99076 5.20305 7.01964 5.13006 7.06055 5.00933C7.20361 4.83517 7.34152 4.83025 7.55273 4.88629Z" fill="#F64C83"/>
<path d="M13.8694 11.8182C13.9023 11.8196 13.9353 11.8211 13.9692 11.8226C14.5304 11.8509 15.0246 11.9525 15.551 12.1463C15.599 12.1629 15.647 12.1794 15.6964 12.1965C17.0741 12.6915 18.237 13.7868 18.8754 15.0983C18.9324 15.2206 18.9854 15.344 19.0374 15.4686C19.0532 15.5062 19.0691 15.5439 19.0854 15.5826C19.6487 17.0211 19.5501 18.5933 18.9538 19.9986C18.6651 20.6372 18.2646 21.1766 17.8069 21.7029C17.6624 21.6388 17.5497 21.5514 17.4275 21.4517C17.3909 21.422 17.3543 21.3923 17.3166 21.3617C17.2751 21.3276 17.2751 21.3276 17.2327 21.2928C17.2932 21.1529 17.3726 21.0629 17.4788 20.9544C18.0145 20.3687 18.3411 19.6326 18.5452 18.8729C18.5584 18.8243 18.5716 18.7757 18.5852 18.7256C18.8853 17.4119 18.605 16.0753 17.9367 14.9293C17.4741 14.2013 16.8757 13.6367 16.1253 13.2127C16.088 13.1913 16.0508 13.1699 16.0125 13.1478C14.8592 12.527 13.4721 12.3833 12.2147 12.7386C11.5119 12.9527 10.9032 13.2733 10.3421 13.7459C10.3059 13.7758 10.2697 13.8058 10.2325 13.8366C9.29373 14.6442 8.65857 15.875 8.53737 17.1092C8.44947 18.3973 8.76551 19.7388 9.58584 20.7596C9.64602 20.8284 9.70668 20.8968 9.76784 20.9647C9.79586 20.9985 9.82389 21.0323 9.85276 21.0672C10.5962 21.945 11.7857 22.5718 12.9289 22.6792C13.1645 22.6951 13.4001 22.6949 13.6361 22.695C13.6865 22.6955 13.737 22.696 13.7889 22.6965C14.2736 22.6973 14.7276 22.6385 15.187 22.4822C15.2233 22.47 15.2595 22.4578 15.2969 22.4453C15.7996 22.2684 16.2715 22.0202 16.6995 21.7029C16.8959 21.848 17.0877 21.996 17.2737 22.1541C16.4173 23.077 14.9086 23.4172 13.7134 23.4778C12.243 23.5256 10.7745 22.9407 9.69607 21.9516C8.60477 20.9263 7.8644 19.5235 7.79909 18.0115C7.79278 17.779 7.79434 17.5468 7.79909 17.3143C7.79978 17.2675 7.80047 17.2207 7.80118 17.1725C7.86388 15.6623 8.68107 14.2527 9.76842 13.243C10.1363 12.9209 10.5592 12.6471 10.9983 12.4334C11.0393 12.413 11.0804 12.3925 11.1226 12.3714C11.9867 11.9551 12.9112 11.7733 13.8694 11.8182Z" fill="#E21F5B"/>
<path d="M20.1033 3.77967C20.2404 3.82917 20.2652 3.85844 20.3494 3.98474C20.3587 4.06272 20.3587 4.06272 20.3574 4.14929C20.3572 4.18035 20.3569 4.21141 20.3566 4.24341C20.3556 4.29175 20.3556 4.29175 20.3546 4.34107C20.3542 4.37377 20.3538 4.40647 20.3534 4.44016C20.3525 4.52078 20.351 4.6014 20.3494 4.68201C20.3983 4.68116 20.3983 4.68116 20.4482 4.6803C20.7658 4.67719 21.0749 4.69317 21.3902 4.73072C21.4359 4.73614 21.4816 4.74157 21.5287 4.74717C23.4146 4.98499 23.4146 4.98499 23.9466 5.58051C24.0377 5.72758 24.0295 5.86858 23.9998 6.03553C23.7314 6.49189 23.1265 6.64279 22.6463 6.77381C22.2005 6.8863 21.7599 6.9552 21.3005 6.97167C21.1628 6.97514 21.1628 6.97514 21.0057 7.0199C20.7891 7.0199 20.5726 7.0199 20.3494 7.0199C20.3494 8.23806 20.3494 9.45623 20.3494 10.7113C20.1058 10.7248 19.8622 10.7384 19.6112 10.7523C19.6112 9.52062 19.6112 8.28892 19.6112 7.0199C19.4217 7.0199 19.2322 7.0199 19.0369 7.0199C18.8648 7.00673 18.6954 6.99165 18.5242 6.97119C18.4787 6.96579 18.4332 6.96039 18.3863 6.95483C17.7678 6.87664 17.1374 6.76874 16.576 6.4867C16.5421 6.47073 16.5082 6.45476 16.4733 6.43831C16.2587 6.33012 16.085 6.20429 15.9608 5.99451C15.9216 5.82347 15.9546 5.75989 16.0377 5.60486C16.5706 4.93499 17.8024 4.82538 18.5861 4.73506C18.9267 4.70165 19.2691 4.69106 19.6112 4.68201C19.6069 4.61008 19.6069 4.61008 19.6025 4.53669C19.6002 4.4732 19.598 4.4097 19.5958 4.34619C19.5937 4.31466 19.5916 4.28312 19.5895 4.25062C19.5836 4.02105 19.5836 4.02105 19.6625 3.91702C19.8089 3.78952 19.9118 3.75052 20.1033 3.77967Z" fill="#FEDC7C"/>
<path d="M7.55273 4.88629C7.66799 4.97974 7.7106 5.03177 7.75781 5.1734C7.76121 5.2551 7.76222 5.33691 7.76182 5.41869C7.76162 5.49026 7.76162 5.49026 7.76142 5.56328C7.7609 5.63803 7.7609 5.63803 7.76038 5.71429C7.76019 5.7646 7.76001 5.8149 7.75982 5.86674C7.75933 5.99109 7.75866 6.11545 7.75781 6.2398C7.83387 6.2383 7.83387 6.2383 7.91146 6.23676C8.66936 6.2375 9.68041 6.3308 10.2905 6.83197C10.3892 6.93493 10.4235 7.0018 10.4264 7.14471C10.3779 7.27891 10.3145 7.36529 10.2188 7.47027C10.2534 7.49819 10.2881 7.5261 10.3239 7.55487C10.4238 7.67535 10.4238 7.67535 10.4341 7.81634C10.3639 8.01645 10.2771 8.10165 10.0957 8.20855C9.36984 8.53581 8.5461 8.65972 7.75781 8.65972C7.75781 9.36355 7.75781 10.0674 7.75781 10.7925C7.51418 10.7655 7.27055 10.7384 7.01953 10.7105C7.01953 10.0337 7.01953 9.35699 7.01953 8.65972C6.89771 8.65972 6.7759 8.65972 6.65039 8.65972C5.91755 8.61545 4.9823 8.52367 4.40222 8.0211C4.3275 7.93114 4.31517 7.87468 4.3125 7.75738C4.35949 7.65571 4.41714 7.56571 4.47656 7.47027C4.47656 7.4432 4.47656 7.41613 4.47656 7.38824C4.45626 7.37301 4.43596 7.35779 4.41504 7.3421C4.33411 7.24093 4.32317 7.15188 4.32996 7.02391C4.38091 6.83608 4.5205 6.74583 4.68164 6.64996C4.97088 6.51209 5.26384 6.41215 5.58142 6.37054C5.91835 6.29572 6.13296 5.99976 6.35976 5.75819C6.52589 5.58139 6.70112 5.43492 6.89632 5.29068C6.99076 5.20305 7.01964 5.13006 7.06055 5.00933C7.20361 4.83517 7.34152 4.83025 7.55273 4.88629Z" fill="#FEC73F"/>
<path d="M5.54289 8.49609C6.03508 8.55078 6.52727 8.60547 7.01945 8.66016C7.01945 9.33691 7.01945 10.0137 7.01945 10.7109C6.75552 10.7312 6.75552 10.7312 6.48625 10.752C6.22024 10.8212 6.132 10.8884 5.99406 11.1211C5.95745 11.2043 5.92369 11.2888 5.89261 11.3741C5.87455 11.4233 5.8565 11.4724 5.8379 11.5231C5.8188 11.5762 5.79972 11.6292 5.78065 11.6823C5.76067 11.7374 5.74068 11.7925 5.72067 11.8475C5.67894 11.9625 5.63747 12.0777 5.59616 12.1928C5.54338 12.34 5.48988 12.4868 5.43617 12.6336C5.39475 12.7471 5.35376 12.8607 5.31289 12.9744C5.29334 13.0286 5.27365 13.0828 5.25382 13.1369C5.22609 13.2126 5.199 13.2887 5.17195 13.3647C5.15641 13.4078 5.14088 13.4508 5.12487 13.4952C5.05865 13.7506 5.08264 13.9372 5.20692 14.1628C5.27889 14.274 5.3618 14.3556 5.46086 14.4434C5.49203 14.4747 5.49203 14.4747 5.52383 14.5066C5.69919 14.6751 5.89147 14.7982 6.10173 14.9176C6.12691 14.932 6.1521 14.9464 6.17804 14.9613C6.45166 15.1122 6.72819 15.2209 7.01945 15.3457C7.01945 16.2526 7.01945 17.1594 7.01945 18.0938C6.22032 17.2946 5.65748 16.316 5.25578 15.2637C5.24437 15.2339 5.23296 15.2041 5.2212 15.1734C4.69895 13.7825 4.55592 12.1773 4.82934 10.7172C4.84395 10.638 4.85624 10.5583 4.86822 10.4786C4.92707 10.1239 5.03594 9.78816 5.14812 9.44714C5.16351 9.40016 5.1789 9.35318 5.19476 9.30477C5.29015 9.02262 5.40131 8.75821 5.54289 8.49609Z" fill="#E3E3E3"/>
<path d="M20.211 10.6983C20.2514 10.6976 20.2918 10.697 20.3334 10.6963C20.6826 10.6961 20.9461 10.7541 21.2107 10.9982C21.2678 11.105 21.2678 11.105 21.3124 11.2276C21.3295 11.2735 21.3466 11.3195 21.3642 11.3669C21.3907 11.4412 21.3907 11.4412 21.4177 11.517C21.4366 11.5686 21.4555 11.6202 21.4745 11.6718C21.514 11.7797 21.5531 11.8877 21.5919 11.9959C21.6415 12.1341 21.6918 12.2721 21.7424 12.4099C21.7814 12.5164 21.8202 12.623 21.8589 12.7296C21.8863 12.8051 21.9138 12.8805 21.9413 12.956C21.9662 13.0254 21.9662 13.0254 21.9916 13.0962C22.0062 13.1367 22.0208 13.1771 22.0358 13.2189C22.0731 13.3396 22.0952 13.4573 22.1131 13.5822C22.0572 13.5429 22.0572 13.5429 22.0003 13.5027C21.5821 13.2374 20.8239 13.3409 20.3569 13.4278C19.9629 13.5225 19.5792 13.642 19.201 13.7873C18.7701 13.3545 18.4635 12.8376 18.4492 12.2144C18.4496 12.1226 18.4507 12.0308 18.4524 11.939C18.4526 11.8931 18.4528 11.8472 18.4531 11.7999C18.4555 11.5434 18.4703 11.2935 18.5037 11.0392C18.6318 10.9996 18.76 10.9604 18.8882 10.9213C18.9417 10.9047 18.9417 10.9047 18.9964 10.8878C19.4056 10.7636 19.7825 10.6969 20.211 10.6983Z" fill="#F64D83"/>
<path d="M18.1756 4.84564C18.1477 4.86763 18.1198 4.88963 18.091 4.91229C17.9989 4.98677 17.9074 5.06162 17.8167 5.13787C17.7924 5.15828 17.7681 5.17869 17.743 5.19972C17.6487 5.28846 17.6421 5.34011 17.627 5.47112C17.6456 5.65677 17.7159 5.74703 17.8475 5.87103C17.9807 5.95636 17.9807 5.95636 18.1269 6.02227C18.1984 6.05677 18.1984 6.05677 18.2713 6.09197C18.5355 6.21101 18.8006 6.30116 19.0831 6.36578C19.1283 6.37623 19.1283 6.37623 19.1745 6.3869C19.8375 6.53591 20.5029 6.57498 21.1808 6.5723C21.2389 6.57222 21.297 6.57216 21.3551 6.57212C21.506 6.57197 21.657 6.57157 21.808 6.57111C21.9628 6.57068 22.1176 6.5705 22.2724 6.57029C22.5748 6.56986 22.8772 6.56916 23.1795 6.56829C22.6854 6.89772 21.8867 6.94574 21.3077 6.9698C21.164 6.97463 21.164 6.97463 21.0057 7.01946C20.7891 7.01946 20.5726 7.01946 20.3494 7.01946C20.3494 8.23763 20.3494 9.45579 20.3494 10.7109C20.1058 10.7244 19.8622 10.7379 19.6111 10.7519C19.6111 9.52019 19.6111 8.28849 19.6111 7.01946C19.4217 7.01946 19.2322 7.01946 19.0369 7.01946C18.8648 7.0063 18.6954 6.99122 18.5242 6.97076C18.4787 6.96536 18.4332 6.95996 18.3863 6.9544C17.7678 6.8762 17.1374 6.76831 16.576 6.48626C16.5421 6.47029 16.5082 6.45433 16.4733 6.43788C16.2587 6.32968 16.085 6.20385 15.9608 5.99407C15.9216 5.82304 15.9546 5.75945 16.0377 5.60442C16.4656 5.06653 17.5247 4.81254 18.1756 4.84564Z" fill="#FDC841"/>
<path d="M13.4872 2.98747C13.5467 2.98758 13.5467 2.98758 13.6074 2.9877C14.1943 2.98956 14.7686 3.00651 15.3457 3.12334C15.3833 3.13081 15.421 3.13829 15.4598 3.14599C15.7244 3.19978 15.9865 3.2612 16.248 3.32841C16.279 3.33634 16.31 3.34426 16.3419 3.35243C17.0689 3.54271 17.7599 3.83635 18.4219 4.18974C18.4544 4.20702 18.487 4.22431 18.5205 4.24211C18.6229 4.2968 18.725 4.35207 18.8269 4.40764C18.8749 4.43352 18.8749 4.43352 18.9239 4.45993C18.9535 4.47635 18.9832 4.49277 19.0137 4.5097C19.04 4.52415 19.0664 4.5386 19.0935 4.55349C19.1602 4.5999 19.1602 4.5999 19.2422 4.72295C18.5992 4.82135 18.14 4.87485 17.6006 4.48979C17.4529 4.39147 17.293 4.31836 17.1324 4.24357C17.0997 4.22822 17.067 4.21286 17.0332 4.19703C16.7106 4.04849 16.3816 3.92729 16.043 3.8206C15.9963 3.80553 15.9497 3.79046 15.9017 3.77494C15.7449 3.72869 15.5875 3.6905 15.4277 3.65654C15.3929 3.64902 15.358 3.6415 15.3221 3.63375C14.1365 3.39093 12.7478 3.34733 11.5723 3.65654C11.5357 3.66576 11.4992 3.67499 11.4616 3.6845C10.9818 3.80731 10.5116 3.95748 10.0547 4.14873C10.0277 4.16001 10.0007 4.17129 9.97284 4.18291C9.27151 4.48175 8.61962 4.88706 8.03323 5.37327C7.94218 5.44519 7.86367 5.49782 7.75781 5.54326C7.75427 5.51011 7.75073 5.47696 7.74708 5.4428C7.74131 5.39897 7.73555 5.35514 7.72961 5.30998C7.72438 5.26668 7.71915 5.22338 7.71375 5.17876C7.66708 5.0218 7.59269 4.95222 7.4707 4.84599C8.70899 4.03667 10.0094 3.45182 11.4646 3.15153C11.4937 3.14549 11.5229 3.13944 11.5529 3.13321C12.1945 3.01076 12.8358 2.98492 13.4872 2.98747Z" fill="#D9D9D9"/>
<path d="M20.3496 7.01953C20.5957 7.01953 20.5957 7.01953 20.6623 7.07494C20.679 7.10091 20.6958 7.12688 20.713 7.15363C20.7323 7.18292 20.7516 7.2122 20.7715 7.24237C20.7913 7.27458 20.8111 7.30678 20.8315 7.33997C20.8527 7.37323 20.8739 7.40649 20.8958 7.44076C22.1435 9.43186 22.4387 11.5999 22.1953 13.9102C22.1818 13.9102 22.1682 13.9102 22.1543 13.9102C22.1477 13.8752 22.141 13.8403 22.1342 13.8043C22.0627 13.448 21.9638 13.1154 21.838 12.7742C21.8196 12.7235 21.8011 12.6728 21.7821 12.6206C21.7434 12.5146 21.7044 12.4086 21.6652 12.3028C21.6152 12.1675 21.5661 12.0319 21.5173 11.8962C21.4701 11.7657 21.422 11.6355 21.374 11.5053C21.3566 11.4568 21.3392 11.4083 21.3213 11.3584C21.3045 11.3134 21.2877 11.2685 21.2703 11.2222C21.2558 11.1827 21.2414 11.1433 21.2265 11.1027C21.1329 10.9295 21.0116 10.8507 20.829 10.7853C20.6711 10.7505 20.5101 10.731 20.3496 10.7109C20.3496 9.49277 20.3496 8.27461 20.3496 7.01953Z" fill="#C4C4C4"/>
<path d="M4.47656 7.4707C4.64662 7.48518 4.77501 7.51269 4.92805 7.58878C5.15267 7.69117 5.38111 7.73878 5.62244 7.78601C5.68521 7.79906 5.68521 7.79906 5.74925 7.81237C6.13708 7.89082 6.51847 7.92803 6.91395 7.93021C6.94929 7.93049 6.98464 7.93078 7.02106 7.93108C7.1342 7.93179 7.24733 7.93206 7.36047 7.93213C7.39909 7.93216 7.43771 7.93218 7.4775 7.93221C8.37111 7.93119 9.28268 7.8796 10.0957 7.4707C10.2265 7.47375 10.2791 7.49289 10.3777 7.57837C10.448 7.72672 10.4312 7.80704 10.3828 7.96289C10.0673 8.4066 9.24721 8.50265 8.74061 8.59305C8.40559 8.64824 8.10113 8.66016 7.75781 8.66016C7.75781 9.36398 7.75781 10.0678 7.75781 10.793C7.51418 10.7659 7.27055 10.7388 7.01953 10.7109C7.01953 10.0342 7.01953 9.35742 7.01953 8.66016C6.89771 8.66016 6.7759 8.66016 6.65039 8.66016C5.91755 8.61588 4.9823 8.5241 4.40222 8.02153C4.3275 7.93157 4.31517 7.87512 4.3125 7.75781C4.35863 7.65413 4.41454 7.56656 4.47656 7.4707Z" fill="#FDA341"/>
<path d="M7.51158 13.5819C7.54327 13.5926 7.57496 13.6034 7.60761 13.6144C7.94292 13.7295 8.26604 13.8636 8.57799 14.0331C8.51119 14.2181 8.41728 14.3814 8.31908 14.5509C8.1881 14.78 8.06816 15.0097 7.9626 15.2519C7.91218 15.3675 7.85632 15.4795 7.79869 15.5917C7.53376 15.5696 7.31008 15.5034 7.06298 15.4071C7.0255 15.3926 6.98802 15.3781 6.94941 15.3631C6.41767 15.152 5.93376 14.9044 5.50182 14.5253C5.46671 14.4985 5.4316 14.4718 5.39543 14.4442C5.30136 14.3651 5.24614 14.2994 5.18395 14.1946C5.16724 14.167 5.15053 14.1395 5.13332 14.1111C5.04454 13.9448 5.0223 13.8088 5.05065 13.6229C5.61591 13.0069 6.83287 13.3481 7.51158 13.5819Z" fill="#F7F7F7"/>
<path d="M21.2371 13.3258C21.278 13.325 21.3189 13.3242 21.3611 13.3233C21.654 13.3217 21.8443 13.3615 22.0907 13.5258C22.1905 13.6775 22.1838 13.8163 22.1548 13.9924C21.8661 14.6621 21.0301 15.056 20.3891 15.3142C19.6528 15.592 19.6528 15.592 19.4067 15.592C19.3884 15.5493 19.37 15.5067 19.3511 15.4628C19.0886 14.8447 19.0886 14.8447 18.7431 14.2708C18.7095 14.1974 18.7095 14.1974 18.7168 14.1138C18.808 13.8959 19.0214 13.8358 19.2247 13.7514C19.2591 13.737 19.2936 13.7227 19.329 13.7079C19.565 13.612 19.8023 13.5303 20.0476 13.4617C20.0767 13.4536 20.1057 13.4454 20.1357 13.437C20.4995 13.3409 20.8622 13.3278 21.2371 13.3258Z" fill="#F7F7F7"/>
<path d="M12.4744 9.52136C12.4699 9.55099 12.4653 9.58062 12.4607 9.61116C12.3575 10.291 12.2752 10.968 12.2283 11.6542C12.194 11.6632 12.1597 11.6721 12.1243 11.6814C11.5721 11.8318 11.0663 12.0386 10.5655 12.3147C10.3493 12.4335 10.3493 12.4335 10.2596 12.4335C10.2544 12.1342 10.2508 11.835 10.2483 11.5357C10.2473 11.434 10.2459 11.3322 10.2441 11.2305C10.2416 11.084 10.2404 10.9377 10.2395 10.7912C10.2385 10.7459 10.2374 10.7005 10.2363 10.6537C10.2362 10.3006 10.2362 10.3006 10.3561 10.1519C10.8869 9.67599 11.7801 9.50689 12.4744 9.52136Z" fill="#E11D5A"/>
<path d="M20.3493 15.3047C20.3579 16.1065 20.3644 16.9084 20.3684 17.7102C20.3703 18.0826 20.3729 18.4549 20.3771 18.8272C20.3808 19.1518 20.3832 19.4764 20.384 19.801C20.3845 19.9728 20.3856 20.1446 20.3883 20.3164C20.3908 20.4783 20.3916 20.6401 20.3911 20.802C20.3912 20.8612 20.3919 20.9205 20.3933 20.9797C20.4034 21.4247 20.4034 21.4247 20.2716 21.6032C20.1787 21.6877 20.0854 21.7579 19.9802 21.8262C19.9416 21.8545 19.9031 21.8829 19.8634 21.912C19.8334 21.9311 19.8034 21.9501 19.7725 21.9697C19.7416 21.9896 19.7107 22.0095 19.6788 22.03C19.6564 22.0439 19.6341 22.0579 19.611 22.0723C19.6081 21.6772 19.606 21.2821 19.6046 20.887C19.604 20.7034 19.6031 20.5199 19.6017 20.3364C19.6004 20.1587 19.5997 19.9811 19.5993 19.8034C19.5991 19.7362 19.5987 19.669 19.598 19.6018C19.5942 19.2025 19.6209 18.833 19.7063 18.4423C19.7491 18.2214 19.7491 18.0053 19.7443 17.781C19.7438 17.737 19.7433 17.693 19.7428 17.6476C19.7376 17.0717 19.7376 17.0717 19.6495 16.5044C19.5789 16.194 19.6048 15.8671 19.611 15.5508C19.7263 15.5097 19.8417 15.4687 19.9571 15.4277C19.99 15.416 20.0229 15.4043 20.0568 15.3922C20.0882 15.3811 20.1195 15.37 20.1518 15.3585C20.1807 15.3482 20.2097 15.3379 20.2396 15.3273C20.3083 15.3047 20.3083 15.3047 20.3493 15.3047Z" fill="#FDC840"/>
<path d="M19.5703 19.1602C19.5838 19.1602 19.5974 19.1602 19.6113 19.1602C19.6218 19.5342 19.6298 19.9081 19.6347 20.2822C19.6371 20.456 19.6402 20.6296 19.6454 20.8033C19.6503 20.9711 19.653 21.1389 19.6541 21.3068C19.655 21.3706 19.6566 21.4345 19.659 21.4983C19.6774 21.9966 19.6774 21.9966 19.5157 22.1819C19.4006 22.267 19.2872 22.3348 19.1602 22.4004C19.0864 22.4448 19.0127 22.4894 18.9392 22.5343C18.8669 22.5754 18.7944 22.6162 18.7218 22.6567C18.6855 22.6774 18.6492 22.698 18.6118 22.7192C18.0143 23.0566 18.0143 23.0566 17.8887 23.0566C17.8801 23.0199 17.8714 22.9833 17.8626 22.9454C17.7473 22.5435 17.5748 22.3575 17.2264 22.125C17.092 22.0318 16.9668 21.927 16.8402 21.8236C16.579 21.613 16.313 21.4101 16.043 21.2109C16.1041 21.0763 16.1819 20.9677 16.2737 20.8521C16.2996 20.8193 16.3255 20.7865 16.3522 20.7527C16.372 20.728 16.3917 20.7032 16.4121 20.6777C16.5643 20.7451 16.6862 20.8397 16.8171 20.9418C16.8402 20.9597 16.8633 20.9776 16.8871 20.996C17.0117 21.0928 17.1355 21.1905 17.259 21.2886C17.5168 21.4932 17.7735 21.6921 18.0527 21.8672C18.8053 21.2117 19.3497 20.1233 19.5703 19.1602Z" fill="#999999"/>
<path d="M7.01972 15.3867C7.09134 15.4062 7.16295 15.4257 7.23457 15.4452C7.27445 15.4561 7.31433 15.4669 7.35542 15.4781C7.48992 15.515 7.62401 15.5531 7.758 15.5918C7.73277 15.8247 7.69133 16.0465 7.63495 16.2737C7.62035 16.3332 7.60582 16.3927 7.59137 16.4522C7.58497 16.478 7.57858 16.5038 7.57199 16.5304C7.52395 16.749 7.50537 16.9592 7.50502 17.1826C7.50488 17.2128 7.50474 17.2431 7.5046 17.2743C7.50439 17.3381 7.5043 17.402 7.5043 17.4659C7.50422 17.5618 7.50347 17.6578 7.50269 17.7537C7.50075 18.2327 7.54825 18.6704 7.67814 19.1338C7.76926 19.4826 7.77932 19.8129 7.77402 20.1714C7.77371 20.234 7.77348 20.2965 7.77332 20.359C7.7727 20.5211 7.7711 20.6832 7.76926 20.8453C7.76757 21.0116 7.76683 21.178 7.76601 21.3444C7.76427 21.6691 7.76148 21.9937 7.758 22.3184C7.68872 22.2749 7.61952 22.2313 7.55036 22.1876C7.49254 22.1512 7.49254 22.1512 7.43356 22.1141C7.37083 22.0731 7.37083 22.0731 7.30683 22.0312C7.28104 22.0201 7.25525 22.0089 7.22868 21.9973C7.13433 21.9493 7.08304 21.9118 7.01972 21.8262C6.97671 21.622 6.98343 21.4192 6.98712 21.2118C6.9872 21.1483 6.98716 21.0848 6.987 21.0214C6.98691 20.8492 6.9886 20.6772 6.99061 20.5051C6.9924 20.3251 6.99257 20.1452 6.99291 19.9653C6.9938 19.6246 6.99616 19.284 6.99904 18.9434C7.00225 18.5556 7.00383 18.1677 7.00527 17.7799C7.00827 16.9821 7.01332 16.1844 7.01972 15.3867Z" fill="#FDC840"/>
<path d="M7.01953 10.7031C7.06696 10.7037 7.11438 10.7042 7.16325 10.7048C7.27942 10.7062 7.39556 10.7082 7.51172 10.7108C7.44495 10.8848 7.35885 11.0376 7.2605 11.1953C7.06393 11.5166 6.89539 11.848 6.73242 12.1874C6.71603 12.2195 6.69964 12.2516 6.68275 12.2848C6.61046 12.4328 6.5578 12.5844 6.51308 12.7428C6.50355 12.7766 6.49402 12.8103 6.4842 12.8451C6.44286 12.9947 6.4028 13.1446 6.36328 13.2948C6.31036 13.2997 6.25743 13.3047 6.2029 13.3098C6.13246 13.3168 6.06202 13.3237 5.99158 13.3307C5.93943 13.3355 5.93943 13.3355 5.88623 13.3404C5.59262 13.3699 5.34219 13.415 5.0918 13.5819C5.18006 13.2742 5.2826 12.9732 5.39156 12.6723C5.4083 12.6261 5.42503 12.5798 5.44227 12.5321C5.47747 12.435 5.51274 12.3379 5.54807 12.2408C5.60198 12.0924 5.65535 11.9437 5.70871 11.7951C5.7431 11.7004 5.77752 11.6057 5.81197 11.5111C5.82779 11.4668 5.8436 11.4225 5.85989 11.3768C6.03578 10.898 6.03578 10.898 6.29919 10.76C6.53372 10.6827 6.77548 10.6976 7.01953 10.7031Z" fill="#E11E5A"/>
<path d="M18.5447 11.0801C18.535 11.1453 18.535 11.1453 18.5251 11.2119C18.4134 12.1163 18.489 12.8881 19.0598 13.6234C19.1055 13.6791 19.1529 13.7333 19.2009 13.7871C19.1226 13.8296 19.0439 13.8713 18.9651 13.9127C18.9213 13.936 18.8775 13.9594 18.8324 13.9834C18.7087 14.0332 18.7087 14.0332 18.6187 14.0302C18.5212 13.9802 18.4797 13.9226 18.4165 13.8333C18.0965 13.4044 17.7303 13.0026 17.2674 12.7257C16.9674 12.5414 16.9674 12.5414 16.9024 12.3471C16.8865 12.1497 16.8956 12.0063 17.0179 11.8458C17.1252 11.7553 17.2343 11.6846 17.3552 11.6133C17.4241 11.5709 17.4241 11.5709 17.4944 11.5277C18.2394 11.0801 18.2394 11.0801 18.5447 11.0801Z" fill="#E21E5A"/>
<path d="M7.7576 19.6113C7.85758 19.7113 7.87989 19.7933 7.92679 19.9266C8.23589 20.7464 8.77615 21.662 9.51182 22.1657C9.56229 22.2363 9.56229 22.2363 9.55652 22.3674C9.51922 22.5325 9.47208 22.6894 9.41617 22.849C9.40658 22.877 9.39698 22.9051 9.38709 22.934C9.36369 23.0023 9.33998 23.0705 9.3162 23.1387C9.12327 23.0795 8.94486 23.0011 8.76505 22.9105C8.73689 22.8964 8.70874 22.8823 8.67972 22.8677C7.91974 22.4805 7.91974 22.4805 7.7576 22.3184C7.75374 22.234 7.75279 22.1496 7.75295 22.0652C7.75294 22.0388 7.75294 22.0124 7.75293 21.9852C7.75296 21.8975 7.75328 21.8099 7.7536 21.7222C7.75368 21.6616 7.75373 21.6009 7.75377 21.5403C7.75393 21.3804 7.75433 21.2205 7.75479 21.0607C7.75521 20.8976 7.75539 20.7346 7.7556 20.5716C7.75604 20.2515 7.75674 19.9314 7.7576 19.6113Z" fill="#D9D9D9"/>
<path d="M16.9863 22.7695C17.1168 22.9059 17.1389 23.0439 17.1698 23.2237C17.1769 23.2498 17.1841 23.2759 17.1914 23.3027C17.232 23.323 17.232 23.323 17.2734 23.3438C16.7924 23.5152 16.3117 23.6782 15.8123 23.7872C15.7787 23.7947 15.7452 23.8022 15.7106 23.8099C14.9812 23.961 14.2567 24.0227 13.5128 24.0179C13.4514 24.0178 13.4514 24.0178 13.3888 24.0176C12.7296 24.0149 12.0956 23.9745 11.4492 23.8359C11.4102 23.8278 11.3713 23.8197 11.3311 23.8113C10.856 23.7106 10.3923 23.5789 9.93164 23.4258C9.95871 23.4122 9.98578 23.3987 10.0137 23.3848C10.039 23.3048 10.039 23.3048 10.0547 23.2104C10.083 23.0694 10.1182 22.9423 10.1777 22.8105C10.3613 22.8339 10.4968 22.9107 10.652 23.0054C11.0749 23.2544 11.5124 23.4108 11.9824 23.5488C12.0349 23.566 12.0349 23.566 12.0885 23.5834C12.5731 23.7403 13.068 23.7721 13.5743 23.7719C13.6184 23.7719 13.6184 23.7719 13.6634 23.7719C14.2157 23.7705 14.7316 23.7026 15.2637 23.5488C15.3168 23.5337 15.3168 23.5337 15.371 23.5182C15.8774 23.3686 16.607 23.1489 16.9863 22.7695Z" fill="#8C8C8C"/>
<path d="M21.9902 14.1973C22.056 14.3609 22.0022 14.4945 21.9492 14.6536C21.9399 14.6822 21.9306 14.7109 21.921 14.7404C21.7291 15.3197 21.4986 15.8739 21.2109 16.4121C21.1857 16.4596 21.1605 16.5072 21.1345 16.5561C20.9188 16.9479 20.6732 17.336 20.3906 17.6836C20.3771 17.6836 20.3636 17.6836 20.3496 17.6836C20.3496 16.8986 20.3496 16.1135 20.3496 15.3047C20.5662 15.1964 20.7827 15.0881 21.0059 14.9766C21.5726 14.6712 21.5726 14.6712 21.9902 14.1973Z" fill="#E3E3E3"/>
<path d="M7.55273 4.88629C7.66799 4.97974 7.7106 5.03177 7.75781 5.1734C7.76279 5.29495 7.76553 5.4155 7.76614 5.53709C7.76638 5.57284 7.76661 5.6086 7.76685 5.64544C7.76724 5.72108 7.76751 5.79672 7.76767 5.87236C7.76806 5.98786 7.76934 6.10333 7.77063 6.21881C7.7709 6.29235 7.77111 6.36589 7.77127 6.43943C7.77178 6.47388 7.77228 6.50832 7.77281 6.5438C7.77189 6.78621 7.72851 6.92536 7.55273 7.10113C7.26907 7.13368 7.26907 7.13368 7.11214 7.01878C6.99004 6.85698 6.99532 6.7513 7.00671 6.55511C7.00764 6.52474 7.00856 6.49436 7.00952 6.46307C7.01192 6.38861 7.0156 6.31419 7.01953 6.2398C6.99661 6.24229 6.9737 6.24477 6.95009 6.24733C6.84423 6.2587 6.73834 6.26976 6.63245 6.28082C6.5784 6.28669 6.5784 6.28669 6.52326 6.29267C6.29078 6.31669 6.06379 6.32564 5.83008 6.32183C6.14588 5.93775 6.49094 5.59872 6.88767 5.29933C6.98689 5.20658 7.01826 5.13663 7.06055 5.00933C7.20361 4.83517 7.34152 4.83025 7.55273 4.88629Z" fill="#FEDC7C"/>
<path d="M16.4121 20.6777C16.5643 20.7451 16.6862 20.8397 16.8171 20.9418C16.852 20.9689 16.852 20.9689 16.8876 20.9965C16.9616 21.0541 17.0355 21.112 17.1094 21.1699C17.133 21.1884 17.1567 21.2069 17.181 21.226C17.3246 21.3384 17.4679 21.4512 17.6112 21.564C17.7071 21.6396 17.8031 21.715 17.8992 21.7905C17.9465 21.8277 17.9939 21.865 18.0412 21.9023C18.1674 22.0017 18.2941 22.1003 18.4216 22.198C18.4482 22.2186 18.4748 22.2392 18.5023 22.2604C18.5537 22.3 18.6053 22.3395 18.6571 22.3788C18.7169 22.4251 18.7747 22.474 18.832 22.5234C18.832 22.5505 18.832 22.5776 18.832 22.6055C18.6903 22.6809 18.5484 22.756 18.4065 22.8311C18.3661 22.8526 18.3257 22.8741 18.2841 22.8963C18.2455 22.9166 18.2069 22.937 18.1671 22.9579C18.1315 22.9768 18.0958 22.9958 18.0591 23.0152C17.9707 23.0566 17.9707 23.0566 17.8887 23.0566C17.8801 23.0199 17.8714 22.9833 17.8626 22.9454C17.7473 22.5435 17.5748 22.3575 17.2264 22.125C17.092 22.0318 16.9668 21.927 16.8402 21.8236C16.579 21.613 16.313 21.4101 16.043 21.2109C16.1041 21.0763 16.1819 20.9677 16.2737 20.8521C16.2996 20.8193 16.3255 20.7865 16.3522 20.7527C16.372 20.728 16.3917 20.7032 16.4121 20.6777Z" fill="#503772"/>
<path d="M20.1035 3.77976C20.2406 3.82927 20.2653 3.85853 20.3495 3.98484C20.3608 4.06649 20.3608 4.06649 20.3621 4.16056C20.3628 4.19589 20.3634 4.23122 20.3641 4.26762C20.3644 4.32472 20.3644 4.32472 20.3648 4.38298C20.3653 4.44192 20.3653 4.44192 20.3659 4.50206C20.3665 4.58526 20.3669 4.66845 20.367 4.75165C20.3675 4.87859 20.3695 5.00546 20.3716 5.13239C20.372 5.21327 20.3723 5.29416 20.3725 5.37504C20.3733 5.41286 20.3741 5.45068 20.3749 5.48964C20.3736 5.67022 20.3666 5.79265 20.2509 5.93643C20.1082 6.06947 20.1082 6.06947 19.9804 6.06638C19.9542 6.06701 19.928 6.06765 19.9009 6.0683C19.7624 6.01478 19.6824 5.9156 19.6113 5.78952C19.5814 5.65215 19.5815 5.51813 19.5826 5.37792C19.5823 5.3387 19.582 5.29948 19.5817 5.25907C19.5814 5.17644 19.5816 5.09381 19.5823 5.01118C19.5831 4.88484 19.5814 4.75868 19.5796 4.63235C19.5796 4.5519 19.5797 4.47144 19.58 4.39099C19.5794 4.35334 19.5788 4.3157 19.5781 4.27691C19.5827 4.02299 19.5827 4.02299 19.6636 3.91476C19.8083 3.78774 19.914 3.75093 20.1035 3.77976Z" fill="#FFC83F"/>
<path d="M7.01953 9.31641C7.26316 9.31641 7.5068 9.31641 7.75781 9.31641C7.75781 9.80367 7.75781 10.2909 7.75781 10.793C7.51418 10.7659 7.27055 10.7388 7.01953 10.7109C7.01953 10.2507 7.01953 9.79055 7.01953 9.31641Z" fill="#FEC740"/>
<path d="M16.4121 20.6777C16.5643 20.7451 16.6862 20.8397 16.8171 20.9418C16.852 20.9689 16.852 20.9689 16.8876 20.9965C16.9616 21.0541 17.0355 21.112 17.1094 21.1699C17.133 21.1884 17.1567 21.2069 17.181 21.226C17.3246 21.3384 17.4679 21.4512 17.6112 21.564C17.7071 21.6396 17.8031 21.715 17.8992 21.7905C17.9465 21.8277 17.9939 21.865 18.0412 21.9023C18.1674 22.0017 18.2941 22.1003 18.4216 22.198C18.4482 22.2186 18.4748 22.2392 18.5023 22.2604C18.5537 22.3 18.6053 22.3395 18.6571 22.3788C18.7169 22.4251 18.7747 22.474 18.832 22.5234C18.832 22.5505 18.832 22.5776 18.832 22.6055C18.6157 22.7376 18.6157 22.7376 18.5449 22.7695C18.4629 22.7285 18.4629 22.7285 18.374 22.639C18.242 22.5077 18.1026 22.3915 17.9579 22.2748C17.9149 22.24 17.9149 22.24 17.8711 22.2045C17.6478 22.0248 17.42 21.8521 17.1898 21.6815C16.9643 21.5139 16.7445 21.3399 16.5263 21.163C16.422 21.0787 16.3187 20.9983 16.207 20.9238C16.2747 20.8426 16.3424 20.7614 16.4121 20.6777Z" fill="#6C5094"/>
<path d="M14.9767 19.8164C15.024 19.911 15.0177 19.9628 15.0177 20.0676C15.036 20.2437 15.0893 20.319 15.2202 20.4368C15.2887 20.4907 15.3579 20.5437 15.4278 20.5957C15.4612 20.6235 15.4947 20.6513 15.5291 20.68C15.7461 20.851 15.8952 20.9138 16.1728 20.8929C16.2101 20.8879 16.2101 20.8879 16.2481 20.8828C16.1354 21.0905 15.9885 21.2975 15.756 21.375C15.5792 21.4079 15.4812 21.367 15.3355 21.2725C15.27 21.2254 15.2051 21.1775 15.1407 21.1289C15.1042 21.1023 15.0678 21.0756 15.0302 21.0482C14.6681 20.7737 14.6681 20.7737 14.6075 20.5547C14.5897 20.251 14.7976 20.0419 14.9767 19.8164Z" fill="#E2E2E2"/>
<path d="M7.01953 5.21484C7.01953 5.55322 7.01953 5.8916 7.01953 6.24023C6.89179 6.25377 6.76406 6.2673 6.63245 6.28125C6.59298 6.28553 6.55352 6.28982 6.51285 6.29423C6.28392 6.31777 6.06021 6.32601 5.83008 6.32227C6.74063 5.21484 6.74062 5.21484 7.01953 5.21484Z" fill="#D9D9D9"/>
<path d="M9.60352 22.3184C9.69506 22.3782 9.78616 22.4385 9.87669 22.4999C9.95037 22.5495 10.0253 22.5971 10.1008 22.6439C10.1777 22.7285 10.1777 22.7285 10.1777 22.8593C10.1309 23.0376 10.0762 23.2113 10.0137 23.3848C9.76013 23.3627 9.54909 23.2803 9.31641 23.1797C9.34194 22.8988 9.39992 22.522 9.60352 22.3184Z" fill="#F2F5F5"/>
<path d="M19.6113 7.01953C19.855 7.01953 20.0986 7.01953 20.3496 7.01953C20.3496 7.2767 20.3496 7.53387 20.3496 7.79883C20.106 7.79883 19.8623 7.79883 19.6113 7.79883C19.6113 7.54166 19.6113 7.28449 19.6113 7.01953Z" fill="#FEA340"/>
<path d="M17.5874 22.3965C17.7262 22.4609 17.7468 22.5391 17.8016 22.6796C17.8192 22.723 17.8369 22.7664 17.8551 22.8111C17.9047 22.9915 17.9047 22.9915 17.8477 23.0974C17.7522 23.1583 17.7522 23.1583 17.6324 23.2102C17.5933 23.2278 17.5541 23.2453 17.5138 23.2634C17.3978 23.3021 17.3126 23.3105 17.1915 23.3025C17.1706 23.2454 17.1501 23.1881 17.1299 23.1308C17.1185 23.0989 17.1071 23.067 17.0953 23.0341C17.0652 22.9214 17.0503 22.8441 17.0684 22.7283C17.1509 22.635 17.1509 22.635 17.2607 22.5489C17.2964 22.5198 17.3321 22.4907 17.3688 22.4607C17.4786 22.4002 17.4786 22.4002 17.5874 22.3965Z" fill="#F2F5F5"/>
<path d="M7.01953 15.3867C7.26605 15.4537 7.51239 15.5209 7.75781 15.5918C7.73519 15.8067 7.69919 16.0009 7.63477 16.207C7.38511 16.1851 7.26619 16.1487 7.01953 16.043C7.01953 15.8264 7.01953 15.6098 7.01953 15.3867Z" fill="#FEA341"/>
<path d="M20.3496 15.3047C20.3496 15.4942 20.3496 15.6837 20.3496 15.8789C19.842 16.084 19.842 16.084 19.6113 16.084C19.6113 15.908 19.6113 15.7321 19.6113 15.5508C19.7267 15.5097 19.842 15.4687 19.9574 15.4277C19.9903 15.416 20.0232 15.4043 20.0571 15.3922C20.0885 15.3811 20.1198 15.37 20.1521 15.3585C20.1811 15.3482 20.2101 15.3379 20.2399 15.3273C20.3086 15.3047 20.3086 15.3047 20.3496 15.3047Z" fill="#FEA442"/>
<path d="M17.7246 22.5234C17.9096 22.6243 18.0603 22.7532 18.2168 22.8926C18.1078 22.9821 18.0258 23.027 17.8887 23.0566C17.8612 22.9832 17.8339 22.9097 17.8066 22.8362C17.7914 22.7953 17.7762 22.7543 17.7605 22.7122C17.7246 22.6055 17.7246 22.6055 17.7246 22.5234Z" fill="#616161"/>
<path d="M19.6113 15.5508C19.6113 15.7403 19.6113 15.9298 19.6113 16.125C19.5457 15.9938 19.5118 15.9054 19.4832 15.7661C19.4763 15.7333 19.4694 15.7006 19.4623 15.6668C19.4574 15.642 19.4524 15.6173 19.4473 15.5918C19.5703 15.5508 19.5703 15.5508 19.6113 15.5508Z" fill="#BEBEBE"/>
</g>
<defs>
<clipPath id="clip0_520_890">
<rect width="21" height="21" fill="white" transform="translate(3 3)"/>
</clipPath>
</defs>
</svg>
