<svg width="27" height="38" viewBox="0 0 27 38" fill="none" xmlns="http://www.w3.org/2000/svg">
<path d="M0.0643003 13.9126C-0.577227 7.80258 3.73972 3.53342 5.97838 2.16259C12.3135 -1.75407 18.3077 0.530648 20.5129 2.16259C25.5649 5.06091 26.8948 9.96326 26.9282 12.0521C27.4895 16.4388 24.6227 21.9091 23.1191 24.0959C20.553 29.4225 15.501 35.5847 13.2957 38C8.00312 31.9683 4.40789 25.5646 3.27185 23.1167C0.545361 18.5734 -0.0025538 15.0876 0.0643003 13.9126Z" fill="#FFD568"/>
<ellipse cx="13.5" cy="14" rx="10.5" ry="11" fill="#F0F0F0"/>
<g clip-path="url(#clip0_520_882)">
<path d="M16.7796 3.44965C16.817 3.46092 16.8545 3.47219 16.8931 3.4838C18.3918 3.94528 19.7673 4.76526 20.9124 5.83051C20.974 5.88407 21.0357 5.93742 21.0977 5.99055C21.4063 6.26084 21.6764 6.55069 21.933 6.87091C21.9993 6.95352 22.0667 7.03535 22.1351 7.11623C22.616 7.68606 22.9932 8.3159 23.3382 8.97504C23.3642 9.02433 23.3642 9.02433 23.3906 9.0746C23.8629 9.98314 24.1772 10.9808 24.3714 11.9848C24.3787 12.0207 24.386 12.0567 24.3935 12.0937C24.6332 13.3294 24.6259 14.7955 24.3714 16.0278C24.3625 16.0719 24.3535 16.1161 24.3443 16.1616C23.93 18.154 22.971 20.3374 21.4124 21.7174C21.1846 21.9211 21.1285 22.0825 21.0893 22.3814C20.9022 23.5001 20.3382 24.5048 19.4143 25.1819C19.3452 25.2309 19.2753 25.2788 19.2054 25.3266C19.1702 25.3517 19.1351 25.3769 19.0989 25.4028C18.8582 25.5621 18.5984 25.6637 18.3294 25.7646C18.2942 25.7778 18.259 25.791 18.2228 25.8046C17.7116 25.9884 17.2259 26.0139 16.6881 26.0135C16.6113 26.0138 16.5345 26.0141 16.4577 26.0144C16.2501 26.0152 16.0426 26.0154 15.835 26.0155C15.705 26.0155 15.575 26.0157 15.445 26.016C14.9903 26.0168 14.5357 26.0172 14.0811 26.0171C13.659 26.017 13.2369 26.018 12.8148 26.0194C12.451 26.0206 12.0873 26.0211 11.7236 26.021C11.5069 26.021 11.2903 26.0212 11.0736 26.0222C10.8696 26.0231 10.6655 26.0231 10.4615 26.0224C10.3872 26.0223 10.3129 26.0225 10.2385 26.0231C9.03902 26.0313 7.97303 25.5871 7.10055 24.7663C6.50922 24.1784 6.03298 23.3255 5.92727 22.4916C5.87494 22.0816 5.77484 21.8607 5.45489 21.5786C5.24972 21.3972 5.08856 21.1842 4.92021 20.9692C4.88471 20.9249 4.84922 20.8807 4.81264 20.8351C3.99949 19.8127 3.40237 18.6575 2.98857 17.4204C2.97678 17.3852 2.96499 17.35 2.95284 17.3138C2.83345 16.9502 2.74297 16.5821 2.6657 16.2075C2.65524 16.1572 2.65524 16.1572 2.64458 16.1059C2.51075 15.4183 2.47609 14.7361 2.47758 14.0372C2.47761 13.994 2.47763 13.9508 2.47766 13.9062C2.48049 12.8115 2.62541 11.7766 2.94365 10.727C2.95468 10.69 2.96571 10.653 2.97708 10.615C3.43267 9.12075 4.26213 7.7348 5.32451 6.59418C5.37807 6.53261 5.43143 6.47085 5.48454 6.40888C5.75484 6.10024 6.04468 5.83015 6.36491 5.57362C6.44751 5.50726 6.52935 5.43993 6.61022 5.37147C7.18005 4.89054 7.8099 4.51339 8.46904 4.1684C8.5019 4.15109 8.53475 4.13377 8.5686 4.11594C9.49418 3.63477 10.5012 3.32908 11.5237 3.1352C11.5589 3.12791 11.5941 3.12062 11.6304 3.11311C13.3002 2.77452 15.1635 2.95862 16.7796 3.44965Z" fill="#F5A96B"/>
<path d="M12.7359 2.99996C12.9731 2.99813 13.2102 2.99682 13.4474 2.99595C13.5278 2.99559 13.6082 2.99509 13.6885 2.99446C14.7516 2.98622 15.7604 3.13973 16.7789 3.44918C16.8163 3.46045 16.8538 3.47172 16.8924 3.48333C18.3911 3.94481 19.7666 4.76479 20.9117 5.83004C20.9733 5.8836 21.035 5.93695 21.097 5.99007C21.4056 6.26037 21.6757 6.55021 21.9323 6.87044C21.9986 6.95304 22.066 7.03488 22.1344 7.11575C22.6153 7.68559 22.9925 8.31543 23.3375 8.97457C23.3634 9.02385 23.3634 9.02385 23.3899 9.07413C23.8622 9.98267 24.1765 10.9804 24.3707 11.9843C24.378 12.0203 24.3853 12.0562 24.3928 12.0932C24.6325 13.329 24.6252 14.795 24.3707 16.0273C24.3618 16.0715 24.3528 16.1156 24.3436 16.1611C23.9293 18.1536 22.9703 20.3369 21.4117 21.7169C21.1839 21.9206 21.1278 22.082 21.0886 22.3809C20.9015 23.4996 20.3375 24.5043 19.4136 25.1815C19.3445 25.2304 19.2746 25.2783 19.2047 25.3261C19.1695 25.3513 19.1344 25.3764 19.0982 25.4023C18.8575 25.5616 18.5977 25.6633 18.3287 25.7641C18.2935 25.7773 18.2583 25.7905 18.2221 25.8042C17.8045 25.9542 17.4096 26.0136 16.9666 26.0087C16.9224 26.0086 16.8782 26.0085 16.8326 26.0083C16.693 26.0079 16.5535 26.0067 16.4139 26.0056C16.3186 26.0051 16.2232 26.0047 16.1279 26.0043C15.8957 26.0034 15.6634 26.0018 15.4312 26C15.4312 25.9851 15.4312 25.9703 15.4312 25.955C15.4715 25.9484 15.5118 25.9418 15.5534 25.935C16.7092 25.7273 17.6617 25.1835 18.3905 24.2524C19.0712 23.26 19.2214 22.2381 19.2188 21.0594C19.2187 20.924 19.2198 20.7886 19.2209 20.6532C19.2249 19.4449 18.9398 18.3364 18.0936 17.4399C17.5983 16.9054 17.3009 16.3303 17.3081 15.5948C17.3362 15.1613 17.4687 14.7412 17.5934 14.3273C17.6754 14.029 17.6857 13.744 17.688 13.4366C17.6886 13.3667 17.6886 13.3667 17.6891 13.2955C17.6897 13.1969 17.6902 13.0982 17.6906 12.9996C17.6911 12.9002 17.692 12.8008 17.6933 12.7014C17.711 11.386 17.4395 10.2824 16.5094 9.31429C16.095 8.9211 15.6268 8.6798 15.1168 8.43551C15.0871 8.42068 15.0575 8.40586 15.0269 8.39059C15.0245 8.92402 15.024 9.45741 15.0259 9.99085C15.0267 10.2386 15.0269 10.4862 15.0255 10.7339C15.0243 10.9731 15.0248 11.2122 15.0264 11.4513C15.0268 11.5425 15.0265 11.6336 15.0255 11.7248C15.001 12.2062 15.001 12.2062 15.1515 12.6468C15.2414 12.7255 15.3271 12.7804 15.4312 12.8379C15.9218 13.4504 16.0762 14.1377 16.0152 14.9043C15.9067 15.4888 15.6099 16.0384 15.1617 16.4316C15.1226 16.4459 15.0835 16.4602 15.0432 16.475C14.8764 16.5456 14.7852 16.6067 14.6676 16.7461C14.5689 17.0743 14.6039 17.4404 14.6095 17.7791C14.6094 17.8814 14.6091 17.9836 14.6086 18.0859C14.6078 18.3546 14.61 18.6231 14.6128 18.8917C14.6151 19.166 14.6147 19.4403 14.6145 19.7147C14.6145 20.2525 14.6176 20.7903 14.6226 21.3281C14.6627 21.3276 14.6627 21.3276 14.7036 21.3272C14.9812 21.3242 15.2588 21.3222 15.5365 21.3207C15.6401 21.32 15.7438 21.3191 15.8475 21.3179C15.9963 21.3163 16.1452 21.3155 16.294 21.3149C16.3405 21.3142 16.387 21.3135 16.4349 21.3128C16.478 21.3128 16.5212 21.3128 16.5656 21.3128C16.6037 21.3125 16.6417 21.3122 16.6808 21.3119C16.8015 21.3318 16.8408 21.3662 16.9137 21.4629C16.9311 21.5709 16.9311 21.5709 16.9315 21.6973C16.9317 21.7429 16.9319 21.7884 16.9321 21.8354C16.9313 21.9067 16.9313 21.9067 16.9305 21.9795C16.931 22.027 16.9315 22.0745 16.9321 22.1235C16.9319 22.1691 16.9317 22.2147 16.9315 22.2616C16.9314 22.3033 16.9312 22.3451 16.9311 22.388C16.9101 22.5181 16.8806 22.55 16.7789 22.6308C16.642 22.6414 16.5138 22.6442 16.377 22.6412C16.2954 22.6411 16.2137 22.6411 16.1321 22.6411C16.0037 22.6404 15.8754 22.6393 15.7471 22.6368C15.1788 22.605 15.1788 22.605 14.6921 22.8495C14.6383 22.9108 14.5851 22.9726 14.5328 23.0351C14.2815 23.1873 14.0191 23.2894 13.7242 23.3046C13.6591 23.3088 13.6591 23.3088 13.5926 23.3131C13.066 23.3329 12.654 23.182 12.2418 22.8554C12.2189 22.8248 12.196 22.7942 12.1725 22.7627C12.0058 22.6314 11.8513 22.6503 11.6448 22.6515C11.6044 22.651 11.564 22.6505 11.5223 22.6499C11.3934 22.6483 11.2645 22.6479 11.1356 22.6477C11.0063 22.6469 10.8771 22.6459 10.7478 22.6444C10.6675 22.6436 10.5871 22.6431 10.5067 22.6432C10.2303 22.6409 10.2303 22.6409 10.1304 22.541C10.1188 22.4291 10.1188 22.4291 10.1185 22.2897C10.1184 22.2397 10.1183 22.1897 10.1182 22.1383C10.1187 22.0597 10.1187 22.0597 10.1192 21.9795C10.1189 21.927 10.1185 21.8746 10.1182 21.8206C10.1183 21.7707 10.1184 21.7207 10.1185 21.6692C10.1186 21.6232 10.1187 21.5772 10.1188 21.5298C10.1304 21.4179 10.1304 21.4179 10.2203 21.3281C10.313 21.3173 10.313 21.3173 10.4284 21.3179C10.4716 21.3179 10.5148 21.3179 10.5592 21.3179C10.6059 21.3184 10.6526 21.3188 10.7007 21.3193C10.7485 21.3194 10.7962 21.3196 10.8454 21.3197C10.9983 21.3202 11.1511 21.3213 11.304 21.3225C11.4075 21.3229 11.511 21.3233 11.6144 21.3237C11.8685 21.3247 12.1225 21.3262 12.3765 21.3281C12.3914 21.506 12.4062 21.6839 12.4215 21.8671C12.4956 21.882 12.5697 21.8968 12.6461 21.9121C12.7309 21.8273 12.697 21.6796 12.6972 21.567C12.6974 21.5351 12.6975 21.5032 12.6976 21.4703C12.698 21.362 12.698 21.2537 12.6981 21.1455C12.6983 21.0676 12.6985 20.9898 12.6988 20.9119C12.6994 20.6969 12.6997 20.4819 12.7 20.2668C12.7004 20.0354 12.701 19.8039 12.7016 19.5724C12.7025 19.171 12.7034 18.7697 12.7041 18.3683C12.7051 17.7879 12.7063 17.2076 12.7077 16.6272C12.7098 15.6858 12.7118 14.7443 12.7136 13.8028C12.7153 12.888 12.7172 11.9732 12.7192 11.0584C12.7193 11.0021 12.7194 10.9457 12.7196 10.8877C12.7202 10.605 12.7208 10.3224 12.7214 10.0397C12.7265 7.69314 12.7313 5.34655 12.7359 2.99996Z" fill="#CBC2C9"/>
<path d="M11.9729 3.08984C11.9729 4.76498 11.9729 6.44012 11.9729 8.16602C11.4615 8.18825 11.4615 8.18825 10.9397 8.21094C9.87086 8.38427 8.91103 8.86409 8.24443 9.73828C7.74388 10.4544 7.4573 11.2006 7.46444 12.0758C7.46442 12.1297 7.46439 12.1836 7.46437 12.2391C7.46448 12.3523 7.46491 12.4654 7.46566 12.5785C7.46672 12.7505 7.46658 12.9225 7.46628 13.0945C7.46653 13.2051 7.46685 13.3157 7.46725 13.4263C7.46721 13.477 7.46717 13.5278 7.46712 13.5802C7.47102 14.0222 7.52558 14.4282 7.69695 14.8369C7.70862 14.8655 7.7203 14.8941 7.73233 14.9235C7.80354 15.0957 7.88446 15.2607 7.96928 15.4265C8.10626 15.724 8.12983 16.0468 8.03017 16.3609C7.90439 16.627 7.72288 16.8326 7.48918 17.01C6.6973 17.634 6.2093 18.5078 5.99834 19.4863C5.98654 19.5392 5.98654 19.5392 5.97451 19.5932C5.95328 19.7117 5.94632 19.8223 5.94419 19.9426C5.9433 19.9876 5.9424 20.0325 5.94148 20.0788C5.94073 20.1268 5.93998 20.1748 5.9392 20.2242C5.9378 20.2985 5.9378 20.2985 5.93637 20.3743C5.93344 20.5322 5.93079 20.6901 5.92815 20.848C5.92621 20.9552 5.92425 21.0624 5.92227 21.1696C5.91746 21.4321 5.91289 21.6945 5.90849 21.957C5.49115 21.7589 5.20001 21.3238 4.92021 20.9688C4.8846 20.9244 4.84899 20.88 4.81229 20.8343C4.00217 19.8079 3.40306 18.6591 2.98857 17.4199C2.97678 17.3847 2.96499 17.3496 2.95284 17.3133C2.83345 16.9498 2.74297 16.5817 2.6657 16.207C2.65524 16.1568 2.65524 16.1568 2.64458 16.1055C2.51075 15.4179 2.47609 14.7356 2.47758 14.0367C2.47761 13.9935 2.47763 13.9503 2.47766 13.9058C2.48049 12.811 2.62541 11.7762 2.94365 10.7266C2.95468 10.6896 2.96571 10.6526 2.97708 10.6145C3.43267 9.12032 4.26213 7.73437 5.32451 6.59375C5.37807 6.53217 5.43143 6.47041 5.48454 6.40845C5.75484 6.0998 6.04468 5.82971 6.36491 5.57318C6.44751 5.50682 6.52935 5.43949 6.61022 5.37103C7.18005 4.8901 7.8099 4.51296 8.46904 4.16797C8.5019 4.15065 8.53475 4.13334 8.5686 4.1155C9.55781 3.60126 10.8412 3.08984 11.9729 3.08984Z" fill="#FDE87C"/>
<path d="M15.0273 3.08984C15.8656 3.19462 15.8656 3.19462 16.2515 3.30042C16.2952 3.31225 16.339 3.32408 16.3841 3.33628C18.0785 3.80424 19.6233 4.63117 20.9121 5.83008C20.9737 5.88363 21.0355 5.93699 21.0974 5.99011C21.4061 6.26041 21.6761 6.55025 21.9327 6.87048C21.999 6.95308 22.0664 7.03492 22.1348 7.11579C22.6158 7.68562 22.9929 8.31547 23.3379 8.97461C23.3639 9.02389 23.3639 9.02389 23.3904 9.07417C23.8627 9.98271 24.1769 10.9804 24.3711 11.9844C24.382 12.0383 24.382 12.0383 24.3932 12.0933C24.6329 13.329 24.6256 14.795 24.3711 16.0273C24.3622 16.0715 24.3532 16.1157 24.344 16.1612C23.8954 18.3186 22.8282 20.4552 21.1816 21.957C21.1668 21.957 21.152 21.957 21.1367 21.957C21.1357 21.8732 21.1357 21.8732 21.1347 21.7877C21.1321 21.5766 21.1286 21.3656 21.1249 21.1545C21.1235 21.0639 21.1222 20.9732 21.1212 20.8826C21.1037 19.3895 20.7462 18.1718 19.6632 17.1077C19.5692 17.0201 19.4724 16.9377 19.3735 16.8556C19.1235 16.641 18.9609 16.3918 18.9244 16.0616C18.9141 15.7555 18.9889 15.5477 19.1265 15.2777C19.4268 14.6514 19.5701 14.0466 19.5736 13.3505C19.5738 13.3099 19.5741 13.2693 19.5744 13.2276C19.5748 13.142 19.5751 13.0564 19.5752 12.9708C19.5757 12.8425 19.5771 12.7142 19.5785 12.5858C19.5856 11.3606 19.3074 10.2922 18.449 9.38645C18.4168 9.35431 18.3847 9.32217 18.3516 9.28906C18.3236 9.26109 18.2956 9.23312 18.2668 9.20431C17.345 8.34438 16.2495 8.2149 15.0273 8.16602C15.0273 6.49088 15.0273 4.81574 15.0273 3.08984Z" fill="#FEE97C"/>
<path d="M14.623 3.04492C14.7565 3.05975 14.8899 3.07457 15.0273 3.08984C15.0273 4.76498 15.0273 6.44012 15.0273 8.16602C15.3979 8.16602 15.7686 8.16602 16.1504 8.16602C17.1801 8.36319 18.2038 8.8697 18.8182 9.7532C19.4368 10.6797 19.6261 11.581 19.6236 12.6795C19.6234 12.8063 19.6245 12.9331 19.6256 13.06C19.6286 13.9136 19.4842 14.6597 19.1012 15.4321C18.9391 15.7776 18.9266 16.0354 19.0507 16.3951C19.1511 16.6208 19.2888 16.7668 19.4746 16.9258C19.504 16.9515 19.5334 16.9773 19.5638 17.0039C19.6244 17.0568 19.685 17.1098 19.7457 17.1627C20.5631 17.8809 21.0374 18.9018 21.1367 19.9805C21.1437 20.1372 21.1451 20.2937 21.1458 20.4506C21.1461 20.4951 21.1464 20.5397 21.1466 20.5855C21.147 20.6796 21.1473 20.7736 21.1475 20.8677C21.1479 21.009 21.1493 21.1504 21.1508 21.2917C21.1579 22.6456 20.8195 23.8057 19.8663 24.8009C19.6636 25.0006 19.4394 25.1659 19.2051 25.3262C19.1524 25.3639 19.1524 25.3639 19.0986 25.4023C18.8579 25.5617 18.5981 25.6633 18.3291 25.7642C18.2939 25.7774 18.2587 25.7906 18.2225 25.8042C17.805 25.9543 17.41 26.0137 16.9671 26.0088C16.9228 26.0086 16.8786 26.0085 16.833 26.0084C16.6934 26.0079 16.5539 26.0068 16.4143 26.0056C16.319 26.0052 16.2236 26.0048 16.1283 26.0044C15.8961 26.0034 15.6639 26.0019 15.4316 26C15.4316 25.9852 15.4316 25.9704 15.4316 25.9551C15.4719 25.9485 15.5122 25.9419 15.5538 25.9351C16.7096 25.7273 17.6621 25.1835 18.3909 24.2524C19.0716 23.2601 19.2218 22.2381 19.2193 21.0594C19.2191 20.924 19.2202 20.7886 19.2213 20.6532C19.2253 19.4449 18.9402 18.3364 18.094 17.4399C17.5987 16.9054 17.3013 16.3304 17.3085 15.5948C17.3367 15.1613 17.4691 14.7413 17.5939 14.3273C17.6758 14.029 17.6861 13.744 17.6884 13.4366C17.689 13.3668 17.689 13.3668 17.6895 13.2955C17.6902 13.1969 17.6906 13.0983 17.691 12.9997C17.6915 12.9003 17.6924 12.8009 17.6938 12.7015C17.7114 11.3861 17.4399 10.2825 16.5098 9.31433C16.0954 8.92114 15.6272 8.67984 15.1172 8.43555C15.0875 8.42072 15.0579 8.4059 15.0273 8.39062C15.0249 8.92406 15.0244 9.45745 15.0263 9.99089C15.0271 10.2386 15.0273 10.4863 15.026 10.734C15.0247 10.9731 15.0252 11.2122 15.0268 11.4514C15.0272 11.5425 15.0269 11.6337 15.0259 11.7248C15.0014 12.2062 15.0014 12.2062 15.1519 12.6468C15.2418 12.7255 15.3275 12.7805 15.4316 12.8379C15.9222 13.4504 16.0766 14.1378 16.0156 14.9043C15.8971 15.5428 15.556 16.1443 15.0279 16.5296C14.6926 16.7461 14.6926 16.7461 14.623 16.7461C14.623 12.2247 14.623 7.70332 14.623 3.04492Z" fill="#EA9B58"/>
<path d="M16.1504 8.16609C17.7169 8.12448 18.9582 8.24057 20.1541 9.36214C20.8926 10.1291 21.2738 11.1178 21.2822 12.1759C21.2826 12.2202 21.2829 12.2645 21.2833 12.3101C21.2839 12.4038 21.2844 12.4976 21.2847 12.5913C21.2853 12.6855 21.2862 12.7796 21.2875 12.8737C21.2993 13.7052 21.2541 14.4969 20.856 15.2441C20.666 15.6029 20.5637 15.9162 20.6735 16.3214C20.8174 16.7131 21.2013 16.9813 21.5016 17.2529C22.0761 17.7792 22.4398 18.4321 22.6641 19.172C22.6749 19.2043 22.6858 19.2367 22.697 19.2701C22.7828 19.5358 22.8657 19.8112 22.7591 20.0812C22.6237 20.3266 22.4436 20.5343 22.2598 20.7442C22.2155 20.798 22.1714 20.8519 22.1276 20.906C22.0102 21.0497 21.8886 21.1892 21.7656 21.3282C21.7284 21.3709 21.6912 21.4137 21.6528 21.4577C21.4897 21.6426 21.3306 21.8044 21.1367 21.9571C21.1361 21.9012 21.1354 21.8454 21.1347 21.7878C21.1321 21.5767 21.1286 21.3656 21.1249 21.1546C21.1235 21.0639 21.1222 20.9733 21.1212 20.8826C21.1037 19.3896 20.7462 18.1719 19.6632 17.1078C19.5692 17.0202 19.4724 16.9378 19.3735 16.8557C19.1235 16.6411 18.9609 16.3919 18.9244 16.0617C18.9141 15.7556 18.9889 15.5478 19.1265 15.2778C19.4268 14.6515 19.5701 14.0467 19.5736 13.3505C19.5738 13.31 19.5741 13.2694 19.5744 13.2276C19.5748 13.1421 19.5751 13.0565 19.5752 12.9709C19.5757 12.8425 19.5771 12.7142 19.5785 12.5859C19.5856 11.3607 19.3074 10.2923 18.449 9.38653C18.4168 9.35439 18.3847 9.32225 18.3516 9.28914C18.3236 9.26117 18.2956 9.2332 18.2668 9.20438C17.6668 8.6446 16.9324 8.38865 16.1504 8.21101C16.1504 8.19619 16.1504 8.18136 16.1504 8.16609Z" fill="#FDDE30"/>
<path d="M12.7359 3C12.9286 3 13.1213 3 13.3199 3C13.3347 9.22617 13.3495 15.4523 13.3648 21.8672C13.4389 21.882 13.5131 21.8968 13.5894 21.9121C13.6708 21.8307 13.6515 21.7049 13.6596 21.5948C13.6661 21.5068 13.6726 21.4188 13.6793 21.3281C13.872 21.3281 14.0647 21.3281 14.2633 21.3281C14.2781 21.506 14.2929 21.6839 14.3082 21.8672C14.3823 21.882 14.4564 21.8968 14.5328 21.9121C14.6142 21.8307 14.5949 21.7049 14.603 21.5948C14.6086 21.5204 14.6086 21.5204 14.6144 21.4445C14.6171 21.4061 14.6198 21.3677 14.6226 21.3281C14.9272 21.3247 15.2319 21.3223 15.5365 21.3207C15.6401 21.32 15.7438 21.3191 15.8475 21.318C15.9963 21.3163 16.1452 21.3156 16.294 21.315C16.3405 21.3143 16.387 21.3136 16.4349 21.3129C16.478 21.3128 16.5212 21.3128 16.5656 21.3128C16.6037 21.3125 16.6417 21.3122 16.6808 21.3119C16.8015 21.3319 16.8408 21.3662 16.9137 21.4629C16.9311 21.5709 16.9311 21.5709 16.9315 21.6973C16.9317 21.7429 16.9319 21.7885 16.9321 21.8354C16.9313 21.9067 16.9313 21.9067 16.9305 21.9795C16.931 22.027 16.9315 22.0746 16.9321 22.1236C16.9319 22.1691 16.9317 22.2147 16.9315 22.2617C16.9314 22.3034 16.9312 22.3451 16.9311 22.3881C16.9101 22.5181 16.8806 22.5501 16.7789 22.6309C16.642 22.6414 16.5138 22.6442 16.377 22.6412C16.2954 22.6411 16.2137 22.6411 16.1321 22.6411C16.0037 22.6405 15.8754 22.6393 15.7471 22.6369C15.1788 22.6051 15.1788 22.6051 14.6921 22.8495C14.6383 22.9108 14.5851 22.9726 14.5328 23.0352C14.2815 23.1873 14.0191 23.2894 13.7242 23.3047C13.6591 23.3089 13.6591 23.3089 13.5926 23.3131C13.066 23.3329 12.654 23.182 12.2418 22.8555C12.2189 22.8249 12.196 22.7943 12.1725 22.7628C12.0058 22.6315 11.8513 22.6504 11.6448 22.6516C11.6044 22.651 11.564 22.6505 11.5223 22.65C11.3934 22.6484 11.2645 22.648 11.1356 22.6477C11.0063 22.647 10.8771 22.646 10.7478 22.6445C10.6675 22.6436 10.5871 22.6432 10.5067 22.6433C10.2303 22.6409 10.2303 22.6409 10.1304 22.541C10.1188 22.4291 10.1188 22.4291 10.1185 22.2897C10.1184 22.2398 10.1183 22.1898 10.1182 22.1383C10.1187 22.0597 10.1187 22.0597 10.1192 21.9795C10.1189 21.9271 10.1185 21.8747 10.1182 21.8207C10.1183 21.7707 10.1184 21.7207 10.1185 21.6693C10.1186 21.6232 10.1187 21.5772 10.1188 21.5298C10.1304 21.418 10.1304 21.418 10.2203 21.3281C10.313 21.3173 10.313 21.3173 10.4284 21.3179C10.4716 21.3179 10.5148 21.3179 10.5592 21.3179C10.6059 21.3184 10.6526 21.3189 10.7007 21.3194C10.7485 21.3195 10.7962 21.3196 10.8454 21.3197C10.9983 21.3202 11.1511 21.3214 11.304 21.3225C11.4075 21.323 11.511 21.3234 11.6144 21.3237C11.8685 21.3247 12.1225 21.3263 12.3765 21.3281C12.3914 21.506 12.4062 21.6839 12.4215 21.8672C12.4956 21.882 12.5697 21.8968 12.6461 21.9121C12.7309 21.8273 12.697 21.6797 12.6972 21.567C12.6974 21.5351 12.6975 21.5032 12.6976 21.4703C12.698 21.362 12.698 21.2538 12.6981 21.1455C12.6983 21.0677 12.6985 20.9898 12.6988 20.9119C12.6994 20.6969 12.6997 20.4819 12.7 20.2669C12.7004 20.0354 12.701 19.8039 12.7016 19.5725C12.7025 19.1711 12.7034 18.7697 12.7041 18.3683C12.7051 17.788 12.7063 17.2076 12.7077 16.6273C12.7098 15.6858 12.7118 14.7443 12.7136 13.8029C12.7153 12.8881 12.7172 11.9733 12.7192 11.0585C12.7193 11.0021 12.7194 10.9458 12.7196 10.8877C12.7202 10.6051 12.7208 10.3224 12.7214 10.0398C12.7265 7.69318 12.7313 5.34659 12.7359 3Z" fill="#BB5E4D"/>
<path d="M10.313 21.3169C10.3511 21.3171 10.3892 21.3173 10.4284 21.3175C10.4716 21.3175 10.5148 21.3175 10.5592 21.3176C10.6059 21.318 10.6526 21.3185 10.7007 21.319C10.7485 21.3191 10.7962 21.3192 10.8454 21.3193C10.9983 21.3198 11.1511 21.321 11.304 21.3221C11.4075 21.3226 11.511 21.323 11.6144 21.3233C11.8685 21.3243 12.1225 21.3259 12.3765 21.3277C12.3988 21.5946 12.3988 21.5946 12.4215 21.8668C12.5326 21.889 12.5326 21.889 12.6461 21.9117C12.7274 21.8304 12.7082 21.7045 12.7163 21.5945C12.7227 21.5064 12.7292 21.4184 12.7359 21.3277C12.9286 21.3277 13.1213 21.3277 13.3199 21.3277C13.3421 21.5946 13.3421 21.5946 13.3648 21.8668C13.4389 21.8816 13.5131 21.8964 13.5894 21.9117C13.6708 21.8304 13.6515 21.7045 13.6596 21.5945C13.6661 21.5064 13.6726 21.4184 13.6793 21.3277C13.872 21.3277 14.0647 21.3277 14.2633 21.3277C14.2855 21.5946 14.2855 21.5946 14.3082 21.8668C14.3823 21.8816 14.4564 21.8964 14.5328 21.9117C14.6142 21.8304 14.5949 21.7045 14.603 21.5945C14.6086 21.52 14.6086 21.52 14.6144 21.4441C14.6171 21.4057 14.6198 21.3673 14.6226 21.3277C14.9272 21.3243 15.2319 21.322 15.5365 21.3203C15.6401 21.3196 15.7438 21.3187 15.8475 21.3176C15.9963 21.3159 16.1452 21.3152 16.294 21.3146C16.3405 21.3139 16.387 21.3132 16.4349 21.3125C16.478 21.3125 16.5212 21.3124 16.5656 21.3124C16.6037 21.3121 16.6417 21.3118 16.6808 21.3115C16.8015 21.3315 16.8408 21.3658 16.9137 21.4625C16.9311 21.5705 16.9311 21.5705 16.9315 21.6969C16.9317 21.7425 16.9319 21.7881 16.9321 21.835C16.9313 21.9063 16.9313 21.9063 16.9305 21.9791C16.931 22.0266 16.9315 22.0742 16.9321 22.1232C16.9319 22.1687 16.9317 22.2143 16.9315 22.2613C16.9314 22.303 16.9312 22.3447 16.9311 22.3877C16.9101 22.5177 16.8806 22.5497 16.7789 22.6305C16.642 22.641 16.5138 22.6438 16.377 22.6408C16.2954 22.6407 16.2137 22.6407 16.1321 22.6407C16.0037 22.6401 15.8754 22.6389 15.7471 22.6365C15.1788 22.6047 15.1788 22.6047 14.6921 22.8491C14.6383 22.9104 14.5851 22.9722 14.5328 23.0348C14.2815 23.1869 14.0191 23.289 13.7242 23.3043C13.6808 23.3071 13.6373 23.3099 13.5926 23.3127C13.066 23.3325 12.654 23.1816 12.2418 22.8551C12.2189 22.8245 12.196 22.7939 12.1725 22.7624C12.0058 22.6311 11.8513 22.65 11.6448 22.6512C11.6044 22.6506 11.564 22.6501 11.5223 22.6496C11.3934 22.648 11.2645 22.6476 11.1356 22.6473C11.0063 22.6466 10.8771 22.6456 10.7478 22.6441C10.6675 22.6432 10.5871 22.6428 10.5067 22.6429C10.2303 22.6405 10.2303 22.6405 10.1304 22.5406C10.1188 22.4288 10.1188 22.4288 10.1185 22.2893C10.1184 22.2394 10.1183 22.1894 10.1182 22.1379C10.1187 22.0593 10.1187 22.0593 10.1192 21.9791C10.1189 21.9267 10.1185 21.8743 10.1182 21.8203C10.1183 21.7703 10.1184 21.7203 10.1185 21.6689C10.1186 21.6228 10.1187 21.5768 10.1188 21.5294C10.1336 21.3872 10.1669 21.334 10.313 21.3169Z" fill="#BB5D4C"/>
<path d="M14.623 3.04492C14.7565 3.05975 14.8899 3.07457 15.0273 3.08984C15.0272 3.16234 15.0272 3.16234 15.027 3.23629C15.0247 4.41204 15.0244 5.58777 15.0263 6.76351C15.0272 7.3321 15.0273 7.90067 15.026 8.46925C15.0248 8.96481 15.0248 9.46035 15.0264 9.9559C15.0272 10.2183 15.0273 10.4807 15.0259 10.7431C15.0247 10.9901 15.0251 11.2371 15.0268 11.4841C15.0272 11.5748 15.0269 11.6654 15.026 11.756C15.0027 12.2208 15.0027 12.2208 15.1519 12.6445C15.2417 12.7233 15.328 12.7794 15.4316 12.8379C15.9222 13.4504 16.0766 14.1378 16.0156 14.9043C15.8971 15.5428 15.556 16.1443 15.0279 16.5296C14.6926 16.7461 14.6926 16.7461 14.623 16.7461C14.623 12.2247 14.623 7.70332 14.623 3.04492Z" fill="#C57A44"/>
<path d="M12.3765 3.04492C12.3765 7.56631 12.3765 12.0877 12.3765 16.7461C11.6869 16.363 11.2796 15.8982 11.0485 15.1354C10.8697 14.4833 10.9853 13.846 11.29 13.2506C11.4258 13.015 11.5933 12.7388 11.8408 12.6096C11.9524 12.4984 11.9493 12.4123 11.9517 12.2591C11.9511 12.2047 11.9511 12.2047 11.9506 12.1491C11.9509 12.1105 11.9513 12.0718 11.9516 12.032C11.9525 11.9021 11.9522 11.7721 11.9518 11.6422C11.9522 11.5492 11.9527 11.4562 11.9532 11.3633C11.9545 11.1105 11.9546 10.8577 11.9546 10.6049C11.9547 10.3408 11.9559 10.0768 11.9569 9.81275C11.9587 9.31255 11.9597 8.81237 11.9602 8.31217C11.961 7.74281 11.9627 7.17344 11.9645 6.60408C11.9682 5.43267 11.9706 4.26126 11.9722 3.08984C12.107 3.04492 12.107 3.04492 12.3765 3.04492Z" fill="#D88A55"/>
<path d="M13.6797 3C13.8724 3 14.0651 3 14.2637 3C14.2637 7.59551 14.2637 12.191 14.2637 16.9258C13.9043 17.0156 13.9043 17.0156 13.6797 17.0156C13.6797 12.3905 13.6797 7.76531 13.6797 3Z" fill="#BB5E4D"/>
<path d="M13.3202 3C13.4388 3 13.5574 3 13.6795 3C13.6816 5.40204 13.6832 7.80408 13.6841 10.2061C13.6842 10.4894 13.6844 10.7727 13.6845 11.056C13.6845 11.1124 13.6845 11.1688 13.6846 11.2269C13.6849 12.1413 13.6857 13.0557 13.6865 13.9701C13.6873 14.9077 13.6878 15.8453 13.688 16.7828C13.6881 17.3618 13.6885 17.9408 13.6892 18.5198C13.6897 18.9163 13.6899 19.3128 13.6897 19.7093C13.6897 19.9384 13.6898 20.1675 13.6903 20.3966C13.6907 20.606 13.6907 20.8155 13.6904 21.0249C13.6904 21.101 13.6905 21.177 13.6908 21.2531C13.6911 21.3559 13.6909 21.4587 13.6906 21.5615C13.6906 21.6188 13.6907 21.676 13.6907 21.7351C13.6795 21.8672 13.6795 21.8672 13.5897 21.957C13.3851 21.9321 13.3851 21.9321 13.3202 21.8672C13.3158 21.7672 13.3146 21.6671 13.3146 21.567C13.3146 21.5351 13.3145 21.5032 13.3145 21.4703C13.3144 21.362 13.3146 21.2538 13.3148 21.1455C13.3148 21.0677 13.3147 20.9898 13.3147 20.9119C13.3146 20.6969 13.3147 20.4819 13.315 20.2669C13.3152 20.0354 13.3151 19.8039 13.3151 19.5725C13.315 19.1711 13.3152 18.7697 13.3154 18.3683C13.3158 17.788 13.3159 17.2076 13.316 16.6273C13.3161 15.6858 13.3164 14.7443 13.3168 13.8029C13.3172 12.8881 13.3175 11.9733 13.3177 11.0585C13.3177 11.0021 13.3177 10.9458 13.3177 10.8877C13.3178 10.6051 13.3179 10.3224 13.3179 10.0398C13.3184 7.69318 13.3192 5.34659 13.3202 3Z" fill="#CAC3CB"/>
<path d="M12.7362 3.00002C12.7382 5.40206 12.7398 7.8041 12.7408 10.2061C12.7409 10.4894 12.741 10.7727 12.7411 11.056C12.7411 11.1124 12.7412 11.1688 12.7412 11.2269C12.7416 12.1413 12.7423 13.0557 12.7431 13.9701C12.744 14.9077 12.7445 15.8453 12.7446 16.7829C12.7448 17.3619 12.7452 17.9408 12.7459 18.5198C12.7464 18.9163 12.7465 19.3128 12.7464 19.7094C12.7463 19.9385 12.7464 20.1675 12.7469 20.3966C12.7473 20.6061 12.7474 20.8155 12.7471 21.0249C12.747 21.101 12.7471 21.177 12.7474 21.2531C12.7478 21.3559 12.7476 21.4587 12.7472 21.5615C12.7473 21.6188 12.7473 21.6761 12.7473 21.7351C12.7362 21.8672 12.7362 21.8672 12.6463 21.9571C12.4417 21.9321 12.4417 21.9321 12.3768 21.8672C12.3724 21.7675 12.3713 21.6676 12.3713 21.5677C12.3712 21.5359 12.3712 21.5041 12.3711 21.4713C12.371 21.3633 12.3712 21.2553 12.3714 21.1472C12.3714 21.0696 12.3714 20.9919 12.3713 20.9142C12.3712 20.6997 12.3714 20.4852 12.3716 20.2707C12.3718 20.0398 12.3717 19.8089 12.3717 19.578C12.3717 19.1775 12.3718 18.7771 12.3721 18.3767C12.3724 17.7977 12.3725 17.2187 12.3726 16.6398C12.3727 15.7005 12.373 14.7613 12.3734 13.8221C12.3738 12.9095 12.3742 11.9968 12.3743 11.0842C12.3744 11.028 12.3744 10.9718 12.3744 10.9139C12.3744 10.6319 12.3745 10.3499 12.3746 10.068C12.375 7.72695 12.3758 5.38595 12.3768 3.04495C12.5084 3.0011 12.5995 2.99633 12.7362 3.00002Z" fill="#CBC2CA"/>
<path d="M11.973 11.3555C11.9821 11.5445 11.9877 11.7334 11.9926 11.9226C11.9952 11.9761 11.9979 12.0295 12.0006 12.0846C12.0082 12.4749 12.0082 12.4749 11.9073 12.6137C11.8275 12.6802 11.7454 12.7362 11.6585 12.793C11.1753 13.3585 10.9747 14.0244 11.0187 14.7581C11.0788 15.3162 11.3429 15.9057 11.7484 16.2969C11.825 16.3444 11.825 16.3444 11.9079 16.3836C12.0952 16.4774 12.2618 16.5656 12.3773 16.7461C12.4576 17.0972 12.4158 17.4693 12.3773 17.8242C11.5035 17.5538 10.8205 16.9418 10.3928 16.1451C9.96581 15.3162 9.85476 14.3776 10.1108 13.4759C10.3295 12.7995 11.1366 11.3555 11.973 11.3555Z" fill="#FEBC85"/>
<path d="M15.0271 11.3555C15.8419 11.671 16.4157 12.392 16.7675 13.1682C17.0984 13.9443 17.1219 14.8759 16.8239 15.668C16.4823 16.5013 15.9352 17.2292 15.1169 17.6445C14.9534 17.7079 14.7885 17.7669 14.6228 17.8242C14.5299 16.897 14.5299 16.897 14.675 16.6611C14.8273 16.515 15.019 16.4337 15.2068 16.3418C15.6046 16.0217 15.8869 15.4025 15.9704 14.9043C16.0451 14.173 15.89 13.4857 15.4287 12.9002C15.3018 12.7542 15.1886 12.6311 15.0271 12.5234C15.0118 12.406 15.0118 12.406 15.0139 12.2592C15.0143 12.2068 15.0148 12.1544 15.0152 12.1004C15.0164 12.0454 15.0175 11.9905 15.0186 11.9338C15.0193 11.8785 15.0199 11.8232 15.0205 11.7663C15.0221 11.6293 15.0243 11.4924 15.0271 11.3555Z" fill="#FEBC85"/>
<path d="M12.7363 12.0742C12.9609 12.1191 12.9609 12.1191 13.3203 12.2988C13.3203 15.2785 13.3203 18.2582 13.3203 21.3281C13.1276 21.3281 12.9349 21.3281 12.7363 21.3281C12.7363 18.2743 12.7363 15.2205 12.7363 12.0742Z" fill="#D78A56"/>
<path d="M12.377 3.04492C12.377 6.08389 12.377 9.12285 12.377 12.2539C12.2435 12.328 12.1101 12.4021 11.9727 12.4785C11.9727 9.38025 11.9727 6.28199 11.9727 3.08984C12.1074 3.04492 12.1074 3.04492 12.377 3.04492Z" fill="#BB5D4C"/>
<path d="M14.623 3.04492C14.7565 3.05975 14.8899 3.07457 15.0273 3.08984C15.0273 6.18811 15.0273 9.28637 15.0273 12.4785C14.8272 12.3673 14.8272 12.3673 14.623 12.2539C14.623 9.21494 14.623 6.17598 14.623 3.04492Z" fill="#BB5D4C"/>
<path d="M14.2637 16.9258C14.2637 18.3786 14.2637 19.8313 14.2637 21.3281C14.071 21.3281 13.8782 21.3281 13.6797 21.3281C13.6797 19.905 13.6797 18.4819 13.6797 17.0156C14.084 16.9258 14.084 16.9258 14.2637 16.9258Z" fill="#F5A96C"/>
<path d="M12.7363 16.9258C12.929 16.9554 13.1218 16.9851 13.3203 17.0156C13.3203 18.4388 13.3203 19.8619 13.3203 21.3281C13.1276 21.3281 12.9349 21.3281 12.7363 21.3281C12.7363 19.8754 12.7363 18.4226 12.7363 16.9258Z" fill="#F5A96C"/>
<path d="M14.2188 12.0742C14.2336 12.0742 14.2484 12.0742 14.2637 12.0742C14.2637 13.6752 14.2637 15.2762 14.2637 16.9258C13.9043 17.0156 13.9043 17.0156 13.6797 17.0156C13.6797 15.548 13.6797 14.0804 13.6797 12.5684C13.9492 12.748 13.9492 12.748 14.1738 13.0625C14.1887 12.7364 14.2035 12.4102 14.2188 12.0742Z" fill="#D68A55"/>
<path d="M15.8359 21.3278C15.9903 21.3239 16.1447 21.3215 16.2992 21.3194C16.3431 21.3182 16.3869 21.3171 16.4321 21.316C16.4742 21.3155 16.5164 21.3151 16.5598 21.3146C16.5986 21.3139 16.6374 21.3132 16.6774 21.3125C16.7793 21.3278 16.7793 21.3278 16.8593 21.3814C16.9331 21.4907 16.9315 21.5656 16.932 21.697C16.9322 21.7654 16.9322 21.7654 16.9325 21.8351C16.932 21.8826 16.9314 21.9302 16.9309 21.9792C16.9314 22.0267 16.932 22.0742 16.9325 22.1232C16.9323 22.1688 16.9321 22.2144 16.932 22.2613C16.9318 22.3031 16.9317 22.3448 16.9315 22.3878C16.9141 22.4958 16.9141 22.4958 16.8593 22.577C16.7537 22.6477 16.6863 22.646 16.5598 22.6437C16.5176 22.6433 16.4755 22.6428 16.4321 22.6424C16.3663 22.6407 16.3663 22.6407 16.2992 22.639C16.2548 22.6383 16.2104 22.6377 16.1647 22.6371C16.0551 22.6355 15.9455 22.6333 15.8359 22.6305C15.8656 22.6157 15.8952 22.6009 15.9258 22.5856C15.9284 22.4012 15.93 22.2169 15.9314 22.0325C15.9321 21.9801 15.9329 21.9276 15.9337 21.8736C15.934 21.8234 15.9343 21.7731 15.9346 21.7214C15.935 21.675 15.9355 21.6287 15.936 21.581C15.9345 21.4521 15.9345 21.4521 15.8359 21.3278Z" fill="#A5503E"/>
<path d="M14.2637 16.9258C14.2637 17.2519 14.2637 17.578 14.2637 17.9141C13.9492 18.0039 13.9492 18.0039 13.6797 18.0039C13.6797 17.6778 13.6797 17.3516 13.6797 17.0156C14.084 16.9258 14.084 16.9258 14.2637 16.9258Z" fill="#FEBC86"/>
<path d="M12.7363 16.9258C12.929 16.9554 13.1218 16.9851 13.3203 17.0156C13.3203 17.3418 13.3203 17.6679 13.3203 18.0039C12.8711 17.959 12.8711 17.959 12.7363 17.9141C12.7363 17.5879 12.7363 17.2618 12.7363 16.9258Z" fill="#FEBC86"/>
<path d="M14.1743 15.8926C14.1891 15.8926 14.2039 15.8926 14.2192 15.8926C14.2192 16.2335 14.2192 16.5745 14.2192 16.9258C13.8654 17.0269 13.8654 17.0269 13.6801 17.0156C13.6741 16.9221 13.6697 16.8285 13.6661 16.7349C13.6635 16.6827 13.6609 16.6306 13.6582 16.5769C13.6801 16.4316 13.6801 16.4316 13.7842 16.3348C13.824 16.3074 13.8638 16.2801 13.9047 16.252C13.9844 16.1579 13.9844 16.1579 14.0507 16.061C14.091 16.0042 14.1319 15.9478 14.1743 15.8926Z" fill="#C57A44"/>
<path d="M13.6797 11.9844C13.7527 11.9907 13.8257 11.9973 13.8987 12.004C13.9393 12.0077 13.98 12.0113 14.0219 12.0151C14.1289 12.0293 14.1289 12.0293 14.2187 12.0742C14.2187 12.4152 14.2187 12.7561 14.2187 13.1074C13.6797 12.5684 13.6797 12.5684 13.6709 12.4318C13.6719 12.3787 13.673 12.3255 13.6741 12.2708C13.6749 12.2174 13.6757 12.164 13.6765 12.109C13.6776 12.0678 13.6786 12.0267 13.6797 11.9844Z" fill="#C57A44"/>
<path d="M13.3203 16.7012C13.3203 16.8049 13.3203 16.9087 13.3203 17.0156C13.2463 17.0105 13.1724 17.0048 13.0985 16.9988C13.0368 16.9941 13.0368 16.9941 12.9737 16.9893C12.9229 16.9801 12.9229 16.9801 12.8711 16.9707C12.8563 16.9411 12.8414 16.9114 12.8262 16.8809C12.9001 16.8508 12.974 16.8209 13.048 16.791C13.0891 16.7743 13.1303 16.7577 13.1727 16.7405C13.2754 16.7012 13.2754 16.7012 13.3203 16.7012Z" fill="#C87E48"/>
<path d="M13.3203 11.9842C13.3203 12.088 13.3203 12.1917 13.3203 12.2986C13.0979 12.2097 13.0979 12.2097 12.8711 12.119C12.8711 12.0893 12.8711 12.0597 12.8711 12.0291C13.0241 11.9941 13.1634 11.9797 13.3203 11.9842Z" fill="#C67945"/>
</g>
<defs>
<clipPath id="clip0_520_882">
<rect width="23" height="23" fill="white" transform="translate(2 3)"/>
</clipPath>
</defs>
</svg>
