<svg width="43" height="43" viewBox="0 0 43 43" fill="none" xmlns="http://www.w3.org/2000/svg">
<circle cx="21.5" cy="21.5" r="21.5" fill="#FDD368"/>
<path d="M32.4984 9.00015C32.2424 9.00015 31.9744 9.08615 31.7794 9.28115L31.3734 9.71915L31.1854 9.56315C31.139 9.51469 31.0832 9.47613 31.0215 9.44978C30.9598 9.42343 30.8935 9.40985 30.8264 9.40985C30.7593 9.40985 30.6929 9.42343 30.6312 9.44978C30.5695 9.47613 30.5138 9.51469 30.4674 9.56315C30.4189 9.60955 30.3803 9.66527 30.354 9.72697C30.3276 9.78867 30.3141 9.85506 30.3141 9.92215C30.3141 9.98924 30.3276 10.0556 30.354 10.1173C30.3803 10.179 30.4189 10.2348 30.4674 10.2812L30.6234 10.4692L30.3734 10.7192L30.1854 10.5622C30.139 10.5137 30.0832 10.4751 30.0215 10.4488C29.9598 10.4224 29.8935 10.4089 29.8264 10.4089C29.7593 10.4089 29.6929 10.4224 29.6312 10.4488C29.5695 10.4751 29.5138 10.5137 29.4674 10.5622C29.4186 10.6086 29.3798 10.6644 29.3532 10.7263C29.3267 10.7882 29.313 10.8548 29.313 10.9222C29.313 10.9895 29.3267 11.0561 29.3532 11.118C29.3798 11.1799 29.4186 11.2357 29.4674 11.2822L29.6234 11.4692L29.4354 11.6562C29.3141 11.7762 29.227 11.9264 29.1831 12.0912C29.1391 12.2561 29.1399 12.4297 29.1854 12.5942L24.8104 16.9692C23.9074 16.1792 22.5414 15.2502 21.0604 15.2502C20.4034 15.2502 19.7284 15.4502 19.0604 15.9062C17.5784 16.9192 17.8624 18.4542 16.9354 19.3442C15.8954 20.3442 13.0524 19.5382 10.4354 22.1562C7.81837 24.7722 8.97837 28.3912 12.3104 31.5942C14.3084 33.6722 16.4584 34.9062 18.4354 34.9062C19.6264 34.9062 20.7634 34.4542 21.7484 33.4692C24.3654 30.8522 23.5594 28.0112 24.5604 26.9692C25.4504 26.0442 27.0154 26.3582 28.0294 24.8752C29.5164 22.7022 28.0814 20.4042 26.9354 19.0942L31.3104 14.7192C31.6404 14.8032 31.9894 14.7282 32.2484 14.4692L32.4354 14.2812L32.6234 14.4382C32.6664 14.4867 32.7192 14.5257 32.7783 14.5525C32.8374 14.5794 32.9015 14.5936 32.9664 14.5942C33.1072 14.5932 33.2419 14.5368 33.3414 14.4372C33.3898 14.3908 33.4284 14.335 33.4547 14.2733C33.4811 14.2116 33.4947 14.1452 33.4947 14.0782C33.4947 14.0111 33.4811 13.9447 33.4547 13.883C33.4284 13.8213 33.3898 13.7655 33.3414 13.7192L33.1854 13.5312L33.4354 13.2812L33.6234 13.4382C33.6664 13.4867 33.7192 13.5257 33.7783 13.5525C33.8374 13.5794 33.9015 13.5936 33.9664 13.5942C34.1072 13.5932 34.2419 13.5368 34.3414 13.4372C34.3898 13.3908 34.4284 13.335 34.4547 13.2733C34.4811 13.2116 34.4947 13.1452 34.4947 13.0782C34.4947 13.0111 34.4811 12.9447 34.4547 12.883C34.4284 12.8213 34.3898 12.7655 34.3414 12.7192L34.1854 12.5312L34.6234 12.1252C34.7162 12.0331 34.7899 11.9236 34.8401 11.8029C34.8904 11.6823 34.9163 11.5529 34.9163 11.4222C34.9163 11.2914 34.8904 11.162 34.8401 11.0414C34.7899 10.9207 34.7162 10.8112 34.6234 10.7192L33.1844 9.28015C33.095 9.18939 32.9881 9.11777 32.8702 9.06963C32.7522 9.02149 32.6257 8.99785 32.4984 9.00015ZM32.4354 10.1882C32.5124 10.1882 32.5954 10.1922 32.6544 10.2502C32.7107 10.3091 32.7422 10.3876 32.7422 10.4692C32.7422 10.5507 32.7107 10.6292 32.6544 10.6882L30.6544 12.6882C30.5963 12.7465 30.5177 12.7799 30.4354 12.7812C30.3533 12.7789 30.2753 12.7453 30.2174 12.6872C30.1613 12.6282 30.13 12.55 30.13 12.4687C30.13 12.3873 30.1613 12.3091 30.2174 12.2502L32.2174 10.2502C32.2754 10.1922 32.3594 10.1882 32.4354 10.1882ZM33.4354 11.1882C33.5124 11.1882 33.5954 11.1912 33.6544 11.2502C33.711 11.309 33.7426 11.3875 33.7426 11.4692C33.7426 11.5508 33.711 11.6293 33.6544 11.6882L31.6544 13.6882C31.596 13.7461 31.5176 13.7795 31.4354 13.7812C31.3535 13.7792 31.2754 13.7459 31.2174 13.6882C31.161 13.6292 31.1296 13.5507 31.1296 13.4692C31.1296 13.3876 31.161 13.3091 31.2174 13.2502L33.2174 11.2502C33.2754 11.1922 33.3594 11.1882 33.4354 11.1882ZM21.0604 16.6552C22.0204 16.6552 23.0344 17.3072 23.8104 17.9682L20.4664 21.3122C20.3924 21.3042 20.3244 21.2802 20.2484 21.2802C19.6191 21.2823 19.0163 21.5332 18.5713 21.9781C18.1264 22.423 17.8755 23.0259 17.8734 23.6552C17.8755 24.2844 18.1264 24.8873 18.5713 25.3322C19.0163 25.7771 19.6191 26.028 20.2484 26.0302C20.8776 26.028 21.4805 25.7771 21.9254 25.3322C22.3704 24.8873 22.6213 24.2844 22.6234 23.6552C22.6234 23.5792 22.5994 23.5112 22.5924 23.4362L25.9664 20.0622C26.8344 21.0682 27.8144 22.6862 26.8734 24.0622C26.5674 24.5082 26.1824 24.6722 25.4984 24.9052C24.8964 25.1102 24.1434 25.3602 23.5294 25.9992C22.8554 26.7002 22.7054 27.6222 22.5294 28.5932C22.3074 29.8122 22.0584 31.1902 20.7484 32.4992C20.0604 33.1872 19.3024 33.5302 18.4354 33.5302C16.9184 33.5302 15.0984 32.4842 13.3104 30.6242C13.3005 30.6133 13.2902 30.603 13.2794 30.5932C11.4344 28.8222 10.3884 27.0102 10.3734 25.5002C10.3634 24.6192 10.7074 23.8552 11.4044 23.1562C12.7144 21.8462 14.0924 21.5962 15.3104 21.3752C16.2814 21.1992 17.2044 21.0182 17.9044 20.3442C18.5384 19.7362 18.7894 19.0012 18.9984 18.4062C19.2384 17.7242 19.3884 17.3722 19.8424 17.0622C20.2304 16.7972 20.6324 16.6552 21.0604 16.6552ZM14.4664 25.2802C14.3842 25.282 14.3061 25.3157 14.2484 25.3742L13.6234 26.0002C13.5661 26.0587 13.534 26.1373 13.534 26.2192C13.534 26.301 13.5661 26.3797 13.6234 26.4382L17.4664 30.2812C17.5844 30.3982 17.7864 30.3982 17.9044 30.2812L18.5294 29.6562C18.5859 29.5975 18.6175 29.5191 18.6175 29.4377C18.6175 29.3562 18.5859 29.2778 18.5294 29.2192L14.6854 25.3752C14.6277 25.3167 14.5495 25.283 14.4674 25.2812L14.4664 25.2802Z" fill="white"/>
</svg>
