<svg width="27" height="38" viewBox="0 0 27 38" fill="none" xmlns="http://www.w3.org/2000/svg">
<path d="M0.0643003 13.9126C-0.577227 7.80258 3.73972 3.53342 5.97838 2.16259C12.3135 -1.75407 18.3077 0.530648 20.5129 2.16259C25.5649 5.06091 26.8948 9.96326 26.9282 12.0521C27.4895 16.4388 24.6227 21.9091 23.1191 24.0959C20.553 29.4225 15.501 35.5847 13.2957 38C8.00312 31.9683 4.40789 25.5646 3.27185 23.1167C0.545361 18.5734 -0.0025538 15.0876 0.0643003 13.9126Z" fill="#2E323A"/>
<ellipse cx="13.5" cy="14" rx="10.5" ry="11" fill="#F3F3F3"/>
<g clipPath="url(#clip0_520_886)">
<path d="M19.8833 6.77587C20.0858 7.04518 20.2331 7.3457 20.3843 7.64599C20.4116 7.69998 20.439 7.75395 20.4664 7.80791C20.5404 7.95362 20.614 8.09947 20.6875 8.24537C20.7336 8.33676 20.7797 8.42814 20.8258 8.5195C20.9704 8.8061 21.1149 9.09279 21.2591 9.37962C21.4249 9.7094 21.5913 10.0388 21.7583 10.368C21.8879 10.6234 22.0168 10.8791 22.1453 11.135C22.2218 11.2875 22.2986 11.4398 22.376 11.5918C22.4489 11.7348 22.521 11.8783 22.5926 12.022C22.6188 12.0743 22.6453 12.1265 22.672 12.1786C22.895 12.6128 23.0552 13.0631 22.9088 13.5545C22.7438 14.0768 22.4327 14.3943 21.9557 14.6536C21.9066 14.6752 21.8572 14.6962 21.8076 14.7167C21.5738 14.817 21.3488 14.9349 21.1227 15.0518C21.0734 15.0772 21.024 15.1026 20.9746 15.128C20.8396 15.1975 20.7047 15.2671 20.5698 15.3368C20.4241 15.412 20.2782 15.4871 20.1324 15.5622C19.8471 15.7092 19.5618 15.8564 19.2765 16.0035C19.0447 16.1232 18.8128 16.2427 18.581 16.3623C18.5479 16.3793 18.5149 16.3963 18.4809 16.4138C18.4138 16.4484 18.3467 16.483 18.2796 16.5176C17.6508 16.8418 17.0221 17.166 16.3935 17.4904C15.8541 17.7686 15.3147 18.0467 14.7752 18.3248C14.1485 18.6478 13.5218 18.9709 12.8952 19.2941C12.8284 19.3285 12.7616 19.363 12.6948 19.3975C12.6619 19.4144 12.6291 19.4314 12.5952 19.4488C12.3636 19.5683 12.132 19.6877 11.9003 19.8071C11.6181 19.9525 11.3359 20.0981 11.0537 20.2437C10.9098 20.318 10.7658 20.3923 10.6218 20.4664C10.49 20.5343 10.3582 20.6023 10.2264 20.6704C10.1788 20.695 10.1311 20.7196 10.0834 20.7441C9.865 20.8565 9.65019 20.9694 9.44468 21.1049C8.98803 21.307 8.58366 21.3037 8.12541 21.1324C7.59236 20.9139 7.38454 20.429 7.1394 19.9396C7.112 19.8853 7.08459 19.831 7.05716 19.7767C6.98321 19.6303 6.90955 19.4837 6.83595 19.337C6.78988 19.2452 6.74375 19.1535 6.69759 19.0617C6.53635 18.7413 6.37533 18.4207 6.21453 18.1C6.06495 17.8017 5.91489 17.5036 5.76459 17.2057C5.63524 16.9492 5.50622 16.6926 5.37746 16.4358C5.3007 16.2827 5.22381 16.1297 5.14657 15.9769C5.07397 15.8332 5.0018 15.6893 4.92995 15.5452C4.9036 15.4926 4.8771 15.44 4.85044 15.3875C4.71464 15.12 4.59201 14.8693 4.56232 14.565C4.55921 14.5383 4.5561 14.5116 4.55289 14.484C4.51642 14.1034 4.70603 13.6818 4.92991 13.3849C5.18301 13.1341 5.50819 12.9856 5.82051 12.825C5.87427 12.7972 5.92802 12.7693 5.98176 12.7414C6.12893 12.6652 6.27623 12.5892 6.42356 12.5132C6.58263 12.4311 6.74158 12.3488 6.90055 12.2665C7.24785 12.0868 7.59531 11.9074 7.94281 11.7281C8.15984 11.6161 8.37684 11.504 8.59383 11.3919C9.19485 11.0814 9.7959 10.7711 10.3971 10.461C10.4548 10.4312 10.4548 10.4312 10.5136 10.4009C10.5915 10.3607 10.6694 10.3205 10.7474 10.2803C10.7861 10.2603 10.8247 10.2404 10.8646 10.2198C10.9227 10.1899 10.9227 10.1899 10.982 10.1593C11.6099 9.83542 12.2375 9.51101 12.8651 9.18638C13.5097 8.85294 14.1545 8.51991 14.7995 8.1873C15.1615 8.0006 15.5235 7.81373 15.8852 7.62641C16.1931 7.46696 16.5012 7.30789 16.8095 7.14932C16.9668 7.06842 17.1239 6.98735 17.2809 6.9058C17.4246 6.8311 17.5686 6.75691 17.7129 6.68312C17.7649 6.65639 17.8168 6.62947 17.8686 6.60235C18.524 6.25973 19.3301 6.19268 19.8833 6.77587Z" fill="#547580"/>
<path d="M20.0493 10.0802C20.0951 10.1416 20.0951 10.1416 20.1381 10.2184C20.1542 10.2473 20.1704 10.2762 20.187 10.3059C20.2752 10.471 20.3601 10.6376 20.4436 10.8051C20.4633 10.8443 20.483 10.8836 20.5033 10.924C20.5567 11.0305 20.61 11.1371 20.6633 11.2437C20.7192 11.3555 20.7752 11.4672 20.8312 11.5789C20.937 11.79 21.0427 12.0012 21.1483 12.2124C21.2687 12.453 21.3892 12.6936 21.5097 12.9342C21.7574 13.4286 22.0049 13.923 22.2523 14.4176C22.1528 14.5643 22.0292 14.6199 21.8727 14.6882C21.5639 14.829 21.2614 14.9808 20.9597 15.1362C20.9354 15.1487 20.9112 15.1611 20.8863 15.174C20.7288 15.255 20.5715 15.3361 20.4142 15.4174C20.2702 15.4917 20.1262 15.5658 19.9822 15.64C19.7011 15.7848 19.4201 15.9298 19.1391 16.0748C18.9107 16.1926 18.6823 16.3104 18.4539 16.4281C18.4049 16.4533 18.405 16.4533 18.355 16.4791C18.2888 16.5132 18.2225 16.5474 18.1562 16.5816C17.5365 16.9011 16.9168 17.2207 16.2972 17.5403C15.7657 17.8145 15.2342 18.0886 14.7026 18.3625C14.0843 18.6812 13.4661 19 12.8479 19.3188C12.782 19.3528 12.7161 19.3868 12.6502 19.4208C12.6016 19.4459 12.6016 19.4459 12.552 19.4715C12.3237 19.5892 12.0954 19.7069 11.8671 19.8245C11.5891 19.9678 11.3112 20.1111 11.0333 20.2546C10.8916 20.3277 10.7498 20.4008 10.6081 20.4739C10.4783 20.5407 10.3485 20.6076 10.2188 20.6747C10.1719 20.6989 10.125 20.7231 10.078 20.7472C9.80407 20.8856 9.80407 20.8856 9.54262 21.0462C9.43957 21.1083 9.3768 21.1219 9.25838 21.1179C8.97839 20.561 8.69853 20.0039 8.41882 19.4468C8.28895 19.1882 8.15904 18.9296 8.02903 18.671C7.91574 18.4456 7.80254 18.2203 7.68942 17.9949C7.6295 17.8755 7.56953 17.7561 7.50948 17.6367C7.453 17.5245 7.39662 17.4122 7.34032 17.2999C7.3097 17.2388 7.27896 17.1778 7.24822 17.1169C7.22109 17.0627 7.22109 17.0627 7.19341 17.0073C7.16967 16.9601 7.16967 16.9601 7.14544 16.9119C7.09806 16.8082 7.09842 16.7631 7.11673 16.6482C7.17817 16.5183 7.19534 16.5011 7.31221 16.434C7.34074 16.4176 7.36928 16.4011 7.39869 16.3842C7.56717 16.292 7.73742 16.2037 7.90853 16.1166C7.94478 16.098 7.98103 16.0795 8.01838 16.0603C8.10678 16.0151 8.19523 15.9699 8.28373 15.9249C8.39384 16.0193 8.44709 16.1275 8.51141 16.257C8.52256 16.2793 8.53372 16.3016 8.54522 16.3246C8.58194 16.3982 8.61835 16.4719 8.65477 16.5457C8.68027 16.5969 8.7058 16.648 8.73135 16.6992C8.79848 16.8338 8.86536 16.9685 8.93218 17.1032C9.03927 17.3191 9.14665 17.5349 9.25418 17.7505C9.29173 17.826 9.32913 17.9015 9.36652 17.977C9.38943 18.0231 9.41235 18.0691 9.43528 18.1152C9.45528 18.1555 9.47528 18.1959 9.49589 18.2374C9.56818 18.373 9.64046 18.4176 9.78782 18.4634C9.9389 18.479 10.0575 18.3959 10.1852 18.3218C10.2129 18.3068 10.2405 18.2917 10.269 18.2763C10.4628 18.1734 10.4628 18.1734 10.5822 17.9935C10.6169 17.8346 10.5798 17.7531 10.506 17.6172C10.488 17.5819 10.488 17.5819 10.4696 17.5459C10.4436 17.4951 10.4172 17.4445 10.3905 17.394C10.3482 17.3142 10.307 17.234 10.2659 17.1536C10.1934 17.0121 10.1201 16.8711 10.0465 16.7302C9.92863 16.5043 9.81144 16.2782 9.69528 16.0514C9.65447 15.9722 9.61297 15.8934 9.57142 15.8146C9.54651 15.7663 9.52162 15.718 9.49677 15.6696C9.48499 15.6477 9.47321 15.6258 9.46107 15.6033C9.43 15.5419 9.43 15.5419 9.39246 15.4365C9.45623 15.2673 9.64494 15.2087 9.79543 15.1314C9.82548 15.1152 9.85553 15.0989 9.88648 15.0821C9.91545 15.0671 9.94443 15.0521 9.97428 15.0366C10.0007 15.0228 10.0272 15.0089 10.0545 14.9947C10.1275 14.9741 10.1275 14.9741 10.186 14.9992C10.2706 15.0685 10.3051 15.1424 10.3542 15.2405C10.3843 15.2999 10.3843 15.2999 10.4149 15.3604C10.4363 15.4037 10.4578 15.447 10.4792 15.4903C10.5014 15.5345 10.5237 15.5788 10.5459 15.6231C10.5924 15.7158 10.6386 15.8086 10.6847 15.9015C10.7439 16.0207 10.8036 16.1397 10.8634 16.2586C10.9093 16.35 10.955 16.4414 11.0006 16.5329C11.0225 16.5768 11.0445 16.6207 11.0666 16.6646C11.0973 16.7258 11.1277 16.7872 11.158 16.8485C11.1841 16.9009 11.1841 16.9009 11.2107 16.9543C11.2451 17.0373 11.2451 17.0373 11.2233 17.1041C11.2472 17.1244 11.2472 17.1244 11.2716 17.1452C11.3337 17.2139 11.3337 17.2139 11.3815 17.3264C11.4365 17.441 11.4365 17.441 11.5456 17.4953C11.7338 17.5165 11.8501 17.4471 12.0158 17.3622C12.0477 17.3491 12.0795 17.3359 12.1123 17.3224C12.159 17.302 12.159 17.302 12.2066 17.2812C12.235 17.2692 12.2634 17.2572 12.2926 17.2449C12.3825 17.1679 12.4272 17.0934 12.4615 16.9799C12.4697 16.7455 12.3141 16.5213 12.2081 16.3201C12.1806 16.2661 12.1531 16.2121 12.1257 16.158C12.0537 16.0163 11.9805 15.8753 11.9071 15.7343C11.8323 15.5902 11.7586 15.4455 11.6848 15.3009C11.54 15.0174 11.3939 14.7347 11.2471 14.4524C11.343 14.3376 11.4627 14.2772 11.5928 14.21C11.6166 14.1975 11.6404 14.185 11.6649 14.1721C11.7434 14.131 11.8221 14.0902 11.9008 14.0494C11.9555 14.0209 12.0102 13.9925 12.0648 13.9641C12.1793 13.9046 12.2939 13.8453 12.4085 13.7861C12.5557 13.7101 12.7024 13.6333 12.8491 13.5564C12.9618 13.4975 13.0747 13.4391 13.1878 13.3807C13.242 13.3527 13.2961 13.3244 13.3502 13.2959C13.4256 13.2563 13.5014 13.2174 13.5772 13.1786C13.5996 13.1666 13.622 13.1547 13.6451 13.1424C13.7945 13.0673 13.7945 13.0673 13.883 13.0907C13.9594 13.1747 14.0035 13.2645 14.0538 13.3668C14.0705 13.4001 14.0705 13.4001 14.0874 13.4341C14.1239 13.5076 14.1599 13.5812 14.196 13.6549C14.2213 13.706 14.2467 13.7571 14.2721 13.8082C14.3389 13.9427 14.4054 14.0774 14.4718 14.2122C14.578 14.4278 14.6845 14.6432 14.7915 14.8585C14.8287 14.9337 14.8657 15.009 14.9026 15.0844C14.9255 15.1305 14.9484 15.1767 14.9713 15.2229C15.001 15.2833 15.001 15.2833 15.0314 15.345C15.1089 15.4828 15.1566 15.5407 15.3061 15.5912C15.4863 15.5984 15.5977 15.5408 15.7548 15.4568C15.782 15.4436 15.8093 15.4305 15.8373 15.4169C15.982 15.3416 16.1113 15.265 16.167 15.1037C16.1774 14.9932 16.1437 14.9299 16.0976 14.8299C16.08 14.7917 16.0624 14.7535 16.0443 14.7141C15.9452 14.5071 15.8435 14.3014 15.7401 14.0966C15.717 14.0507 15.6939 14.0048 15.6709 13.9589C15.6109 13.8395 15.5509 13.7203 15.4908 13.6011C15.4291 13.4788 15.3677 13.3564 15.3062 13.2341C15.186 12.9952 15.0658 12.7563 14.9454 12.5175C14.9883 12.4908 15.0313 12.464 15.0743 12.4374C15.0982 12.4225 15.1221 12.4076 15.1468 12.3923C15.2547 12.3272 15.3659 12.2699 15.4783 12.2132C15.5001 12.2021 15.5219 12.191 15.5443 12.1796C15.597 12.1527 15.6498 12.126 15.7026 12.0993C15.814 12.1942 15.8653 12.3034 15.9284 12.4349C15.9394 12.4575 15.9504 12.4802 15.9617 12.5036C15.9855 12.5527 16.0092 12.6019 16.0328 12.6511C16.0703 12.7291 16.1082 12.8068 16.1463 12.8845C16.2544 13.1054 16.3624 13.3263 16.4687 13.5481C16.5338 13.6838 16.5999 13.8191 16.6666 13.9541C16.6918 14.0055 16.7166 14.0571 16.7411 14.1088C16.878 14.4314 16.878 14.4314 17.1426 14.6334C17.2583 14.6529 17.3406 14.6469 17.4452 14.588C17.4717 14.5736 17.4982 14.5592 17.5256 14.5445C17.5521 14.5288 17.5787 14.5131 17.6061 14.497C17.6336 14.4819 17.6611 14.4668 17.6895 14.4513C17.9085 14.3322 17.9085 14.3322 18.0259 14.1156C18.0304 14.0088 17.9952 13.941 17.9509 13.8444C17.9335 13.8063 17.916 13.7682 17.898 13.7289C17.8037 13.5307 17.707 13.3339 17.6082 13.1379C17.5885 13.0983 17.5687 13.0587 17.5484 13.0179C17.4496 12.8214 17.3474 12.6294 17.2343 12.441C17.1448 12.2884 17.0638 12.1313 16.983 11.9739C16.9564 11.9239 16.9564 11.9239 16.9292 11.8729C16.9128 11.8409 16.8964 11.8089 16.8796 11.7759C16.8646 11.7471 16.8496 11.7184 16.8342 11.6887C16.8113 11.611 16.8113 11.611 16.8358 11.5446C16.8984 11.4767 16.957 11.443 17.0393 11.4019C17.0688 11.3869 17.0983 11.372 17.1286 11.3567C17.1594 11.3415 17.1901 11.3263 17.2218 11.3107C17.2529 11.2951 17.284 11.2794 17.316 11.2633C17.3926 11.2248 17.4694 11.1865 17.5463 11.1486C17.655 11.2421 17.708 11.3479 17.7716 11.476C17.788 11.5087 17.788 11.5087 17.8046 11.5421C17.8405 11.614 17.8761 11.6861 17.9117 11.7582C17.9367 11.8083 17.9616 11.8584 17.9866 11.9085C18.0523 12.0402 18.1178 12.172 18.1832 12.3039C18.2879 12.5151 18.3929 12.7261 18.4981 12.9371C18.5348 13.0108 18.5713 13.0845 18.6078 13.1583C18.6303 13.2035 18.6528 13.2487 18.6752 13.2938C18.6948 13.3333 18.7143 13.3727 18.7345 13.4134C18.7981 13.5329 18.8425 13.598 18.9624 13.6622C19.1536 13.6943 19.2657 13.6234 19.4347 13.5367C19.4826 13.5164 19.4826 13.5164 19.5315 13.4956C19.7347 13.407 19.7347 13.407 19.8603 13.2321C19.9162 12.9096 19.6232 12.5284 19.4822 12.249C19.4586 12.202 19.4349 12.155 19.4113 12.1079C19.3497 11.9853 19.2879 11.8627 19.2262 11.7401C19.1629 11.6146 19.0998 11.489 19.0367 11.3634C18.9132 11.1178 18.7896 10.8723 18.6659 10.6268C18.7654 10.5195 18.8644 10.4622 18.9947 10.3953C19.0158 10.3845 19.0369 10.3736 19.0586 10.3624C19.1031 10.3396 19.1476 10.3168 19.1921 10.2942C19.2604 10.2595 19.3285 10.2245 19.3965 10.1894C19.8214 9.97162 19.8214 9.97162 20.0493 10.0802Z" fill="#F5ECC2"/>
<path d="M13.8829 13.091C13.9588 13.1753 14.003 13.2652 14.0534 13.3673C14.0644 13.3895 14.0755 13.4117 14.0869 13.4346C14.1234 13.5081 14.1595 13.5818 14.1955 13.6554C14.2208 13.7065 14.2462 13.7576 14.2716 13.8087C14.3385 13.9432 14.405 14.0779 14.4713 14.2127C14.5775 14.4283 14.684 14.6437 14.791 14.859C14.8282 14.9342 14.8652 15.0095 14.9022 15.0849C14.925 15.1311 14.9479 15.1772 14.9708 15.2234C14.9906 15.2637 15.0105 15.304 15.0309 15.3455C15.1086 15.4836 15.1569 15.5411 15.3061 15.5929C15.4867 15.5986 15.5945 15.5295 15.7467 15.4386C15.8778 15.6498 15.9924 15.8662 16.1032 16.0889C16.1207 16.1238 16.1381 16.1587 16.1561 16.1946C16.2114 16.3051 16.2665 16.4156 16.3216 16.5262C16.3592 16.6015 16.3968 16.6768 16.4345 16.7522C16.5264 16.9359 16.6181 17.1198 16.7098 17.3037C16.4996 17.4374 16.2845 17.5544 16.063 17.6677C16.0283 17.6855 15.9936 17.7034 15.9579 17.7218C15.848 17.7782 15.7381 17.8346 15.6282 17.8909C15.5533 17.9294 15.4784 17.9679 15.4035 18.0064C15.2208 18.1003 15.038 18.1941 14.8552 18.2878C14.7154 18.0636 14.5953 17.8323 14.4773 17.5958C14.4568 17.5549 14.4363 17.5139 14.4151 17.4717C14.3592 17.3603 14.3034 17.2488 14.2477 17.1373C14.1892 17.0204 14.1307 16.9036 14.0721 16.7868C13.9615 16.566 13.8509 16.3451 13.7404 16.1243C13.6145 15.8726 13.4885 15.6211 13.3625 15.3695C13.1034 14.8524 12.8445 14.3352 12.5857 13.8179C12.5389 13.8375 12.4921 13.857 12.4454 13.8766C12.4193 13.8875 12.3933 13.8984 12.3665 13.9096C12.2547 13.958 12.1477 14.0129 12.0395 14.0691C12.0175 14.0805 11.9955 14.0919 11.9728 14.1036C11.9038 14.1393 11.8349 14.1752 11.7659 14.2111C11.7186 14.2357 11.6713 14.2602 11.6241 14.2847C11.5092 14.3442 11.3944 14.4039 11.2796 14.4636C11.3193 14.3419 11.3652 14.3259 11.4738 14.2683C11.4968 14.2564 11.5199 14.2446 11.5437 14.2324C11.5679 14.2197 11.5922 14.207 11.6171 14.1939C11.6974 14.1518 11.778 14.1103 11.8585 14.0687C11.9143 14.0398 11.9701 14.0108 12.0258 13.9818C12.1428 13.9211 12.2599 13.8607 12.3771 13.8004C12.5275 13.723 12.6775 13.6448 12.8275 13.5664C12.9425 13.5064 13.0578 13.4468 13.1732 13.3874C13.2287 13.3588 13.284 13.33 13.3392 13.301C13.4164 13.2606 13.4939 13.2209 13.5715 13.1814C13.5944 13.1692 13.6173 13.157 13.641 13.1445C13.7939 13.0678 13.7939 13.0678 13.8829 13.091Z" fill="#F7E8AF"/>
<path d="M20.0493 10.0799C20.0952 10.1413 20.0952 10.1413 20.1381 10.2181C20.1623 10.2614 20.1623 10.2614 20.1871 10.3056C20.2753 10.4706 20.3601 10.6372 20.4437 10.8048C20.4633 10.844 20.483 10.8832 20.5033 10.9236C20.5567 11.0302 20.61 11.1368 20.6633 11.2433C20.7192 11.3551 20.7752 11.4669 20.8312 11.5786C20.937 11.7897 21.0427 12.0009 21.1483 12.2121C21.2687 12.4527 21.3892 12.6932 21.5097 12.9338C21.7574 13.4282 22.0049 13.9227 22.2524 14.4172C22.1419 14.5611 22.0263 14.6212 21.8637 14.6923C21.6458 14.7905 21.4323 14.8948 21.2212 15.0072C21.1986 15.0192 21.176 15.0312 21.1526 15.0436C21.061 15.0921 20.9695 15.1406 20.8784 15.1902C20.8141 15.2252 20.7494 15.2596 20.6846 15.2938C20.6471 15.3141 20.6095 15.3343 20.5708 15.3552C20.4747 15.3895 20.4747 15.3895 20.4139 15.3637C20.3377 15.2999 20.3045 15.2372 20.2592 15.1483C20.2417 15.1142 20.2242 15.0801 20.2061 15.045C20.1876 15.0082 20.1691 14.9713 20.15 14.9333C20.1213 14.8765 20.1213 14.8765 20.0919 14.8187C20.0515 14.7387 20.0112 14.6586 19.9711 14.5784C19.9095 14.4554 19.8469 14.3329 19.7842 14.2104C19.7451 14.1327 19.706 14.0549 19.6671 13.9772C19.6481 13.9404 19.6292 13.9036 19.6098 13.8657C19.5929 13.8315 19.576 13.7973 19.5585 13.762C19.5434 13.7319 19.5283 13.7019 19.5126 13.6709C19.4899 13.5912 19.4899 13.5912 19.517 13.5221C19.5664 13.4684 19.5664 13.4684 19.6755 13.4209C19.7949 13.3625 19.7949 13.3625 19.8521 13.236C19.9307 12.9213 19.6205 12.5226 19.4822 12.2487C19.4586 12.2016 19.435 12.1546 19.4114 12.1076C19.3497 11.9849 19.288 11.8624 19.2262 11.7398C19.163 11.6143 19.0998 11.4887 19.0367 11.3631C18.9132 11.1175 18.7896 10.872 18.6659 10.6265C18.7654 10.5191 18.8644 10.4618 18.9947 10.395C19.0158 10.3841 19.0369 10.3732 19.0587 10.362C19.1031 10.3392 19.1476 10.3165 19.1922 10.2939C19.2604 10.2592 19.3285 10.2241 19.3965 10.189C19.8214 9.97127 19.8214 9.97127 20.0493 10.0799Z" fill="#F4EEC9"/>
<path d="M10.1855 14.999C10.2701 15.0683 10.3045 15.1422 10.3537 15.2403C10.3837 15.2996 10.3837 15.2996 10.4143 15.3602C10.4358 15.4035 10.4573 15.4467 10.4787 15.49C10.5009 15.5343 10.5231 15.5786 10.5454 15.6229C10.5918 15.7155 10.6381 15.8083 10.6842 15.9012C10.7434 16.0205 10.803 16.1395 10.8629 16.2584C10.9088 16.3497 10.9545 16.4412 11.0001 16.5327C11.022 16.5766 11.044 16.6205 11.066 16.6644C11.0967 16.7256 11.1271 16.7869 11.1575 16.8483C11.1749 16.8832 11.1923 16.9181 11.2102 16.9541C11.2446 17.037 11.2446 17.037 11.2228 17.1038C11.2387 17.1174 11.2547 17.131 11.2711 17.1449C11.3331 17.2136 11.3331 17.2136 11.3809 17.3262C11.436 17.4408 11.436 17.4408 11.5451 17.4951C11.7075 17.5133 11.7971 17.47 11.9415 17.3981C12.0153 17.362 12.0153 17.362 12.0922 17.3501C12.1006 17.3708 12.109 17.3914 12.1177 17.4127C12.2062 17.6272 12.304 17.8348 12.4087 18.0416C12.4246 18.0732 12.4405 18.1049 12.4569 18.1375C12.5072 18.2373 12.5576 18.3371 12.6079 18.4369C12.6421 18.5048 12.6763 18.5727 12.7105 18.6405C12.7852 18.789 12.86 18.9375 12.935 19.0858C12.9605 19.1365 12.9859 19.1871 13.0114 19.2378C12.3884 19.559 11.7655 19.8802 11.1237 20.2111C10.8063 19.5783 10.489 18.9455 10.1716 18.3127C10.1931 18.3019 10.2147 18.2911 10.2369 18.28C10.2649 18.2658 10.2929 18.2516 10.3218 18.237C10.3497 18.2229 10.3776 18.2089 10.4063 18.1944C10.5092 18.1375 10.5314 18.1032 10.5817 17.9933C10.6164 17.8344 10.5793 17.7529 10.5054 17.617C10.4934 17.5935 10.4814 17.5699 10.4691 17.5457C10.443 17.4949 10.4167 17.4443 10.39 17.3938C10.3477 17.314 10.3064 17.2338 10.2653 17.1534C10.1929 17.0119 10.1196 16.8709 10.046 16.73C9.9281 16.5041 9.8109 16.2779 9.69475 16.0512C9.65393 15.972 9.61243 15.8932 9.57088 15.8144C9.54597 15.7661 9.52109 15.7177 9.49624 15.6694C9.48445 15.6475 9.47267 15.6256 9.46053 15.603C9.42946 15.5416 9.42946 15.5416 9.39192 15.4363C9.45569 15.2671 9.6444 15.2085 9.7949 15.1312C9.82494 15.1149 9.85499 15.0987 9.88594 15.0819C9.91492 15.0669 9.94389 15.0519 9.97374 15.0364C10.0002 15.0226 10.0267 15.0087 10.0539 14.9944C10.1269 14.9739 10.1269 14.9739 10.1855 14.999Z" fill="#F6E7AE"/>
<path d="M15.702 12.0999C15.8135 12.1947 15.8647 12.3039 15.9278 12.4354C15.9443 12.4694 15.9443 12.4694 15.9611 12.5041C15.9849 12.5533 16.0086 12.6024 16.0322 12.6517C16.0697 12.7296 16.1076 12.8074 16.1457 12.8851C16.2538 13.1059 16.3618 13.3268 16.4681 13.5486C16.5332 13.6844 16.5993 13.8196 16.666 13.9546C16.6912 14.006 16.716 14.0576 16.7405 14.1094C16.8622 14.3896 16.8622 14.3896 17.0666 14.6038C17.1723 14.6406 17.2564 14.6538 17.3654 14.6234C17.3853 14.609 17.4053 14.5946 17.4258 14.5798C17.4855 14.5455 17.4855 14.5455 17.5465 14.5106C17.6656 14.5557 17.7057 14.6415 17.7619 14.7518C17.7794 14.7858 17.797 14.8199 17.815 14.855C17.8335 14.8919 17.852 14.9288 17.8711 14.9668C17.8903 15.0046 17.9095 15.0424 17.9292 15.0814C17.9696 15.1614 18.0099 15.2415 18.05 15.3217C18.1116 15.4447 18.1742 15.5672 18.2369 15.6897C18.276 15.7674 18.3151 15.8451 18.3541 15.9229C18.373 15.9596 18.3919 15.9964 18.4114 16.0343C18.4283 16.0686 18.4452 16.1028 18.4626 16.138C18.4777 16.1681 18.4929 16.1982 18.5085 16.2292C18.5312 16.3088 18.5312 16.3088 18.5076 16.375C18.4409 16.4464 18.3757 16.4824 18.2889 16.5266C18.2546 16.5443 18.2203 16.5619 18.185 16.5801C18.148 16.5988 18.1109 16.6175 18.0727 16.6367C18.0348 16.6562 17.9969 16.6756 17.9579 16.6956C17.8367 16.7576 17.7153 16.8192 17.5939 16.8807C17.5118 16.9227 17.4296 16.9646 17.3475 17.0066C17.1461 17.1096 16.9444 17.2122 16.7427 17.3144C16.6489 17.2305 16.5967 17.1469 16.5405 17.0341C16.5233 16.9996 16.506 16.9652 16.4882 16.9297C16.4699 16.8926 16.4515 16.8555 16.4327 16.8173C16.4136 16.7792 16.3946 16.7411 16.375 16.7019C16.3144 16.5803 16.254 16.4586 16.1937 16.3369C16.1526 16.2544 16.1115 16.1719 16.0704 16.0895C15.9696 15.8874 15.8691 15.6851 15.7688 15.4828C15.8345 15.4112 15.8746 15.3723 15.9655 15.3345C16.065 15.2734 16.1201 15.2134 16.1653 15.104C16.1773 14.993 16.1441 14.9305 16.0975 14.8301C16.0798 14.7919 16.0622 14.7538 16.044 14.7144C15.9444 14.5077 15.8429 14.302 15.7395 14.0971C15.7164 14.0512 15.6934 14.0053 15.6703 13.9594C15.6104 13.8401 15.5503 13.7208 15.4902 13.6016C15.4286 13.4793 15.3671 13.357 15.3056 13.2346C15.1854 12.9957 15.0652 12.7569 14.9448 12.5181C14.9877 12.4913 15.0307 12.4646 15.0737 12.4379C15.0976 12.423 15.1215 12.4081 15.1462 12.3928C15.2541 12.3278 15.3653 12.2705 15.4777 12.2138C15.4995 12.2027 15.5213 12.1916 15.5437 12.1801C15.5964 12.1532 15.6492 12.1265 15.702 12.0999Z" fill="#F3EEC9"/>
<path d="M14.0031 10.2528C14.0761 10.3474 14.0761 10.3474 14.1275 10.4559C14.1466 10.495 14.1656 10.534 14.1851 10.5743C14.2038 10.615 14.2225 10.6556 14.2417 10.6975C14.2713 10.7589 14.2713 10.7589 14.3015 10.8214C14.4652 11.1635 14.4652 11.1635 14.4398 11.323C14.2929 11.6335 13.7943 11.7815 13.4968 11.9345C13.4423 11.9626 13.3878 11.9907 13.3334 12.0188C13.2199 12.0774 13.1064 12.1359 12.9928 12.1943C12.8472 12.2693 12.7016 12.3444 12.556 12.4196C12.4439 12.4776 12.3317 12.5354 12.2195 12.5932C12.1657 12.6209 12.112 12.6486 12.0583 12.6764C11.9836 12.715 11.9088 12.7534 11.834 12.7918C11.8117 12.8034 11.7895 12.8149 11.7667 12.8267C11.6349 12.8941 11.5663 12.9244 11.4191 12.9015C11.2399 12.8161 11.1953 12.6981 11.1085 12.5233C11.0818 12.4713 11.0551 12.4194 11.0283 12.3675C10.9721 12.2574 10.916 12.1473 10.8608 12.0367C10.8432 12.0016 10.8432 12.0016 10.8253 11.9657C10.7827 11.8694 10.7882 11.8224 10.808 11.7162C10.8829 11.5508 10.9727 11.5095 11.1294 11.4302C11.1568 11.4156 11.1842 11.4011 11.2124 11.386C11.3029 11.3381 11.3939 11.2913 11.485 11.2446C11.5482 11.2117 11.6113 11.1787 11.6745 11.1457C11.8069 11.0768 11.9396 11.0085 12.0725 10.9405C12.2427 10.8534 12.412 10.7646 12.5811 10.6753C12.7114 10.6068 12.8421 10.5393 12.973 10.4721C13.0357 10.4398 13.0981 10.4072 13.1604 10.3741C13.2476 10.3281 13.3355 10.2834 13.4236 10.2391C13.4491 10.2253 13.4746 10.2114 13.5009 10.1971C13.6981 10.1008 13.8247 10.1273 14.0031 10.2528Z" fill="#80CBB7"/>
<path d="M14.9118 12.5072C15.0218 12.6166 15.0708 12.7004 15.1398 12.8383C15.151 12.8605 15.1622 12.8827 15.1738 12.9056C15.2106 12.9788 15.2471 13.0522 15.2836 13.1256C15.3092 13.1767 15.3348 13.2277 15.3604 13.2787C15.4139 13.3855 15.4673 13.4925 15.5206 13.5994C15.5889 13.7366 15.6575 13.8735 15.7262 14.0104C15.779 14.1158 15.8317 14.2211 15.8843 14.3265C15.9096 14.3771 15.9349 14.4276 15.9602 14.4781C15.9955 14.5486 16.0307 14.6193 16.0658 14.6899C16.0859 14.7301 16.1059 14.7703 16.1266 14.8117C16.1912 14.9506 16.215 15.0082 16.1692 15.1585C16.081 15.3324 15.934 15.3973 15.7653 15.4792C15.7221 15.5023 15.7221 15.5023 15.6779 15.5259C15.5419 15.5944 15.4494 15.6302 15.2961 15.6312C15.0913 15.5513 15.006 15.3528 14.9106 15.1629C14.8996 15.1411 14.8885 15.1193 14.8772 15.0968C14.8411 15.0255 14.8054 14.9539 14.7697 14.8824C14.7446 14.8324 14.7195 14.7825 14.6944 14.7326C14.642 14.6283 14.5898 14.5239 14.5377 14.4195C14.4709 14.2856 14.4036 14.1519 14.3363 14.0183C14.2845 13.9154 14.2329 13.8124 14.1813 13.7094C14.1566 13.66 14.1318 13.6107 14.107 13.5614C14.0724 13.4927 14.0381 13.4238 14.0038 13.3549C13.9842 13.3157 13.9646 13.2766 13.9444 13.2362C13.9025 13.1387 13.9025 13.1387 13.9022 13.0278C14.2353 12.856 14.5685 12.6842 14.9118 12.5072Z" fill="#2E323A"/>
<path d="M18.6586 10.6273C18.7489 10.7061 18.7883 10.7962 18.842 10.9037C18.8534 10.9264 18.8649 10.9491 18.8767 10.9725C18.9144 11.0476 18.9516 11.1228 18.9888 11.1981C19.0149 11.2503 19.041 11.3024 19.0672 11.3546C19.1219 11.4638 19.1763 11.5732 19.2306 11.6827C19.3003 11.8232 19.3704 11.9635 19.4406 12.1037C19.4945 12.2114 19.5482 12.3192 19.602 12.4269C19.6278 12.4787 19.6536 12.5304 19.6794 12.5822C19.7155 12.6544 19.7513 12.7267 19.7872 12.799C19.8076 12.8402 19.8281 12.8813 19.8492 12.9238C19.9136 13.0633 19.9093 13.1495 19.8589 13.2976C19.7773 13.436 19.629 13.4875 19.4886 13.5518C19.4431 13.5741 19.4431 13.5741 19.3966 13.5969C19.0905 13.7451 19.0905 13.7451 18.9148 13.6846C18.8272 13.6255 18.7941 13.5571 18.7435 13.4641C18.7132 13.4088 18.7132 13.4088 18.6824 13.3524C18.5771 13.1539 18.4732 12.9547 18.3715 12.7543C18.3603 12.7324 18.3492 12.7106 18.3378 12.688C18.2793 12.5729 18.221 12.4577 18.1627 12.3424C18.1147 12.2473 18.0664 12.1525 18.0177 12.0578C17.9585 11.9425 17.8999 11.8269 17.8416 11.7111C17.8195 11.6673 17.7971 11.6235 17.7745 11.5799C17.7432 11.5192 17.7127 11.4582 17.6822 11.3971C17.6646 11.3626 17.6471 11.328 17.629 11.2924C17.6011 11.2032 17.6011 11.2032 17.6286 11.1334C17.7457 11.0069 17.9196 10.9413 18.0706 10.8639C18.1357 10.8303 18.2003 10.7959 18.2649 10.7613C18.3057 10.7402 18.3466 10.719 18.3887 10.6973C18.4262 10.6777 18.4637 10.6582 18.5023 10.6381C18.5995 10.6051 18.5995 10.6051 18.6586 10.6273Z" fill="#2D3139"/>
<path d="M16.7558 11.556C16.8531 11.6422 16.9044 11.73 16.9613 11.8469C16.9786 11.8819 16.9959 11.917 17.0137 11.9531C17.0314 11.9896 17.0492 12.0262 17.0674 12.0638C17.1028 12.1362 17.1382 12.2085 17.1738 12.2808C17.1894 12.3129 17.205 12.345 17.221 12.378C17.2649 12.4668 17.2649 12.4668 17.342 12.5595C17.3348 12.5816 17.3276 12.6036 17.3202 12.6263C17.3355 12.6389 17.3508 12.6515 17.3666 12.6645C17.4568 12.7655 17.5113 12.8825 17.5709 13.0033C17.5839 13.0293 17.597 13.0554 17.6104 13.0822C17.6379 13.1371 17.6652 13.192 17.6925 13.247C17.7342 13.3312 17.7762 13.4152 17.8183 13.4991C17.845 13.5525 17.8716 13.6059 17.8982 13.6594C17.9108 13.6845 17.9233 13.7096 17.9363 13.7354C18.0685 14.0031 18.0685 14.0031 18.0457 14.1623C17.9585 14.3385 17.8366 14.3877 17.6675 14.4755C17.635 14.4954 17.6026 14.5154 17.5691 14.536C17.536 14.5556 17.5028 14.5752 17.4686 14.5954C17.4383 14.6137 17.4079 14.632 17.3767 14.6508C17.2571 14.6833 17.1728 14.6791 17.0562 14.6379C16.865 14.5068 16.7761 14.2505 16.6771 14.0461C16.6501 13.992 16.623 13.938 16.5959 13.884C16.5394 13.7711 16.4836 13.6579 16.4283 13.5444C16.3572 13.3987 16.2849 13.2538 16.212 13.109C16.1561 12.9977 16.1008 12.8861 16.0456 12.7744C16.0191 12.7208 15.9925 12.6673 15.9657 12.6139C15.9285 12.5393 15.892 12.4645 15.8557 12.3895C15.8445 12.3674 15.8334 12.3452 15.8218 12.3225C15.7924 12.2605 15.7924 12.2605 15.7574 12.1542C15.807 12.0171 15.9181 11.9784 16.043 11.9154C16.0735 11.8998 16.0735 11.8998 16.1047 11.8839C16.1695 11.851 16.2345 11.8185 16.2996 11.786C16.3437 11.7637 16.3877 11.7413 16.4318 11.719C16.5396 11.6643 16.6476 11.61 16.7558 11.556Z" fill="#2D3039"/>
<path d="M11.2398 14.4533C11.3291 14.5304 11.3748 14.6261 11.4275 14.7302C11.4393 14.7529 11.4511 14.7757 11.4633 14.7992C11.5023 14.8745 11.5408 14.9502 11.5792 15.0258C11.6061 15.0784 11.633 15.1311 11.6598 15.1837C11.7161 15.2941 11.772 15.4046 11.8278 15.5152C11.8992 15.6567 11.9718 15.7975 12.0447 15.9382C12.1007 16.0467 12.1558 16.1556 12.2106 16.2647C12.237 16.3168 12.2637 16.3688 12.2907 16.4205C12.5282 16.8763 12.5282 16.8763 12.4741 17.0695C12.4192 17.1796 12.3614 17.2422 12.2493 17.2952C12.2057 17.3167 12.2057 17.3167 12.1613 17.3385C12.1311 17.3522 12.1008 17.3658 12.0697 17.3798C12.0393 17.3946 12.009 17.4093 11.9778 17.4245C11.7105 17.5527 11.7105 17.5527 11.5514 17.5203C11.4017 17.4539 11.3832 17.3978 11.323 17.2474C11.2865 17.1736 11.2495 17.1 11.2122 17.0266C10.8727 16.3497 10.5332 15.6727 10.1937 14.9958C10.3469 14.8316 10.5447 14.7478 10.7415 14.6456C10.802 14.613 10.802 14.613 10.8638 14.5797C10.9219 14.5495 10.9219 14.5495 10.9812 14.5186C11.0166 14.5 11.0521 14.4813 11.0886 14.4621C11.1812 14.431 11.1812 14.431 11.2398 14.4533Z" fill="#2C2F38"/>
<path d="M9.33741 15.3814C9.44743 15.4757 9.50655 15.5911 9.57123 15.7188C9.58303 15.7417 9.59483 15.7646 9.60699 15.7882C9.64583 15.8637 9.68432 15.9395 9.72275 16.0152C9.73594 16.0411 9.74912 16.067 9.76271 16.0937C9.83243 16.2308 9.90187 16.3679 9.97111 16.5052C10.0426 16.6469 10.1151 16.7881 10.1877 16.9292C10.2435 17.0379 10.2985 17.147 10.3534 17.2561C10.3798 17.3084 10.4065 17.3604 10.4334 17.4124C10.4711 17.4851 10.5077 17.5583 10.5441 17.6316C10.5554 17.6529 10.5666 17.6742 10.5783 17.6961C10.6363 17.8158 10.6443 17.8713 10.6155 18.0038C10.5635 18.1174 10.536 18.1498 10.4282 18.2068C10.3858 18.2294 10.3858 18.2294 10.3425 18.2525C10.2963 18.2764 10.2963 18.2764 10.2491 18.3009C10.2163 18.3207 10.1835 18.3406 10.1496 18.3611C9.86198 18.5285 9.86198 18.5285 9.70903 18.4943C9.42361 18.3456 9.28973 17.8869 9.14832 17.6083C9.13667 17.5853 9.12502 17.5624 9.11302 17.5388C9.05167 17.4179 8.99047 17.297 8.92938 17.176C8.87889 17.076 8.82809 16.9763 8.77701 16.8767C8.71501 16.7558 8.65354 16.6346 8.59246 16.5132C8.56917 16.4671 8.54568 16.4211 8.52201 16.3752C8.48912 16.3114 8.45694 16.2473 8.4249 16.183C8.40642 16.1466 8.38794 16.1102 8.36889 16.0726C8.33901 15.9796 8.33901 15.9796 8.36607 15.909C8.44141 15.8294 8.52742 15.7898 8.62467 15.7408C8.6552 15.7252 8.6552 15.7252 8.68635 15.7093C8.75117 15.6764 8.81621 15.6439 8.88126 15.6114C8.92534 15.5891 8.9694 15.5667 9.01345 15.5444C9.12127 15.4897 9.22928 15.4354 9.33741 15.3814Z" fill="#2C2F38"/>
<path d="M18.7909 7.95647C19.0019 8.19543 19.1155 8.44922 19.1083 8.77088C19.0708 9.08946 18.9526 9.33059 18.7192 9.54805C18.5046 9.71333 18.2468 9.81695 17.9744 9.7934C17.6284 9.74407 17.4031 9.61276 17.188 9.3325C17.0298 9.06406 16.9688 8.83162 17.0362 8.52645C17.1358 8.17381 17.2773 7.95787 17.5914 7.77176C18.0106 7.57964 18.4532 7.64309 18.7909 7.95647Z" fill="#3F5C6C"/>
<path d="M7.9415 13.5624C8.17386 13.8325 8.25557 14.1004 8.24147 14.4566C8.17652 14.7595 8.04872 15.0038 7.79738 15.1891C7.54946 15.3494 7.29036 15.4285 6.99814 15.3726C6.68333 15.2815 6.46282 15.1374 6.28108 14.8614C6.12953 14.5815 6.12068 14.2747 6.20169 13.9699C6.28878 13.7153 6.47428 13.5339 6.70161 13.3987C7.11609 13.2028 7.59775 13.2394 7.9415 13.5624Z" fill="#3F5C6C"/>
<path d="M15.696 10.324C15.7785 10.4605 15.8048 10.5346 15.7722 10.6928C15.6426 10.8569 15.4869 10.938 15.2916 11.0049C15.1715 11.0174 15.1314 11.0029 15.0165 10.9522C14.9218 10.8308 14.9024 10.767 14.9171 10.6128C15.0223 10.4262 15.1928 10.35 15.3853 10.2708C15.5116 10.2357 15.5814 10.2653 15.696 10.324Z" fill="#35495E"/>
<path d="M10.138 12.0616C10.2713 12.1464 10.3152 12.2009 10.3603 12.3533C10.3544 12.4553 10.3544 12.4553 10.295 12.5536C10.1428 12.6695 9.93839 12.813 9.74097 12.7968C9.61399 12.7576 9.56104 12.7374 9.48783 12.6208C9.4658 12.4777 9.48789 12.4053 9.54639 12.2728C9.70726 12.1441 9.92759 12.0071 10.138 12.0616Z" fill="#35495E"/>
<path d="M15.2646 9.51921C15.3554 9.64153 15.3786 9.70566 15.3641 9.85864C15.2496 10.0616 15.0348 10.1605 14.8163 10.2227C14.6759 10.2023 14.631 10.1753 14.545 10.0605C14.5077 9.93828 14.4952 9.85863 14.543 9.73733C14.7208 9.50592 15.003 9.39656 15.2646 9.51921Z" fill="#35495E"/>
<path d="M10.6476 12.928C10.7249 13.027 10.7249 13.027 10.7583 13.1487C10.7227 13.3107 10.6836 13.3709 10.5524 13.47C10.3918 13.5643 10.2602 13.6352 10.0748 13.5863C9.9713 13.5391 9.94728 13.5141 9.88452 13.4135C9.8646 13.2764 9.86346 13.2227 9.93359 13.1017C10.1588 12.9298 10.3777 12.7956 10.6476 12.928Z" fill="#35495E"/>
</g>
<defs>
<clipPath id="clip0_520_886">
<rect width="17.781" height="17.9814" fill="white" transform="translate(8.09375 2.49219) rotate(18.0431)"/>
</clipPath>
</defs>
</svg>
