<svg width="27" height="38" viewBox="0 0 27 38" fill="none" xmlns="http://www.w3.org/2000/svg">
<path d="M0.0643003 13.9126C-0.577227 7.80258 3.73972 3.53342 5.97838 2.16259C12.3135 -1.75407 18.3077 0.530648 20.5129 2.16259C25.5649 5.06091 26.8948 9.96326 26.9282 12.0521C27.4895 16.4388 24.6227 21.9091 23.1191 24.0959C20.553 29.4225 15.501 35.5847 13.2957 38C8.00312 31.9683 4.40789 25.5646 3.27185 23.1167C0.545361 18.5734 -0.0025538 15.0876 0.0643003 13.9126Z" fill="#FC729F"/>
<ellipse cx="13.5" cy="14" rx="10.5" ry="11" fill="white"/>
<g clip-path="url(#clip0_520_887)">
<path d="M9.51956 9.06242C9.59924 9.10963 9.61956 9.14436 9.65579 9.22257C9.66236 9.35691 9.60858 9.46951 9.55471 9.59367C9.57977 9.60918 9.60484 9.62468 9.63066 9.64066C10.0873 9.92859 10.411 10.2631 10.6402 10.7187C10.6498 10.7375 10.6594 10.7564 10.6693 10.7758C10.7164 10.8746 10.7488 10.9606 10.7646 11.0678C10.7962 11.2809 10.7962 11.2809 10.9462 11.4397C11.0627 11.4919 11.1786 11.5333 11.3015 11.5722C11.343 11.5867 11.3844 11.6013 11.4271 11.6163C11.529 11.6519 11.6313 11.6859 11.7344 11.7187C11.7438 11.6972 11.7532 11.6756 11.7628 11.6535C11.7753 11.6253 11.7878 11.5971 11.8006 11.568C11.8129 11.5401 11.8252 11.5121 11.8378 11.4833C11.921 11.3108 12.0453 11.2165 12.2266 11.1249C12.5184 11.0252 12.8058 11.0299 13.0915 11.1413C13.2789 11.2438 13.4069 11.4017 13.5274 11.5624C13.5622 11.5521 13.597 11.5418 13.6328 11.5312C13.9626 11.5103 14.2044 11.5261 14.4832 11.6913C14.6113 11.7927 14.683 11.9273 14.7578 12.0624C14.81 12.0469 14.81 12.0469 14.8633 12.0312C15.151 12.0113 15.3952 12.0059 15.6367 12.1562C15.6679 12.1736 15.6991 12.191 15.7312 12.2089C15.8478 12.3126 15.9883 12.4723 15.9883 12.6249C16.0405 12.6094 16.0405 12.6094 16.0938 12.5937C16.4082 12.5682 16.68 12.5744 16.9375 12.7499C17.2275 13.0211 17.257 13.2919 17.2737 13.6523C17.2752 13.6827 17.2767 13.7132 17.2783 13.7445C17.282 13.8192 17.2856 13.894 17.2891 13.9687C17.3249 13.9827 17.3606 13.9967 17.3975 14.0111C17.5326 14.064 17.6677 14.1171 17.8028 14.1703C17.8608 14.1931 17.9188 14.2158 17.9768 14.2385C18.2636 14.3508 18.5501 14.4637 18.8318 14.5856C18.8885 14.61 18.8885 14.61 18.9463 14.6349C19.1801 14.7569 19.3297 14.9239 19.3985 15.1562C19.4394 15.4694 19.371 15.7165 19.2227 15.9999C19.2599 16.0108 19.2599 16.0108 19.2979 16.0219C19.7547 16.206 20.0605 16.659 20.24 17.0566C20.3663 17.3611 20.3933 17.638 20.3931 17.9599C20.3933 18.0025 20.3935 18.0451 20.3938 18.0878C20.3944 18.2027 20.3946 18.3177 20.3946 18.4327C20.3946 18.5046 20.3948 18.5765 20.395 18.6484C20.3956 18.8994 20.3959 19.1504 20.3959 19.4014C20.3958 19.6352 20.3966 19.869 20.3977 20.1028C20.3986 20.3038 20.399 20.5049 20.3989 20.706C20.3989 20.8259 20.3991 20.9459 20.3999 21.0659C20.4005 21.1785 20.4005 21.2911 20.4 21.4037C20.3999 21.4648 20.4005 21.5258 20.4011 21.5868C20.4008 21.6231 20.4005 21.6595 20.4002 21.6969C20.4003 21.7284 20.4003 21.76 20.4003 21.7925C20.3781 21.8972 20.3345 21.9341 20.2422 21.9999C20.1719 22.0176 20.1719 22.0176 20.1016 22.0175C20.0784 22.0182 20.0552 22.0189 20.0313 22.0196C19.9214 21.9889 19.8837 21.9269 19.8203 21.8437C19.8028 21.759 19.8028 21.759 19.8028 21.6658C19.8023 21.6126 19.8023 21.6126 19.8018 21.5583C19.8023 21.5004 19.8023 21.5004 19.8028 21.4412C19.8026 21.4003 19.8024 21.3594 19.8022 21.3172C19.8018 21.2283 19.8018 21.1395 19.8022 21.0506C19.8027 20.9097 19.8022 20.7689 19.8016 20.6281C19.8005 20.3543 19.8005 20.0804 19.8006 19.8066C19.8006 19.4588 19.8002 19.1109 19.7988 18.763C19.7983 18.6233 19.7983 18.4837 19.7988 18.344C19.7989 18.2566 19.7987 18.1693 19.7983 18.0819C19.7982 18.0227 19.7986 17.9636 19.799 17.9044C19.7957 17.4094 19.6152 16.988 19.2294 16.6271C19.1384 16.5507 19.0503 16.492 18.9414 16.4374C18.9367 16.4548 18.9319 16.4722 18.927 16.4902C18.8447 16.7496 18.6924 16.9256 18.4295 17.0624C18.1364 17.1762 17.8601 17.1671 17.5661 17.0686C17.4009 17.009 17.2388 16.9438 17.0782 16.8749C17.0747 16.8924 17.0712 16.9099 17.0676 16.9279C17.0291 17.1026 16.9699 17.2448 16.8694 17.3984C16.8555 17.4198 16.8416 17.4412 16.8273 17.4633C16.6627 17.7089 16.4662 17.9872 16.179 18.1296C16.0073 18.2173 15.8487 18.3077 15.7847 18.4818C15.7406 18.7103 15.7527 18.9417 15.7592 19.1725C15.7595 19.2473 15.7596 19.3221 15.7595 19.3969C15.7597 19.5931 15.7628 19.7891 15.7665 19.9852C15.7706 20.2238 15.7714 20.4624 15.7726 20.7011C15.7735 20.8866 15.775 21.0722 15.7781 21.2577C15.7785 21.2918 15.779 21.3258 15.7794 21.3609C15.7803 21.4244 15.7814 21.4879 15.7829 21.5514C15.7859 21.8134 15.7859 21.8134 15.7071 21.9374C15.6367 21.9999 15.6367 21.9999 15.5005 22.0116C15.3897 22.0093 15.361 22.0035 15.2676 21.9433C15.2149 21.8749 15.2149 21.8749 15.2149 21.7812C14.9279 21.7816 14.641 21.7829 14.354 21.7853C14.2207 21.7864 14.0875 21.7872 13.9543 21.7873C13.8257 21.7874 13.6971 21.7883 13.5686 21.7897C13.5195 21.7901 13.4704 21.7903 13.4214 21.7901C13.3527 21.79 13.284 21.7909 13.2153 21.7918C13.1762 21.792 13.1371 21.7922 13.0968 21.7924C12.9923 21.8042 12.9923 21.8042 12.936 21.8899C12.9223 21.9159 12.9087 21.9419 12.8946 21.9687C12.8295 22.0265 12.739 22.009 12.6522 22.0132C12.5377 21.9927 12.5061 21.9597 12.4375 21.8749C12.4174 21.7654 12.4217 21.6569 12.4245 21.5463C12.4249 21.4961 12.4249 21.4961 12.4253 21.4449C12.4259 21.3723 12.4268 21.2996 12.428 21.2269C12.4297 21.1119 12.4304 20.9968 12.4307 20.8817C12.4318 20.5545 12.434 20.2273 12.4388 19.9002C12.4417 19.7 12.4427 19.4999 12.4425 19.2998C12.4427 19.2236 12.4437 19.1474 12.4455 19.0712C12.4822 18.6639 12.4822 18.6639 12.3175 18.3055C12.219 18.2414 12.1276 18.1985 12.0157 18.1562C11.6976 17.9403 11.455 17.6283 11.2774 17.3124C11.2686 17.2069 11.2686 17.2069 11.2774 17.0937C11.2962 17.0751 11.3151 17.0565 11.3345 17.0374C11.3955 16.9676 11.3955 16.9676 11.3636 16.8684C11.3497 16.8313 11.3357 16.7941 11.3213 16.7558C11.2781 16.6384 11.2426 16.5338 11.2261 16.4109C11.2198 16.3784 11.2135 16.3459 11.2071 16.3124C11.1045 16.2603 11.1045 16.2603 10.9961 16.2187C10.9296 16.1065 10.9172 16.0125 10.9178 15.8869C10.9178 15.8353 10.9178 15.8353 10.9178 15.7827C10.9184 15.7275 10.9184 15.7275 10.9189 15.6712C10.919 15.6333 10.9191 15.5953 10.9192 15.5562C10.9196 15.4353 10.9205 15.3143 10.9214 15.1933C10.9218 15.1112 10.9221 15.0291 10.9224 14.947C10.9231 14.7459 10.9243 14.5448 10.9258 14.3437C10.8992 14.3394 10.8726 14.3352 10.8452 14.3308C10.7217 14.307 10.614 14.2607 10.5006 14.2126C10.4523 14.1926 10.4041 14.1726 10.3558 14.1526C10.2802 14.1212 10.2047 14.0896 10.1294 14.0578C10.0563 14.027 9.98298 13.9967 9.90957 13.9665C9.88719 13.9568 9.86481 13.9472 9.84175 13.9373C9.70771 13.8826 9.62514 13.8634 9.4844 13.9062C9.42066 13.9309 9.35697 13.9557 9.29405 13.982C8.63454 14.2571 7.86581 14.326 7.16409 14.1249C7.15942 14.1489 7.15475 14.1729 7.14994 14.1975C7.12185 14.3094 7.08443 14.3607 6.98831 14.4374C6.8899 14.4583 6.80571 14.4565 6.70706 14.4374C6.61917 14.3886 6.61917 14.3886 6.56643 14.3124C6.54856 14.1668 6.57278 14.07 6.63674 13.9374C6.60357 13.9207 6.5704 13.9041 6.53622 13.8869C5.7833 13.5017 5.23277 13.0048 4.9888 12.2499C4.79871 11.5826 4.93942 10.9037 5.3096 10.3066C5.43609 10.1213 5.58839 9.96736 5.75784 9.81242C5.77805 9.79252 5.79826 9.77262 5.81909 9.75211C6.16652 9.41964 6.6959 9.18992 7.19924 9.12492C7.22471 9.12149 7.25018 9.11807 7.27642 9.11454C7.85164 9.04773 8.37958 9.14869 8.9219 9.31242C8.95671 9.32273 8.99151 9.33304 9.02737 9.34367C9.03535 9.31531 9.04332 9.28695 9.05154 9.25773C9.14713 9.04733 9.27788 9.00274 9.51956 9.06242Z" fill="#010101"/>
<path d="M11.9453 12.8127C12.0483 12.8694 12.1364 12.9338 12.1914 13.0315C12.1951 13.0875 12.1965 13.1435 12.197 13.1996C12.1973 13.2348 12.1977 13.2699 12.198 13.3061C12.1983 13.3443 12.1986 13.3824 12.1988 13.4217C12.1998 13.502 12.2008 13.5823 12.2018 13.6625C12.2033 13.7895 12.2046 13.9164 12.2055 14.0434C12.2064 14.1656 12.2081 14.2878 12.2098 14.41C12.2099 14.448 12.21 14.4859 12.2102 14.5251C12.211 14.5782 12.211 14.5782 12.2119 14.6325C12.2123 14.6791 12.2123 14.6791 12.2128 14.7267C12.229 14.8281 12.2631 14.8875 12.332 14.969C12.4304 14.9969 12.4304 14.9969 12.543 15.0022C12.8835 15.0389 13.2114 15.1192 13.457 15.344C13.6157 15.5444 13.6996 15.7445 13.7163 15.9885C13.7262 16.0956 13.7331 16.1487 13.7954 16.2424C13.9173 16.2995 13.9948 16.2824 14.125 16.2502C14.2113 16.1352 14.2033 16.0489 14.1997 15.9163C14.1994 15.8943 14.1991 15.8724 14.1987 15.8498C14.1979 15.7958 14.1967 15.7417 14.1953 15.6877C14.3573 15.7081 14.4954 15.7648 14.6419 15.8262C14.6813 15.8424 14.6813 15.8424 14.7215 15.859C14.807 15.8942 14.8923 15.9296 14.9775 15.9651C15.095 16.0138 15.2126 16.0623 15.3302 16.1108C15.3594 16.1229 15.3885 16.1349 15.4185 16.1473C15.5951 16.2198 15.7726 16.2896 15.952 16.3564C15.9928 16.3718 16.0336 16.3871 16.0756 16.4028C16.1505 16.4307 16.2257 16.4581 16.3012 16.485C16.334 16.4973 16.3669 16.5095 16.4008 16.5222C16.4292 16.5324 16.4575 16.5426 16.4868 16.5531C16.5508 16.594 16.5508 16.594 16.5798 16.6704C16.6026 16.9661 16.296 17.3196 16.0938 17.5315C15.8736 17.751 15.6477 17.9224 15.3673 18.0765C15.2816 18.1186 15.2816 18.1186 15.25 18.1877C15.2463 18.2356 15.2448 18.2837 15.2444 18.3317C15.2441 18.362 15.2437 18.3923 15.2434 18.4236C15.2432 18.457 15.243 18.4903 15.2428 18.5247C15.2424 18.5598 15.2421 18.5948 15.2417 18.631C15.2406 18.7473 15.2397 18.8636 15.2389 18.98C15.2382 19.0605 15.2374 19.1409 15.2367 19.2214C15.2349 19.4119 15.2333 19.6024 15.2318 19.7928C15.2301 20.0097 15.2281 20.2265 15.2262 20.4433C15.2222 20.8894 15.2184 21.3354 15.2148 21.7815C15.1873 21.7815 15.1598 21.7816 15.1315 21.7816C14.8723 21.7822 14.6131 21.7835 14.354 21.7856C14.2207 21.7867 14.0875 21.7875 13.9542 21.7876C13.8257 21.7877 13.6971 21.7886 13.5686 21.79C13.5195 21.7904 13.4704 21.7906 13.4213 21.7904C13.3526 21.7903 13.284 21.7912 13.2153 21.7921C13.1762 21.7923 13.1371 21.7925 13.0968 21.7928C12.9922 21.8045 12.9922 21.8045 12.936 21.8902C12.9223 21.9162 12.9086 21.9422 12.8945 21.969C12.8295 22.0268 12.739 22.0093 12.6521 22.0135C12.5377 21.993 12.5061 21.96 12.4375 21.8752C12.4174 21.7657 12.4217 21.6573 12.4244 21.5466C12.4247 21.5131 12.425 21.4797 12.4252 21.4452C12.4258 21.3726 12.4268 21.2999 12.4279 21.2273C12.4297 21.1122 12.4304 20.9971 12.4307 20.8821C12.4317 20.5548 12.434 20.2277 12.4388 19.9005C12.4417 19.7003 12.4426 19.5003 12.4424 19.3001C12.4427 19.2239 12.4437 19.1477 12.4454 19.0715C12.4822 18.6642 12.4822 18.6642 12.3174 18.3058C12.219 18.2417 12.1275 18.1988 12.0156 18.1565C11.6976 17.9406 11.455 17.6286 11.2773 17.3127C11.2686 17.2073 11.2686 17.2073 11.2773 17.094C11.3056 17.0661 11.3056 17.0661 11.3345 17.0376C11.3954 16.9681 11.3954 16.9681 11.3636 16.8699C11.3496 16.833 11.3357 16.7961 11.3213 16.758C11.2636 16.5966 11.2222 16.45 11.207 16.2815C11.2411 16.2622 11.2752 16.2428 11.3103 16.2229C11.419 16.1672 11.419 16.1672 11.4531 16.094C11.4565 15.9987 11.4578 15.9041 11.4576 15.8087C11.4576 15.7792 11.4577 15.7496 11.4578 15.7191C11.4579 15.6547 11.458 15.5903 11.458 15.5259C11.4581 15.3891 11.4589 15.2523 11.4596 15.1154C11.4609 14.8605 11.462 14.6056 11.4619 14.3506C11.4619 14.1735 11.4627 13.9963 11.4641 13.8191C11.4645 13.7516 11.4645 13.6841 11.4643 13.6166C11.4639 13.522 11.4647 13.4275 11.4657 13.3329C11.4653 13.305 11.4649 13.2772 11.4646 13.2485C11.4671 13.1146 11.4767 13.0271 11.5732 12.9209C11.701 12.8128 11.7694 12.7947 11.9453 12.8127Z" fill="#FEE3AF"/>
<path d="M8.78138 9.81229C8.71436 10.0035 8.63427 10.1841 8.53804 10.365C8.5248 10.3903 8.51155 10.4155 8.49791 10.4415C8.46957 10.4955 8.44115 10.5494 8.41266 10.6033C8.33673 10.7471 8.26137 10.891 8.18593 11.0349C8.17073 11.0639 8.15553 11.0929 8.13987 11.1227C8.01411 11.3625 7.8901 11.6029 7.76723 11.8438C7.73561 11.9058 7.7039 11.9677 7.67217 12.0296C7.57102 12.2273 7.47083 12.4252 7.37246 12.6239C7.32445 12.7208 7.27606 12.8175 7.22763 12.9142C7.20456 12.9605 7.18169 13.0069 7.15901 13.0533C7.12774 13.1174 7.09585 13.1812 7.06381 13.2449C7.04581 13.2814 7.02781 13.3179 7.00926 13.3554C6.95326 13.4373 6.95326 13.4373 6.88301 13.4681C6.76147 13.4689 6.67232 13.4023 6.57533 13.3435C6.55337 13.3305 6.5314 13.3175 6.50878 13.304C5.98769 12.99 5.61385 12.5537 5.4767 11.9998C5.46178 11.8706 5.45993 11.7429 5.46132 11.6131C5.46156 11.5785 5.4618 11.544 5.46205 11.5084C5.46749 11.2631 5.49404 11.0656 5.61732 10.8435C5.63046 10.8166 5.64361 10.7897 5.65715 10.762C5.75595 10.5701 5.88392 10.4088 6.0392 10.2498C6.0619 10.2263 6.08461 10.2027 6.108 10.1785C6.32213 9.97227 6.56785 9.84116 6.84779 9.71854C6.88019 9.70424 6.9126 9.68994 6.94598 9.67521C7.52446 9.46374 8.23807 9.57662 8.78138 9.81229Z" fill="#45ADE1"/>
<path d="M13.0703 13.4063C13.1129 13.4596 13.1129 13.4596 13.1538 13.5254C13.2629 13.687 13.3929 13.7868 13.592 13.8584C13.8105 13.9062 14.0483 13.8876 14.2656 13.8438C14.2751 13.8619 14.2845 13.88 14.2942 13.8987C14.4162 14.1149 14.5614 14.2442 14.8074 14.3484C15.0228 14.4114 15.2775 14.3858 15.4961 14.3438C15.5046 14.3623 15.5131 14.3807 15.5219 14.3998C15.6395 14.6462 15.7496 14.7926 16.0289 14.9076C16.2753 14.9813 16.5066 14.9668 16.7419 14.8711C16.9348 14.774 17.061 14.6524 17.1484 14.4688C17.3199 14.5161 17.4801 14.577 17.643 14.6435C17.6696 14.6542 17.6962 14.665 17.7236 14.6761C17.7795 14.6989 17.8354 14.7216 17.8913 14.7445C17.9766 14.7792 18.0619 14.8138 18.1473 14.8483C18.2018 14.8705 18.2564 14.8927 18.3109 14.9149C18.3363 14.9252 18.3616 14.9354 18.3877 14.946C18.7988 15.1143 18.7988 15.1143 18.8711 15.25C18.8708 15.511 18.7518 15.7273 18.6307 15.9595C18.5963 16.0256 18.5628 16.092 18.5294 16.1584C18.5076 16.2009 18.4858 16.2433 18.4639 16.2858C18.454 16.3054 18.4441 16.3251 18.4338 16.3454C18.3735 16.46 18.3209 16.5522 18.2031 16.625C17.9807 16.6817 17.8176 16.6509 17.6158 16.5607C17.5908 16.5502 17.5658 16.5398 17.5401 16.529C17.4583 16.4945 17.377 16.4592 17.2957 16.4238C17.2081 16.3868 17.1205 16.35 17.0328 16.3131C16.9727 16.2879 16.9127 16.2625 16.8526 16.2371C16.5822 16.1226 16.3089 16.0141 16.0346 15.9071C15.5437 15.7154 15.0556 15.5183 14.5688 15.3184C14.5391 15.3062 14.5093 15.2939 14.4786 15.2814C14.3942 15.2467 14.3097 15.2119 14.2253 15.1771C14.2004 15.1669 14.1755 15.1567 14.1499 15.1461C13.7508 14.9814 13.7508 14.9814 13.5801 14.8633C13.3224 14.6993 13.0272 14.6174 12.7188 14.5625C12.7188 14.1913 12.7188 13.82 12.7188 13.4375C12.9648 13.375 12.9648 13.375 13.0703 13.4063Z" fill="#FC729F"/>
<path d="M9.27344 10.0312C9.76524 10.2855 10.0924 10.6949 10.2578 11.1758C10.3889 11.7402 10.299 12.3133 9.97588 12.8124C9.62773 13.2818 9.11269 13.5876 8.5 13.7188C8.47367 13.7246 8.44734 13.7304 8.42021 13.7363C8.29152 13.7547 8.16416 13.756 8.03418 13.7559C7.99448 13.7559 7.99448 13.7559 7.95399 13.7559C7.76376 13.7543 7.59357 13.7349 7.41016 13.6875C7.50393 13.4058 7.64673 13.1445 7.78589 12.8789C7.8127 12.8274 7.8395 12.7759 7.86628 12.7245C7.92146 12.6184 7.97671 12.5123 8.032 12.4062C8.14357 12.192 8.25403 11.9773 8.36435 11.7626C8.39884 11.6955 8.43337 11.6284 8.46791 11.5612C8.58771 11.3283 8.707 11.0952 8.82574 10.8618C8.85023 10.8138 8.87471 10.7657 8.8992 10.7176C8.9456 10.6265 8.99187 10.5354 9.03807 10.4442C9.05894 10.4033 9.0798 10.3623 9.10068 10.3213C9.11882 10.2855 9.13697 10.2498 9.15566 10.213C9.20312 10.125 9.20312 10.125 9.27344 10.0312Z" fill="#2E9BD4"/>
<path d="M15.5314 16.2188C15.7658 16.2842 15.9918 16.3618 16.2169 16.4492C16.2647 16.4667 16.2647 16.4667 16.3134 16.4846C16.3435 16.4964 16.3737 16.5081 16.4048 16.5203C16.4321 16.5306 16.4593 16.541 16.4874 16.5517C16.5509 16.5938 16.5509 16.5938 16.5797 16.6703C16.6034 16.9655 16.2957 17.3198 16.0939 17.5312C15.8737 17.7508 15.6478 17.9222 15.3674 18.0763C15.2818 18.1184 15.2818 18.1184 15.2501 18.1875C15.2465 18.235 15.245 18.2826 15.2446 18.3303C15.2442 18.3603 15.2439 18.3904 15.2435 18.4214C15.2433 18.4544 15.2431 18.4875 15.2429 18.5216C15.2426 18.5564 15.2422 18.5911 15.2419 18.6269C15.2408 18.7423 15.2399 18.8576 15.239 18.9729C15.2383 19.0527 15.2376 19.1325 15.2368 19.2122C15.2351 19.4011 15.2335 19.5899 15.232 19.7787C15.2302 19.9936 15.2283 20.2085 15.2263 20.4235C15.2223 20.8656 15.2186 21.3078 15.215 21.75C14.8437 21.75 14.4725 21.75 14.09 21.75C14.0789 21.2991 14.0698 20.8482 14.0645 20.3972C14.062 20.1877 14.0585 19.9783 14.0529 19.7689C14.0475 19.5667 14.0446 19.3646 14.0433 19.1623C14.0424 19.0853 14.0406 19.0082 14.038 18.9312C14.0184 18.3423 14.0184 18.3423 14.1381 18.1879C14.2685 18.0731 14.4188 18.0084 14.5822 17.9375C15.1228 17.5411 15.4333 16.923 15.5226 16.3145C15.5255 16.2829 15.5284 16.2513 15.5314 16.2188Z" fill="#FEDC9B"/>
<path d="M11.6995 17C11.799 17.0988 11.8746 17.2044 11.95 17.3184C12.1629 17.6172 12.4339 17.8234 12.7695 18.0097C12.8489 18.0562 12.9059 18.091 12.9652 18.1563C12.979 18.2245 12.979 18.2245 12.9799 18.3053C12.9805 18.336 12.9811 18.3666 12.9817 18.3982C12.9818 18.4318 12.9819 18.4654 12.982 18.5001C12.9828 18.5532 12.9828 18.5532 12.9836 18.6074C12.9852 18.7249 12.9861 18.8423 12.9869 18.9597C12.9877 19.0412 12.9886 19.1227 12.9895 19.2041C12.9914 19.375 12.9928 19.546 12.9939 19.7169C12.9953 19.9143 12.9974 20.1118 12.9999 20.3092C13.0023 20.4992 13.004 20.6893 13.0056 20.8793C13.0063 20.9601 13.0071 21.0409 13.0082 21.1217C13.0095 21.2347 13.0102 21.3477 13.0107 21.4606C13.0113 21.4941 13.0118 21.5276 13.0124 21.5621C13.0124 21.7399 13.0087 21.8676 12.8597 22C12.61 22.0182 12.61 22.0182 12.5043 21.9572C12.3998 21.828 12.4209 21.7015 12.4248 21.5464C12.425 21.5129 12.4253 21.4795 12.4255 21.445C12.4262 21.3724 12.4271 21.2997 12.4283 21.227C12.43 21.112 12.4307 20.9969 12.431 20.8818C12.4321 20.5546 12.4343 20.2275 12.4391 19.9003C12.442 19.7001 12.443 19.5 12.4427 19.2999C12.443 19.2237 12.444 19.1475 12.4458 19.0713C12.4825 18.664 12.4825 18.664 12.3177 18.3056C12.2193 18.2415 12.1279 18.1986 12.0159 18.1563C11.6979 17.9404 11.4553 17.6284 11.2777 17.3125C11.2614 17.1144 11.2614 17.1144 11.3238 17.0352C11.4552 16.9573 11.5522 16.9626 11.6995 17Z" fill="black"/>
<path d="M8.88672 10.7812C8.90992 10.7812 8.93312 10.7812 8.95703 10.7812C9.11738 11.1002 9.17357 11.3908 9.17676 11.7383C9.17725 11.7752 9.17725 11.7752 9.17775 11.8129C9.17413 12.4071 8.86538 12.9326 8.41678 13.3588C8.28041 13.4748 8.13201 13.5671 7.97266 13.6562C7.92045 13.6872 7.92045 13.6872 7.86719 13.7188C7.79262 13.726 7.79262 13.726 7.71118 13.7246C7.6844 13.7244 7.65762 13.7242 7.63002 13.724C7.55279 13.7189 7.48485 13.705 7.41016 13.6875C7.50393 13.4058 7.64671 13.1445 7.78589 12.8789C7.82605 12.8019 7.86616 12.7248 7.90626 12.6477C7.9338 12.5948 7.96136 12.5419 7.98894 12.489C8.0835 12.3076 8.17723 12.1259 8.27039 11.944C8.28295 11.9194 8.29552 11.8949 8.30847 11.8696C8.35688 11.7751 8.40528 11.6806 8.45356 11.586C8.59201 11.3149 8.73422 11.0464 8.88672 10.7812Z" fill="#45ACE0"/>
<path d="M10.8203 11.9062C10.9427 11.9489 11.0628 11.9947 11.1824 12.0432C11.2168 12.0571 11.2511 12.071 11.2865 12.0853C11.3219 12.0997 11.3573 12.1141 11.3938 12.1289C11.4299 12.1435 11.466 12.1582 11.5032 12.1732C11.592 12.2092 11.6808 12.2452 11.7695 12.2812C11.7695 12.3019 11.7695 12.3225 11.7695 12.3438C11.7411 12.3532 11.7127 12.3627 11.6834 12.3724C11.3732 12.4805 11.2064 12.5879 11.0312 12.8438C10.9918 12.9489 10.9888 13.0341 10.985 13.1449C10.9835 13.1855 10.982 13.2261 10.9805 13.2679C10.9791 13.3108 10.9777 13.3536 10.9763 13.3965C10.9748 13.4397 10.9733 13.483 10.9717 13.5262C10.968 13.632 10.9644 13.7379 10.9609 13.8438C10.3332 13.6157 10.3332 13.6157 10.0469 13.5C10.095 13.4062 10.1516 13.3358 10.2271 13.2578C10.5786 12.863 10.7476 12.3984 10.8203 11.9062Z" fill="#F9709D"/>
<path d="M13.9847 11.9999C14.0877 12.0565 14.1758 12.1209 14.2308 12.2186C14.2391 12.3596 14.2388 12.5008 14.2392 12.642C14.2396 12.7122 14.2407 12.7823 14.2418 12.8525C14.242 12.8972 14.2422 12.942 14.2423 12.9868C14.2428 13.0478 14.2428 13.0478 14.2433 13.1101C14.23 13.2252 14.2027 13.2831 14.1253 13.3749C14.005 13.455 13.8846 13.451 13.7386 13.4374C13.6194 13.3706 13.5724 13.3381 13.5277 13.2186C13.518 13.0723 13.5166 12.926 13.5153 12.7795C13.5148 12.7312 13.5138 12.6829 13.5125 12.6346C13.5105 12.5647 13.5098 12.4948 13.5093 12.4249C13.5085 12.4035 13.5077 12.382 13.5068 12.3599C13.5074 12.2385 13.5241 12.1912 13.6123 12.0963C13.744 12.0021 13.815 11.9825 13.9847 11.9999Z" fill="#FCE1AD"/>
<path d="M15.2148 12.5005C15.3281 12.5429 15.3953 12.5955 15.4609 12.688C15.4904 12.8377 15.4905 12.9825 15.4853 13.1341C15.4829 13.2055 15.4824 13.2767 15.4822 13.3481C15.4766 13.731 15.4766 13.731 15.3555 13.8755C15.2352 13.9557 15.1147 13.9539 14.9688 13.938C14.8763 13.8701 14.8115 13.8146 14.7578 13.7192C14.7479 13.5788 14.7468 13.4382 14.7455 13.2976C14.7449 13.2508 14.744 13.204 14.7426 13.1572C14.7407 13.0895 14.7399 13.0218 14.7394 12.9541C14.7387 12.9136 14.738 12.8731 14.7373 12.8313C14.7642 12.6846 14.8166 12.6358 14.9336 12.5317C15.0376 12.4855 15.0989 12.4869 15.2148 12.5005Z" fill="#FCE1AE"/>
<path d="M16.4453 13.0627C16.5682 13.1149 16.615 13.1484 16.6914 13.2502C16.6987 13.3279 16.7021 13.4019 16.702 13.4795C16.7021 13.5019 16.7023 13.5243 16.7024 13.5473C16.7026 13.5947 16.7027 13.642 16.7025 13.6893C16.7024 13.7615 16.7032 13.8336 16.7041 13.9058C16.7042 13.9518 16.7042 13.9979 16.7042 14.0439C16.7045 14.0654 16.7048 14.0869 16.7052 14.109C16.7037 14.2448 16.678 14.329 16.5859 14.4377C16.4657 14.5179 16.3452 14.5162 16.1992 14.5002C16.1068 14.4323 16.042 14.3769 15.9883 14.2815C15.9784 14.1411 15.9773 14.0005 15.976 13.8598C15.9754 13.813 15.9744 13.7662 15.9731 13.7195C15.9712 13.6517 15.9704 13.5841 15.9699 13.5164C15.9692 13.4758 15.9685 13.4353 15.9678 13.3936C15.9946 13.2469 16.0471 13.198 16.1641 13.094C16.2632 13.0499 16.3353 13.0551 16.4453 13.0627Z" fill="#FCE1AE"/>
<path d="M12.7889 11.5628C12.8898 11.6189 12.9468 11.656 12.9999 11.7503C13.009 11.8908 13.0094 12.0313 13.0102 12.172C13.0108 12.2418 13.0124 12.3116 13.0139 12.3814C13.0143 12.4261 13.0146 12.4708 13.0148 12.5154C13.0153 12.556 13.0158 12.5965 13.0164 12.6382C12.997 12.7694 12.9537 12.8366 12.8592 12.9378C12.7626 12.9652 12.7626 12.9652 12.6834 12.9691C12.6617 12.912 12.6617 12.912 12.6395 12.8538C12.5804 12.7142 12.5098 12.6028 12.3638 12.5221C12.2967 12.4691 12.2967 12.4691 12.278 12.392C12.2767 12.294 12.2759 12.196 12.277 12.098C12.2761 12.0639 12.2753 12.0299 12.2744 11.9948C12.2749 11.7468 12.2749 11.7468 12.376 11.6183C12.5182 11.5365 12.625 11.5335 12.7889 11.5628Z" fill="#FBE0AD"/>
<path d="M7.55078 9.59345C8.00245 9.57741 8.37587 9.63294 8.78125 9.8122C8.72361 9.97572 8.66209 10.1294 8.57031 10.2809C8.54783 10.2603 8.52536 10.2397 8.5022 10.2184C8.46638 10.1871 8.43048 10.1559 8.39453 10.1247C8.37355 10.1058 8.35257 10.0869 8.33095 10.0674C8.0994 9.87019 7.8355 9.75007 7.55078 9.6247C7.55078 9.61438 7.55078 9.60407 7.55078 9.59345Z" fill="#2E9BD3"/>
</g>
<defs>
<clipPath id="clip0_520_887">
<rect width="18" height="16" fill="white" transform="translate(4 6)"/>
</clipPath>
</defs>
</svg>
